<?xml version="1.0" encoding="UTF-8" standalone="no"?><svg xmlns="http://www.w3.org/2000/svg" xmlns:xlink="http://www.w3.org/1999/xlink" contentScriptType="application/ecmascript" contentStyleType="text/css" height="283px" preserveAspectRatio="none" style="width:780px;height:283px;background:#FFFFFF;" version="1.1" viewBox="0 0 780 283" width="780px" zoomAndPan="magnify"><defs><filter height="300%" id="f17w5hriplbli5" width="300%" x="-1" y="-1"><feGaussianBlur result="blurOut" stdDeviation="2.0"/><feColorMatrix in="blurOut" result="blurOut2" type="matrix" values="0 0 0 0 0 0 0 0 0 0 0 0 0 0 0 0 0 0 .4 0"/><feOffset dx="4.0" dy="4.0" in="blurOut2" result="blurOut3"/><feBlend in="SourceGraphic" in2="blurOut3" mode="normal"/></filter></defs><g><!--MD5=[174cc1f4f4efb3e1302c3f0922d8a9c1]
class ICompany--><rect codeLine="1" fill="#FEFECE" filter="url(#f17w5hriplbli5)" height="112.0234" id="ICompany" style="stroke:#A80036;stroke-width:1.5;" width="389" x="82" y="7"/><ellipse cx="242.25" cy="23" fill="#B4A7E5" rx="11" ry="11" style="stroke:#A80036;stroke-width:1.0;"/><path d="M238.1719,18.7656 L238.1719,16.6094 L245.5625,16.6094 L245.5625,18.7656 L243.0938,18.7656 L243.0938,26.8438 L245.5625,26.8438 L245.5625,29 L238.1719,29 L238.1719,26.8438 L240.6406,26.8438 L240.6406,18.7656 L238.1719,18.7656 Z " fill="#000000"/><text fill="#000000" font-family="sans-serif" font-size="12" font-style="italic" lengthAdjust="spacing" textLength="60" x="262.75" y="27.1543">ICompany</text><line style="stroke:#A80036;stroke-width:1.5;" x1="83" x2="470" y1="39" y2="39"/><text fill="#000000" font-family="sans-serif" font-size="11" lengthAdjust="spacing" textLength="189" x="88" y="53.2104">IEntities&lt;ICustomer&gt; Customers</text><text fill="#000000" font-family="sans-serif" font-size="11" lengthAdjust="spacing" textLength="131" x="88" y="66.0151">IEntities&lt;IUser&gt; Users</text><text fill="#000000" font-family="sans-serif" font-size="11" lengthAdjust="spacing" textLength="133" x="88" y="78.8198">IWarehouse Warehouse</text><text fill="#000000" font-family="sans-serif" font-size="11" lengthAdjust="spacing" textLength="171" x="88" y="91.6245">IEntities&lt;ISupplier&gt; Suppliers</text><line style="stroke:#A80036;stroke-width:1.5;" x1="83" x2="470" y1="98.2188" y2="98.2188"/><ellipse cx="93" cy="109.2188" fill="#84BE84" rx="3" ry="3" style="stroke:#038048;stroke-width:1.0;"/><text fill="#000000" font-family="sans-serif" font-size="11" lengthAdjust="spacing" textLength="363" x="102" y="112.4292">LoginAsync(userName: string , password:string) : Task&lt;IUser&gt;</text><!--MD5=[e3df29e2ec2ff7bb4b8995ee14292961]
class IEntities--><rect codeLine="10" fill="#FEFECE" filter="url(#f17w5hriplbli5)" height="73.6094" id="IEntities" style="stroke:#A80036;stroke-width:1.5;" width="239" x="506" y="26"/><ellipse cx="596.25" cy="42" fill="#B4A7E5" rx="11" ry="11" style="stroke:#A80036;stroke-width:1.0;"/><path d="M592.1719,37.7656 L592.1719,35.6094 L599.5625,35.6094 L599.5625,37.7656 L597.0938,37.7656 L597.0938,45.8438 L599.5625,45.8438 L599.5625,48 L592.1719,48 L592.1719,45.8438 L594.6406,45.8438 L594.6406,37.7656 L592.1719,37.7656 Z " fill="#000000"/><text fill="#000000" font-family="sans-serif" font-size="12" font-style="italic" lengthAdjust="spacing" textLength="50" x="616.75" y="46.1543">IEntities</text><line style="stroke:#A80036;stroke-width:1.5;" x1="507" x2="744" y1="58" y2="58"/><line style="stroke:#A80036;stroke-width:1.5;" x1="507" x2="744" y1="66" y2="66"/><ellipse cx="517" cy="77" fill="#84BE84" rx="3" ry="3" style="stroke:#038048;stroke-width:1.0;"/><text fill="#000000" font-family="sans-serif" font-size="11" lengthAdjust="spacing" textLength="211" x="526" y="80.2104">ToListAsync() : Task&lt;IList&lt;TEntity&gt;&gt;</text><ellipse cx="517" cy="89.8047" fill="#84BE84" rx="3" ry="3" style="stroke:#038048;stroke-width:1.0;"/><text fill="#000000" font-family="sans-serif" font-size="11" lengthAdjust="spacing" textLength="213" x="526" y="93.0151">With(filter : IFilter) : IEntities&lt;TEntity&gt;</text><!--MD5=[fa61f9393a6e78a1f0a5db506689f6f2]
class ICustomer--><rect codeLine="16" fill="#FEFECE" filter="url(#f17w5hriplbli5)" height="48" id="ICustomer" style="stroke:#A80036;stroke-width:1.5;" width="95" x="7" y="209"/><ellipse cx="22" cy="225" fill="#B4A7E5" rx="11" ry="11" style="stroke:#A80036;stroke-width:1.0;"/><path d="M17.9219,220.7656 L17.9219,218.6094 L25.3125,218.6094 L25.3125,220.7656 L22.8438,220.7656 L22.8438,228.8438 L25.3125,228.8438 L25.3125,231 L17.9219,231 L17.9219,228.8438 L20.3906,228.8438 L20.3906,220.7656 L17.9219,220.7656 Z " fill="#000000"/><text fill="#000000" font-family="sans-serif" font-size="12" font-style="italic" lengthAdjust="spacing" textLength="63" x="36" y="229.1543">ICustomer</text><line style="stroke:#A80036;stroke-width:1.5;" x1="8" x2="101" y1="241" y2="241"/><line style="stroke:#A80036;stroke-width:1.5;" x1="8" x2="101" y1="249" y2="249"/><!--MD5=[4397ba3f25468a58f081bf0666d83f60]
class IUser--><rect codeLine="17" fill="#FEFECE" filter="url(#f17w5hriplbli5)" height="48" id="IUser" style="stroke:#A80036;stroke-width:1.5;" width="64" x="137.5" y="209"/><ellipse cx="152.5" cy="225" fill="#B4A7E5" rx="11" ry="11" style="stroke:#A80036;stroke-width:1.0;"/><path d="M148.4219,220.7656 L148.4219,218.6094 L155.8125,218.6094 L155.8125,220.7656 L153.3438,220.7656 L153.3438,228.8438 L155.8125,228.8438 L155.8125,231 L148.4219,231 L148.4219,228.8438 L150.8906,228.8438 L150.8906,220.7656 L148.4219,220.7656 Z " fill="#000000"/><text fill="#000000" font-family="sans-serif" font-size="12" font-style="italic" lengthAdjust="spacing" textLength="32" x="166.5" y="229.1543">IUser</text><line style="stroke:#A80036;stroke-width:1.5;" x1="138.5" x2="200.5" y1="241" y2="241"/><line style="stroke:#A80036;stroke-width:1.5;" x1="138.5" x2="200.5" y1="249" y2="249"/><!--MD5=[72ebdb76e9db27ec466b32e588ae4e81]
class IWarehouse--><rect codeLine="18" fill="#FEFECE" filter="url(#f17w5hriplbli5)" height="73.6094" id="IWarehouse" style="stroke:#A80036;stroke-width:1.5;" width="295" x="237" y="196"/><ellipse cx="343.25" cy="212" fill="#B4A7E5" rx="11" ry="11" style="stroke:#A80036;stroke-width:1.0;"/><path d="M339.1719,207.7656 L339.1719,205.6094 L346.5625,205.6094 L346.5625,207.7656 L344.0938,207.7656 L344.0938,215.8438 L346.5625,215.8438 L346.5625,218 L339.1719,218 L339.1719,215.8438 L341.6406,215.8438 L341.6406,207.7656 L339.1719,207.7656 Z " fill="#000000"/><text fill="#000000" font-family="sans-serif" font-size="12" font-style="italic" lengthAdjust="spacing" textLength="74" x="363.75" y="216.1543">IWarehouse</text><line style="stroke:#A80036;stroke-width:1.5;" x1="238" x2="531" y1="228" y2="228"/><text fill="#000000" font-family="sans-serif" font-size="11" lengthAdjust="spacing" textLength="200" x="243" y="242.2104">IEntities&lt;IWarehouseGood&gt; Goods</text><line style="stroke:#A80036;stroke-width:1.5;" x1="238" x2="531" y1="248.8047" y2="248.8047"/><ellipse cx="248" cy="259.8047" fill="#84BE84" rx="3" ry="3" style="stroke:#038048;stroke-width:1.0;"/><text fill="#000000" font-family="sans-serif" font-size="11" lengthAdjust="spacing" textLength="269" x="257" y="263.0151">ByBarcodeAsync(ean: string) : Task&lt;IStorage&gt;</text><!--MD5=[f7f4a9c734668113b597fe9b3e401ef0]
class ISupplier--><rect codeLine="24" fill="#FEFECE" filter="url(#f17w5hriplbli5)" height="60.8047" id="ISupplier" style="stroke:#A80036;stroke-width:1.5;" width="199" x="567" y="202.5"/><ellipse cx="635.25" cy="218.5" fill="#B4A7E5" rx="11" ry="11" style="stroke:#A80036;stroke-width:1.0;"/><path d="M631.1719,214.2656 L631.1719,212.1094 L638.5625,212.1094 L638.5625,214.2656 L636.0938,214.2656 L636.0938,222.3438 L638.5625,222.3438 L638.5625,224.5 L631.1719,224.5 L631.1719,222.3438 L633.6406,222.3438 L633.6406,214.2656 L631.1719,214.2656 Z " fill="#000000"/><text fill="#000000" font-family="sans-serif" font-size="12" font-style="italic" lengthAdjust="spacing" textLength="54" x="655.75" y="222.6543">ISupplier</text><line style="stroke:#A80036;stroke-width:1.5;" x1="568" x2="765" y1="234.5" y2="234.5"/><text fill="#000000" font-family="sans-serif" font-size="11" lengthAdjust="spacing" textLength="187" x="573" y="248.7104">IEntities&lt;IReception&gt; Receptions</text><line style="stroke:#A80036;stroke-width:1.5;" x1="568" x2="765" y1="255.3047" y2="255.3047"/><!--MD5=[49ef23f3df3a3bd53fb72f77ec9a58bc]
reverse link ICompany to ICustomer--><path codeLine="29" d="M179.89,126.76 C169.5,134.07 159.19,141.57 149.5,149 C124.64,168.05 97.91,191.72 79.16,208.9 " fill="none" id="ICompany-backto-ICustomer" style="stroke:#A80036;stroke-width:1.0;"/><polygon fill="#A80036" points="190.73,119.22,183.5204,119.365,180.8813,126.0759,188.0909,125.9308,190.73,119.22" style="stroke:#A80036;stroke-width:1.0;"/><text fill="#000000" font-family="sans-serif" font-size="13" lengthAdjust="spacing" textLength="54" x="150.5" y="162.0669">contains</text><text fill="#000000" font-family="sans-serif" font-size="13" lengthAdjust="spacing" textLength="8" x="171.7893" y="139.0594">1</text><text fill="#000000" font-family="sans-serif" font-size="13" lengthAdjust="spacing" textLength="36" x="44.8666" y="197.8864">many</text><!--MD5=[3409c9272a57e3b85ec3c1a63de29f9d]
reverse link ICompany to IUser--><path codeLine="30" d="M234.28,130.29 C216.62,158.02 197.24,188.45 184.32,208.73 " fill="none" id="ICompany-backto-IUser" style="stroke:#A80036;stroke-width:1.0;"/><polygon fill="#A80036" points="241.46,119.01,234.8634,121.9228,235.0149,129.1323,241.6116,126.2195,241.46,119.01" style="stroke:#A80036;stroke-width:1.0;"/><text fill="#000000" font-family="sans-serif" font-size="13" lengthAdjust="spacing" textLength="54" x="221.5" y="162.0669">contains</text><text fill="#000000" font-family="sans-serif" font-size="13" lengthAdjust="spacing" textLength="8" x="228.458" y="139.2211">1</text><text fill="#000000" font-family="sans-serif" font-size="13" lengthAdjust="spacing" textLength="36" x="147.5449" y="198.0691">many</text><!--MD5=[f8e4752c4ba4b88646ed7fb6a0542aa5]
reverse link ICompany to ISupplier--><path codeLine="31" d="M416.42,124.27 C478.12,150.85 547.82,180.88 597.94,202.46 " fill="none" id="ICompany-backto-ISupplier" style="stroke:#A80036;stroke-width:1.0;"/><polygon fill="#A80036" points="404.2,119.01,408.1287,125.0569,415.2215,123.7561,411.2928,117.7092,404.2,119.01" style="stroke:#A80036;stroke-width:1.0;"/><text fill="#000000" font-family="sans-serif" font-size="13" lengthAdjust="spacing" textLength="54" x="507.5" y="162.0669">contains</text><text fill="#000000" font-family="sans-serif" font-size="13" lengthAdjust="spacing" textLength="8" x="412.0491" y="139.2211">1</text><text fill="#000000" font-family="sans-serif" font-size="13" lengthAdjust="spacing" textLength="36" x="543.005" y="191.2415">many</text><!--MD5=[a2fb562cbc050e676760d92a3e1f45c5]
reverse link ICompany to IWarehouse--><path codeLine="32" d="M319.04,130.18 C333.45,152.59 348.99,176.76 361.31,195.93 " fill="none" id="ICompany-backto-IWarehouse" style="stroke:#A80036;stroke-width:1.0;"/><polygon fill="#A80036" points="311.86,119.01,311.7479,126.2202,318.3604,129.0969,318.4725,121.8866,311.86,119.01" style="stroke:#A80036;stroke-width:1.0;"/><!--MD5=[c2429285888056bb79f8307e83f0a356]
@startuml
interface       ICompany
{
  IEntities<ICustomer> Customers
  IEntities<IUser> Users
  IWarehouse Warehouse
  IEntities<ISupplier> Suppliers
  +LoginAsync(userName: string , password:string) : Task<IUser>
}

interface       IEntities
{
  +ToListAsync() : Task<IList<TEntity>> 
  +With(filter : IFilter) : IEntities<TEntity> 
}

interface       ICustomer
interface       IUser
interface       IWarehouse
{
  IEntities<IWarehouseGood> Goods

  +ByBarcodeAsync(ean: string) : Task<IStorage>
}
interface       ISupplier
{
  IEntities<IReception> Receptions
}

ICompany "1" *- - "many" ICustomer : contains
ICompany "1" *- - "many" IUser : contains
ICompany "1" *- - "many" ISupplier : contains
ICompany *- - IWarehouse
@enduml

PlantUML version 1.2021.16(Wed Dec 08 17:25:22 UTC 2021)
(GPL source distribution)
Java Runtime: OpenJDK Runtime Environment
JVM: OpenJDK 64-Bit Server VM
Default Encoding: UTF-8
Language: en
Country: US
--></g></svg>