<?xml version="1.0" encoding="UTF-8" standalone="no"?><svg xmlns="http://www.w3.org/2000/svg" xmlns:xlink="http://www.w3.org/1999/xlink" contentScriptType="application/ecmascript" contentStyleType="text/css" height="914px" preserveAspectRatio="none" style="width:515px;height:914px;background:#FFFFFF;" version="1.1" viewBox="0 0 515 914" width="515px" zoomAndPan="magnify"><defs><filter height="300%" id="f8tbkins7tpun" width="300%" x="-1" y="-1"><feGaussianBlur result="blurOut" stdDeviation="2.0"/><feColorMatrix in="blurOut" result="blurOut2" type="matrix" values="0 0 0 0 0 0 0 0 0 0 0 0 0 0 0 0 0 0 .4 0"/><feOffset dx="4.0" dy="4.0" in="blurOut2" result="blurOut3"/><feBlend in="SourceGraphic" in2="blurOut3" mode="normal"/></filter></defs><g><!--MD5=[f7f4a9c734668113b597fe9b3e401ef0]
class ISupplier--><rect codeLine="1" fill="#FEFECE" filter="url(#f8tbkins7tpun)" height="60.8047" id="ISupplier" style="stroke:#A80036;stroke-width:1.5;" width="199" x="112" y="7"/><ellipse cx="180.25" cy="23" fill="#B4A7E5" rx="11" ry="11" style="stroke:#A80036;stroke-width:1.0;"/><path d="M176.1719,18.7656 L176.1719,16.6094 L183.5625,16.6094 L183.5625,18.7656 L181.0938,18.7656 L181.0938,26.8438 L183.5625,26.8438 L183.5625,29 L176.1719,29 L176.1719,26.8438 L178.6406,26.8438 L178.6406,18.7656 L176.1719,18.7656 Z " fill="#000000"/><text fill="#000000" font-family="sans-serif" font-size="12" font-style="italic" lengthAdjust="spacing" textLength="54" x="200.75" y="27.1543">ISupplier</text><line style="stroke:#A80036;stroke-width:1.5;" x1="113" x2="310" y1="39" y2="39"/><text fill="#000000" font-family="sans-serif" font-size="11" lengthAdjust="spacing" textLength="187" x="118" y="53.2104">IEntities&lt;IReception&gt; Receptions</text><line style="stroke:#A80036;stroke-width:1.5;" x1="113" x2="310" y1="59.8047" y2="59.8047"/><!--MD5=[97030263585a0ee0e093ee1c379493c2]
class IReception--><rect codeLine="5" fill="#FEFECE" filter="url(#f8tbkins7tpun)" height="86.4141" id="IReception" style="stroke:#A80036;stroke-width:1.5;" width="400" x="11.5" y="145"/><ellipse cx="174.25" cy="161" fill="#B4A7E5" rx="11" ry="11" style="stroke:#A80036;stroke-width:1.0;"/><path d="M170.1719,156.7656 L170.1719,154.6094 L177.5625,154.6094 L177.5625,156.7656 L175.0938,156.7656 L175.0938,164.8438 L177.5625,164.8438 L177.5625,167 L170.1719,167 L170.1719,164.8438 L172.6406,164.8438 L172.6406,156.7656 L170.1719,156.7656 Z " fill="#000000"/><text fill="#000000" font-family="sans-serif" font-size="12" font-style="italic" lengthAdjust="spacing" textLength="66" x="194.75" y="165.1543">IReception</text><line style="stroke:#A80036;stroke-width:1.5;" x1="12.5" x2="410.5" y1="177" y2="177"/><text fill="#000000" font-family="sans-serif" font-size="11" lengthAdjust="spacing" textLength="192" x="17.5" y="191.2104">IEntities&lt;IReceptionGood&gt; Goods</text><line style="stroke:#A80036;stroke-width:1.5;" x1="12.5" x2="410.5" y1="197.8047" y2="197.8047"/><ellipse cx="22.5" cy="208.8047" fill="#84BE84" rx="3" ry="3" style="stroke:#038048;stroke-width:1.0;"/><text fill="#000000" font-family="sans-serif" font-size="11" lengthAdjust="spacing" textLength="374" x="31.5" y="212.0151">ValidateAsync(goodsToValidate: IList&lt;IGoodConfirmation&gt;) : Task</text><ellipse cx="22.5" cy="221.6094" fill="#84BE84" rx="3" ry="3" style="stroke:#038048;stroke-width:1.0;"/><text fill="#000000" font-family="sans-serif" font-size="11" lengthAdjust="spacing" textLength="169" x="31.5" y="224.8198">Confirmation() : IConfirmation</text><!--MD5=[042910ce448c96a3f43e3022bbf01c0e]
class IConfirmation--><rect codeLine="13" fill="#FEFECE" filter="url(#f8tbkins7tpun)" height="137.6328" id="IConfirmation" style="stroke:#A80036;stroke-width:1.5;" width="409" x="7" y="292"/><ellipse cx="166.25" cy="308" fill="#B4A7E5" rx="11" ry="11" style="stroke:#A80036;stroke-width:1.0;"/><path d="M162.1719,303.7656 L162.1719,301.6094 L169.5625,301.6094 L169.5625,303.7656 L167.0938,303.7656 L167.0938,311.8438 L169.5625,311.8438 L169.5625,314 L162.1719,314 L162.1719,311.8438 L164.6406,311.8438 L164.6406,303.7656 L162.1719,303.7656 Z " fill="#000000"/><text fill="#000000" font-family="sans-serif" font-size="12" font-style="italic" lengthAdjust="spacing" textLength="82" x="186.75" y="312.1543">IConfirmation</text><line style="stroke:#A80036;stroke-width:1.5;" x1="8" x2="415" y1="324" y2="324"/><text fill="#000000" font-family="sans-serif" font-size="11" lengthAdjust="spacing" textLength="117" x="13" y="338.2104">IReception Reception</text><text fill="#000000" font-family="sans-serif" font-size="11" lengthAdjust="spacing" textLength="140" x="13" y="351.0151">IConfirmationState State</text><line style="stroke:#A80036;stroke-width:1.5;" x1="8" x2="415" y1="357.6094" y2="357.6094"/><ellipse cx="18" cy="368.6094" fill="#84BE84" rx="3" ry="3" style="stroke:#038048;stroke-width:1.0;"/><text fill="#000000" font-family="sans-serif" font-size="11" lengthAdjust="spacing" textLength="351" x="27" y="371.8198">AddAsync(goodToAdd : IReceptionGood , quantity : int ) : Task</text><ellipse cx="18" cy="381.4141" fill="#84BE84" rx="3" ry="3" style="stroke:#038048;stroke-width:1.0;"/><text fill="#000000" font-family="sans-serif" font-size="11" lengthAdjust="spacing" textLength="383" x="27" y="384.6245">RemoveAsync(goodToRemove: IReceptionGood , quantity: int): Task</text><ellipse cx="18" cy="394.2188" fill="#84BE84" rx="3" ry="3" style="stroke:#038048;stroke-width:1.0;"/><text fill="#000000" font-family="sans-serif" font-size="11" lengthAdjust="spacing" textLength="124" x="27" y="397.4292">CommitAsync() : Task</text><ellipse cx="18" cy="407.0234" fill="#84BE84" rx="3" ry="3" style="stroke:#038048;stroke-width:1.0;"/><text fill="#000000" font-family="sans-serif" font-size="11" lengthAdjust="spacing" textLength="272" x="27" y="410.2339">ToListAsync(): Task&lt;List&lt;IGoodConfirmation&gt;&gt;</text><ellipse cx="18" cy="419.8281" fill="#84BE84" rx="3" ry="3" style="stroke:#038048;stroke-width:1.0;"/><text fill="#000000" font-family="sans-serif" font-size="11" lengthAdjust="spacing" textLength="106" x="27" y="423.0386">ClearAsync(): Task</text><!--MD5=[7a63f56ae3ca9cb817a43269df786bdd]
class IReceptionGood--><rect codeLine="25" fill="#FEFECE" filter="url(#f8tbkins7tpun)" height="99.2188" id="IReceptionGood" style="stroke:#A80036;stroke-width:1.5;" width="207" x="265" y="507"/><ellipse cx="314.75" cy="523" fill="#B4A7E5" rx="11" ry="11" style="stroke:#A80036;stroke-width:1.0;"/><path d="M310.6719,518.7656 L310.6719,516.6094 L318.0625,516.6094 L318.0625,518.7656 L315.5938,518.7656 L315.5938,526.8438 L318.0625,526.8438 L318.0625,529 L310.6719,529 L310.6719,526.8438 L313.1406,526.8438 L313.1406,518.7656 L310.6719,518.7656 Z " fill="#000000"/><text fill="#000000" font-family="sans-serif" font-size="12" font-style="italic" lengthAdjust="spacing" textLength="99" x="335.25" y="527.1543">IReceptionGood</text><line style="stroke:#A80036;stroke-width:1.5;" x1="266" x2="471" y1="539" y2="539"/><text fill="#000000" font-family="sans-serif" font-size="11" lengthAdjust="spacing" textLength="65" x="271" y="553.2104">int Quantity</text><text fill="#000000" font-family="sans-serif" font-size="11" lengthAdjust="spacing" textLength="183" x="271" y="566.0151">IGoodConfirmation Confirmation</text><line style="stroke:#A80036;stroke-width:1.5;" x1="266" x2="471" y1="572.6094" y2="572.6094"/><ellipse cx="276" cy="583.6094" fill="#84BE84" rx="3" ry="3" style="stroke:#038048;stroke-width:1.0;"/><text fill="#000000" font-family="sans-serif" font-size="11" lengthAdjust="spacing" textLength="181" x="285" y="586.8198">ConfirmedAsync() : Task&lt;bool&gt;</text><ellipse cx="276" cy="596.4141" fill="#84BE84" rx="3" ry="3" style="stroke:#038048;stroke-width:1.0;"/><text fill="#000000" font-family="sans-serif" font-size="11" lengthAdjust="spacing" textLength="138" x="285" y="599.6245">Clear() : IReceptionGood</text><!--MD5=[1b9f8d1b33b627c9ed3b17acaadb8546]
class IGoodConfirmation--><rect codeLine="33" fill="#FEFECE" filter="url(#f8tbkins7tpun)" height="112.0234" id="IGoodConfirmation" style="stroke:#A80036;stroke-width:1.5;" width="173" x="282" y="667"/><ellipse cx="308.7" cy="683" fill="#B4A7E5" rx="11" ry="11" style="stroke:#A80036;stroke-width:1.0;"/><path d="M304.6219,678.7656 L304.6219,676.6094 L312.0125,676.6094 L312.0125,678.7656 L309.5438,678.7656 L309.5438,686.8438 L312.0125,686.8438 L312.0125,689 L304.6219,689 L304.6219,686.8438 L307.0906,686.8438 L307.0906,678.7656 L304.6219,678.7656 Z " fill="#000000"/><text fill="#000000" font-family="sans-serif" font-size="12" font-style="italic" lengthAdjust="spacing" textLength="115" x="325.3" y="687.1543">IGoodConfirmation</text><line style="stroke:#A80036;stroke-width:1.5;" x1="283" x2="454" y1="699" y2="699"/><text fill="#000000" font-family="sans-serif" font-size="11" lengthAdjust="spacing" textLength="122" x="288" y="713.2104">IReceptionGood Good</text><text fill="#000000" font-family="sans-serif" font-size="11" lengthAdjust="spacing" textLength="140" x="288" y="726.0151">IConfirmationState State</text><line style="stroke:#A80036;stroke-width:1.5;" x1="283" x2="454" y1="732.6094" y2="732.6094"/><ellipse cx="293" cy="743.6094" fill="#84BE84" rx="3" ry="3" style="stroke:#038048;stroke-width:1.0;"/><text fill="#000000" font-family="sans-serif" font-size="11" lengthAdjust="spacing" textLength="142" x="302" y="746.8198">int Increase(quantity :int)</text><ellipse cx="293" cy="756.4141" fill="#84BE84" rx="3" ry="3" style="stroke:#038048;stroke-width:1.0;"/><text fill="#000000" font-family="sans-serif" font-size="11" lengthAdjust="spacing" textLength="147" x="302" y="759.6245">int Decrease(quantity :int)</text><ellipse cx="293" cy="769.2188" fill="#84BE84" rx="3" ry="3" style="stroke:#038048;stroke-width:1.0;"/><text fill="#000000" font-family="sans-serif" font-size="11" lengthAdjust="spacing" textLength="65" x="302" y="772.4292">void Clear()</text><!--MD5=[0c0753e9631ff759b8e4cfc38d133815]
class IConfirmationState--><rect codeLine="43" fill="#FEFECE" filter="url(#f8tbkins7tpun)" height="60.8047" id="IConfirmationState" style="stroke:#A80036;stroke-width:1.5;" width="273" x="95" y="840"/><ellipse cx="169.25" cy="856" fill="#B4A7E5" rx="11" ry="11" style="stroke:#A80036;stroke-width:1.0;"/><path d="M165.1719,851.7656 L165.1719,849.6094 L172.5625,849.6094 L172.5625,851.7656 L170.0938,851.7656 L170.0938,859.8438 L172.5625,859.8438 L172.5625,862 L165.1719,862 L165.1719,859.8438 L167.6406,859.8438 L167.6406,851.7656 L165.1719,851.7656 Z " fill="#000000"/><text fill="#000000" font-family="sans-serif" font-size="12" font-style="italic" lengthAdjust="spacing" textLength="116" x="189.75" y="860.1543">IConfirmationState</text><line style="stroke:#A80036;stroke-width:1.5;" x1="96" x2="367" y1="872" y2="872"/><line style="stroke:#A80036;stroke-width:1.5;" x1="96" x2="367" y1="880" y2="880"/><ellipse cx="106" cy="891" fill="#84BE84" rx="3" ry="3" style="stroke:#038048;stroke-width:1.0;"/><text fill="#000000" font-family="sans-serif" font-size="11" lengthAdjust="spacing" textLength="247" x="115" y="894.2104">ToEnumAsync() : Task&lt;ConfirmationState&gt;</text><!--MD5=[28bf3e847e616c01aba3563ed8474867]
reverse link ISupplier to IReception--><path codeLine="48" d="M211.5,81.35 C211.5,101.36 211.5,125.09 211.5,144.98 " fill="none" id="ISupplier-backto-IReception" style="stroke:#A80036;stroke-width:1.0;"/><polygon fill="#A80036" points="211.5,68.19,207.5,74.19,211.5,80.19,215.5,74.19,211.5,68.19" style="stroke:#A80036;stroke-width:1.0;"/><text fill="#000000" font-family="sans-serif" font-size="13" lengthAdjust="spacing" textLength="54" x="212.5" y="111.0669">contains</text><text fill="#000000" font-family="sans-serif" font-size="13" lengthAdjust="spacing" textLength="8" x="202.7125" y="87.8079">1</text><text fill="#000000" font-family="sans-serif" font-size="13" lengthAdjust="spacing" textLength="36" x="172.6313" y="133.9729">many</text><!--MD5=[3114d429e70eb9ea4e85c37a4be4a027]
reverse link IReception to IReceptionGood--><path codeLine="50" d="M374.81,237.64 C398.09,251.53 419.01,269.3 433.5,292 C476.03,358.62 434.91,451.07 401.51,506.9 " fill="none" id="IReception-backto-IReceptionGood" style="stroke:#A80036;stroke-width:1.0;"/><polygon fill="#A80036" points="363.2,231.12,366.4723,237.5459,373.6624,236.9969,370.3902,230.571,363.2,231.12" style="stroke:#A80036;stroke-width:1.0;"/><text fill="#000000" font-family="sans-serif" font-size="13" lengthAdjust="spacing" textLength="54" x="453.5" y="365.5669">contains</text><text fill="#000000" font-family="sans-serif" font-size="13" lengthAdjust="spacing" textLength="8" x="379.6628" y="251.5475">1</text><text fill="#000000" font-family="sans-serif" font-size="13" lengthAdjust="spacing" textLength="36" x="367.6208" y="495.9312">many</text><!--MD5=[509c9ed52fc692f77ea0404119c24070]
reverse link IReception to IConfirmation--><path codeLine="51" d="M199.47,244.66 C198.71,259.75 198.55,276.25 198.99,291.93 " fill="none" id="IReception-backto-IConfirmation" style="stroke:#A80036;stroke-width:1.0;"/><polygon fill="#A80036" points="200.33,231.27,195.9557,237.0028,199.565,243.2456,203.9394,237.5128,200.33,231.27" style="stroke:#A80036;stroke-width:1.0;"/><!--MD5=[604ed2183890d1102fa6d4663ca609c1]
reverse link IConfirmation to IReception--><path codeLine="54" d="M224.98,278.83 C225.1,262.38 224.55,245.71 223.33,231.27 " fill="none" id="IConfirmation-backto-IReception" style="stroke:#A80036;stroke-width:1.0;"/><polygon fill="#A80036" points="224.75,291.93,228.8614,286.0058,224.9741,279.9321,220.8628,285.8563,224.75,291.93" style="stroke:#A80036;stroke-width:1.0;"/><!--MD5=[29094d67ba3ce8e58301e9be5089caf9]
reverse link IReceptionGood to IGoodConfirmation--><path codeLine="52" d="M356.09,619.73 C355.55,635.25 355.65,651.79 356.39,666.94 " fill="none" id="IReceptionGood-backto-IGoodConfirmation" style="stroke:#A80036;stroke-width:1.0;"/><polygon fill="#A80036" points="356.73,606.41,352.451,612.2143,356.163,618.3966,360.442,612.5923,356.73,606.41" style="stroke:#A80036;stroke-width:1.0;"/><!--MD5=[80acd0917db55519c5f0a6a68d6f3cde]
reverse link IGoodConfirmation to IReceptionGood--><path codeLine="60" d="M381.82,653.8 C382.23,637.9 381.94,621.28 380.96,606.41 " fill="none" id="IGoodConfirmation-backto-IReceptionGood" style="stroke:#A80036;stroke-width:1.0;"/><polygon fill="#A80036" points="381.32,666.94,385.5479,661.0983,381.7817,654.9489,377.5538,660.7905,381.32,666.94" style="stroke:#A80036;stroke-width:1.0;"/><!--MD5=[cf2bcbcd180f2622383404a95915bc40]
reverse link IConfirmation to IConfirmationState--><path codeLine="55" d="M214.71,443.43 C219.25,558.68 227.33,763.8 230.34,839.96 " fill="none" id="IConfirmation-backto-IConfirmationState" style="stroke:#A80036;stroke-width:1.0;"/><polygon fill="#A80036" points="214.19,430.18,210.4303,436.3334,214.6644,442.1706,218.4241,436.0172,214.19,430.18" style="stroke:#A80036;stroke-width:1.0;"/><!--MD5=[97b88ed7fff08738c69bc2b228524978]
reverse link IConfirmation to IReceptionGood--><path codeLine="56" d="M275.12,440.41 C293.32,462.84 312.62,486.63 328.93,506.73 " fill="none" id="IConfirmation-backto-IReceptionGood" style="stroke:#A80036;stroke-width:1.0;"/><polygon fill="#A80036" points="266.85,430.22,267.5203,437.3999,274.4057,439.5426,273.7354,432.3628,266.85,430.22" style="stroke:#A80036;stroke-width:1.0;"/><text fill="#000000" font-family="sans-serif" font-size="13" lengthAdjust="spacing" textLength="54" x="305.5" y="473.0669">contains</text><text fill="#000000" font-family="sans-serif" font-size="13" lengthAdjust="spacing" textLength="8" x="263.7443" y="449.6231">1</text><text fill="#000000" font-family="sans-serif" font-size="13" lengthAdjust="spacing" textLength="36" x="285.194" y="496.0955">many</text><!--MD5=[db6cd7534cdc2d171f04874d87426579]
reverse link IGoodConfirmation to IConfirmationState--><path codeLine="59" d="M307.5,788.78 C290.77,806.55 273.44,824.96 259.55,839.7 " fill="none" id="IGoodConfirmation-backto-IConfirmationState" style="stroke:#A80036;stroke-width:1.0;"/><polygon fill="#A80036" points="316.71,779.01,309.685,780.6377,308.4856,787.7484,315.5106,786.1207,316.71,779.01" style="stroke:#A80036;stroke-width:1.0;"/><!--MD5=[5d840732dde17ed1c4cfb48f1732e289]
@startuml
interface       ISupplier
{
  IEntities<IReception> Receptions
}
interface       IReception
{
  IEntities<IReceptionGood> Goods

  +ValidateAsync(goodsToValidate: IList<IGoodConfirmation>) : Task
  +Confirmation() : IConfirmation
}

interface     IConfirmation
{
  IReception Reception
  IConfirmationState State

  +AddAsync(goodToAdd : IReceptionGood , quantity : int ) : Task
  +RemoveAsync(goodToRemove: IReceptionGood , quantity: int): Task
  +CommitAsync() : Task
  +ToListAsync(): Task<List<IGoodConfirmation>> 
  +ClearAsync(): Task
}

interface       IReceptionGood
{
  int Quantity
  IGoodConfirmation Confirmation
  
  +ConfirmedAsync() : Task<bool> 
  +Clear() : IReceptionGood
}
interface       IGoodConfirmation
{
  IReceptionGood Good
  IConfirmationState State
  
  +int Increase(quantity :int)
  +int Decrease(quantity :int)
  +void Clear()
}

interface     IConfirmationState
{
  +ToEnumAsync() : Task<ConfirmationState>
}

ISupplier "1" *- - "many" IReception : contains

IReception "1" *- - "many" IReceptionGood : contains
IReception *- - IConfirmation
IReceptionGood *- - IGoodConfirmation

IConfirmation *- - IReception
IConfirmation *- - IConfirmationState
IConfirmation "1" *- - "many" IReceptionGood : contains


IGoodConfirmation *- - IConfirmationState
IGoodConfirmation *- - IReceptionGood
@enduml

PlantUML version 1.2021.16(Wed Dec 08 17:25:22 UTC 2021)
(GPL source distribution)
Java Runtime: OpenJDK Runtime Environment
JVM: OpenJDK 64-Bit Server VM
Default Encoding: UTF-8
Language: en
Country: US
--></g></svg>