<?xml version="1.0" encoding="UTF-8" standalone="no"?><svg xmlns="http://www.w3.org/2000/svg" xmlns:xlink="http://www.w3.org/1999/xlink" contentScriptType="application/ecmascript" contentStyleType="text/css" height="1145px" preserveAspectRatio="none" style="width:1477px;height:1145px;background:#FFFFFF;" version="1.1" viewBox="0 0 1477 1145" width="1477px" zoomAndPan="magnify"><defs><filter height="300%" id="f1maunmu4qsq91" width="300%" x="-1" y="-1"><feGaussianBlur result="blurOut" stdDeviation="2.0"/><feColorMatrix in="blurOut" result="blurOut2" type="matrix" values="0 0 0 0 0 0 0 0 0 0 0 0 0 0 0 0 0 0 .4 0"/><feOffset dx="4.0" dy="4.0" in="blurOut2" result="blurOut3"/><feBlend in="SourceGraphic" in2="blurOut3" mode="normal"/></filter></defs><g><!--MD5=[174cc1f4f4efb3e1302c3f0922d8a9c1]
class ICompany--><rect codeLine="1" fill="#FEFECE" filter="url(#f1maunmu4qsq91)" height="112.0234" id="ICompany" style="stroke:#A80036;stroke-width:1.5;" width="389" x="330.0442" y="7"/><ellipse cx="490.2942" cy="23" fill="#B4A7E5" rx="11" ry="11" style="stroke:#A80036;stroke-width:1.0;"/><path d="M486.2161,18.7656 L486.2161,16.6094 L493.6067,16.6094 L493.6067,18.7656 L491.138,18.7656 L491.138,26.8438 L493.6067,26.8438 L493.6067,29 L486.2161,29 L486.2161,26.8438 L488.6848,26.8438 L488.6848,18.7656 L486.2161,18.7656 Z " fill="#000000"/><text fill="#000000" font-family="sans-serif" font-size="12" font-style="italic" lengthAdjust="spacing" textLength="60" x="510.7942" y="27.1543">ICompany</text><line style="stroke:#A80036;stroke-width:1.5;" x1="331.0442" x2="718.0442" y1="39" y2="39"/><text fill="#000000" font-family="sans-serif" font-size="11" lengthAdjust="spacing" textLength="189" x="336.0442" y="53.2104">IEntities&lt;ICustomer&gt; Customers</text><text fill="#000000" font-family="sans-serif" font-size="11" lengthAdjust="spacing" textLength="131" x="336.0442" y="66.0151">IEntities&lt;IUser&gt; Users</text><text fill="#000000" font-family="sans-serif" font-size="11" lengthAdjust="spacing" textLength="133" x="336.0442" y="78.8198">IWarehouse Warehouse</text><text fill="#000000" font-family="sans-serif" font-size="11" lengthAdjust="spacing" textLength="171" x="336.0442" y="91.6245">IEntities&lt;ISupplier&gt; Suppliers</text><line style="stroke:#A80036;stroke-width:1.5;" x1="331.0442" x2="718.0442" y1="98.2188" y2="98.2188"/><ellipse cx="341.0442" cy="109.2188" fill="#84BE84" rx="3" ry="3" style="stroke:#038048;stroke-width:1.0;"/><text fill="#000000" font-family="sans-serif" font-size="11" lengthAdjust="spacing" textLength="363" x="350.0442" y="112.4292">LoginAsync(userName: string , password:string) : Task&lt;IUser&gt;</text><!--MD5=[e3df29e2ec2ff7bb4b8995ee14292961]
class IEntities--><rect codeLine="10" fill="#FEFECE" filter="url(#f1maunmu4qsq91)" height="73.6094" id="IEntities" style="stroke:#A80036;stroke-width:1.5;" width="239" x="754.0442" y="26"/><ellipse cx="844.2942" cy="42" fill="#B4A7E5" rx="11" ry="11" style="stroke:#A80036;stroke-width:1.0;"/><path d="M840.2161,37.7656 L840.2161,35.6094 L847.6067,35.6094 L847.6067,37.7656 L845.1379,37.7656 L845.1379,45.8438 L847.6067,45.8438 L847.6067,48 L840.2161,48 L840.2161,45.8438 L842.6848,45.8438 L842.6848,37.7656 L840.2161,37.7656 Z " fill="#000000"/><text fill="#000000" font-family="sans-serif" font-size="12" font-style="italic" lengthAdjust="spacing" textLength="50" x="864.7942" y="46.1543">IEntities</text><line style="stroke:#A80036;stroke-width:1.5;" x1="755.0442" x2="992.0442" y1="58" y2="58"/><line style="stroke:#A80036;stroke-width:1.5;" x1="755.0442" x2="992.0442" y1="66" y2="66"/><ellipse cx="765.0442" cy="77" fill="#84BE84" rx="3" ry="3" style="stroke:#038048;stroke-width:1.0;"/><text fill="#000000" font-family="sans-serif" font-size="11" lengthAdjust="spacing" textLength="211" x="774.0442" y="80.2104">ToListAsync() : Task&lt;IList&lt;TEntity&gt;&gt;</text><ellipse cx="765.0442" cy="89.8047" fill="#84BE84" rx="3" ry="3" style="stroke:#038048;stroke-width:1.0;"/><text fill="#000000" font-family="sans-serif" font-size="11" lengthAdjust="spacing" textLength="213" x="774.0442" y="93.0151">With(filter : IFilter) : IEntities&lt;TEntity&gt;</text><!--MD5=[fa61f9393a6e78a1f0a5db506689f6f2]
class ICustomer--><rect codeLine="16" fill="#FEFECE" filter="url(#f1maunmu4qsq91)" height="48" id="ICustomer" style="stroke:#A80036;stroke-width:1.5;" width="95" x="323.0442" y="209"/><ellipse cx="338.0442" cy="225" fill="#B4A7E5" rx="11" ry="11" style="stroke:#A80036;stroke-width:1.0;"/><path d="M333.9661,220.7656 L333.9661,218.6094 L341.3567,218.6094 L341.3567,220.7656 L338.888,220.7656 L338.888,228.8438 L341.3567,228.8438 L341.3567,231 L333.9661,231 L333.9661,228.8438 L336.4348,228.8438 L336.4348,220.7656 L333.9661,220.7656 Z " fill="#000000"/><text fill="#000000" font-family="sans-serif" font-size="12" font-style="italic" lengthAdjust="spacing" textLength="63" x="352.0442" y="229.1543">ICustomer</text><line style="stroke:#A80036;stroke-width:1.5;" x1="324.0442" x2="417.0442" y1="241" y2="241"/><line style="stroke:#A80036;stroke-width:1.5;" x1="324.0442" x2="417.0442" y1="249" y2="249"/><!--MD5=[4397ba3f25468a58f081bf0666d83f60]
class IUser--><rect codeLine="17" fill="#FEFECE" filter="url(#f1maunmu4qsq91)" height="48" id="IUser" style="stroke:#A80036;stroke-width:1.5;" width="64" x="453.5442" y="209"/><ellipse cx="468.5442" cy="225" fill="#B4A7E5" rx="11" ry="11" style="stroke:#A80036;stroke-width:1.0;"/><path d="M464.4661,220.7656 L464.4661,218.6094 L471.8567,218.6094 L471.8567,220.7656 L469.388,220.7656 L469.388,228.8438 L471.8567,228.8438 L471.8567,231 L464.4661,231 L464.4661,228.8438 L466.9348,228.8438 L466.9348,220.7656 L464.4661,220.7656 Z " fill="#000000"/><text fill="#000000" font-family="sans-serif" font-size="12" font-style="italic" lengthAdjust="spacing" textLength="32" x="482.5442" y="229.1543">IUser</text><line style="stroke:#A80036;stroke-width:1.5;" x1="454.5442" x2="516.5442" y1="241" y2="241"/><line style="stroke:#A80036;stroke-width:1.5;" x1="454.5442" x2="516.5442" y1="249" y2="249"/><!--MD5=[72ebdb76e9db27ec466b32e588ae4e81]
class IWarehouse--><rect codeLine="18" fill="#FEFECE" filter="url(#f1maunmu4qsq91)" height="73.6094" id="IWarehouse" style="stroke:#A80036;stroke-width:1.5;" width="295" x="553.0442" y="196"/><ellipse cx="659.2942" cy="212" fill="#B4A7E5" rx="11" ry="11" style="stroke:#A80036;stroke-width:1.0;"/><path d="M655.2161,207.7656 L655.2161,205.6094 L662.6067,205.6094 L662.6067,207.7656 L660.1379,207.7656 L660.1379,215.8438 L662.6067,215.8438 L662.6067,218 L655.2161,218 L655.2161,215.8438 L657.6848,215.8438 L657.6848,207.7656 L655.2161,207.7656 Z " fill="#000000"/><text fill="#000000" font-family="sans-serif" font-size="12" font-style="italic" lengthAdjust="spacing" textLength="74" x="679.7942" y="216.1543">IWarehouse</text><line style="stroke:#A80036;stroke-width:1.5;" x1="554.0442" x2="847.0442" y1="228" y2="228"/><text fill="#000000" font-family="sans-serif" font-size="11" lengthAdjust="spacing" textLength="200" x="559.0442" y="242.2104">IEntities&lt;IWarehouseGood&gt; Goods</text><line style="stroke:#A80036;stroke-width:1.5;" x1="554.0442" x2="847.0442" y1="248.8047" y2="248.8047"/><ellipse cx="564.0442" cy="259.8047" fill="#84BE84" rx="3" ry="3" style="stroke:#038048;stroke-width:1.0;"/><text fill="#000000" font-family="sans-serif" font-size="11" lengthAdjust="spacing" textLength="269" x="573.0442" y="263.0151">ByBarcodeAsync(ean: string) : Task&lt;IStorage&gt;</text><!--MD5=[f7f4a9c734668113b597fe9b3e401ef0]
class ISupplier--><rect codeLine="24" fill="#FEFECE" filter="url(#f1maunmu4qsq91)" height="60.8047" id="ISupplier" style="stroke:#A80036;stroke-width:1.5;" width="199" x="979.0442" y="202.5"/><ellipse cx="1047.2942" cy="218.5" fill="#B4A7E5" rx="11" ry="11" style="stroke:#A80036;stroke-width:1.0;"/><path d="M1043.2161,214.2656 L1043.2161,212.1094 L1050.6067,212.1094 L1050.6067,214.2656 L1048.1379,214.2656 L1048.1379,222.3438 L1050.6067,222.3438 L1050.6067,224.5 L1043.2161,224.5 L1043.2161,222.3438 L1045.6848,222.3438 L1045.6848,214.2656 L1043.2161,214.2656 Z " fill="#000000"/><text fill="#000000" font-family="sans-serif" font-size="12" font-style="italic" lengthAdjust="spacing" textLength="54" x="1067.7942" y="222.6543">ISupplier</text><line style="stroke:#A80036;stroke-width:1.5;" x1="980.0442" x2="1177.0442" y1="234.5" y2="234.5"/><text fill="#000000" font-family="sans-serif" font-size="11" lengthAdjust="spacing" textLength="187" x="985.0442" y="248.7104">IEntities&lt;IReception&gt; Receptions</text><line style="stroke:#A80036;stroke-width:1.5;" x1="980.0442" x2="1177.0442" y1="255.3047" y2="255.3047"/><!--MD5=[97030263585a0ee0e093ee1c379493c2]
class IReception--><rect codeLine="28" fill="#FEFECE" filter="url(#f1maunmu4qsq91)" height="86.4141" id="IReception" style="stroke:#A80036;stroke-width:1.5;" width="400" x="975.5442" y="353.5"/><ellipse cx="1138.2942" cy="369.5" fill="#B4A7E5" rx="11" ry="11" style="stroke:#A80036;stroke-width:1.0;"/><path d="M1134.2161,365.2656 L1134.2161,363.1094 L1141.6067,363.1094 L1141.6067,365.2656 L1139.1379,365.2656 L1139.1379,373.3438 L1141.6067,373.3438 L1141.6067,375.5 L1134.2161,375.5 L1134.2161,373.3438 L1136.6848,373.3438 L1136.6848,365.2656 L1134.2161,365.2656 Z " fill="#000000"/><text fill="#000000" font-family="sans-serif" font-size="12" font-style="italic" lengthAdjust="spacing" textLength="66" x="1158.7942" y="373.6543">IReception</text><line style="stroke:#A80036;stroke-width:1.5;" x1="976.5442" x2="1374.5442" y1="385.5" y2="385.5"/><text fill="#000000" font-family="sans-serif" font-size="11" lengthAdjust="spacing" textLength="192" x="981.5442" y="399.7104">IEntities&lt;IReceptionGood&gt; Goods</text><line style="stroke:#A80036;stroke-width:1.5;" x1="976.5442" x2="1374.5442" y1="406.3047" y2="406.3047"/><ellipse cx="986.5442" cy="417.3047" fill="#84BE84" rx="3" ry="3" style="stroke:#038048;stroke-width:1.0;"/><text fill="#000000" font-family="sans-serif" font-size="11" lengthAdjust="spacing" textLength="374" x="995.5442" y="420.5151">ValidateAsync(goodsToValidate: IList&lt;IGoodConfirmation&gt;) : Task</text><ellipse cx="986.5442" cy="430.1094" fill="#84BE84" rx="3" ry="3" style="stroke:#038048;stroke-width:1.0;"/><text fill="#000000" font-family="sans-serif" font-size="11" lengthAdjust="spacing" textLength="169" x="995.5442" y="433.3198">Confirmation() : IConfirmation</text><!--MD5=[042910ce448c96a3f43e3022bbf01c0e]
class IConfirmation--><rect codeLine="36" fill="#FEFECE" filter="url(#f1maunmu4qsq91)" height="137.6328" id="IConfirmation" style="stroke:#A80036;stroke-width:1.5;" width="409" x="971.0442" y="523"/><ellipse cx="1130.2942" cy="539" fill="#B4A7E5" rx="11" ry="11" style="stroke:#A80036;stroke-width:1.0;"/><path d="M1126.2161,534.7656 L1126.2161,532.6094 L1133.6067,532.6094 L1133.6067,534.7656 L1131.1379,534.7656 L1131.1379,542.8438 L1133.6067,542.8438 L1133.6067,545 L1126.2161,545 L1126.2161,542.8438 L1128.6848,542.8438 L1128.6848,534.7656 L1126.2161,534.7656 Z " fill="#000000"/><text fill="#000000" font-family="sans-serif" font-size="12" font-style="italic" lengthAdjust="spacing" textLength="82" x="1150.7942" y="543.1543">IConfirmation</text><line style="stroke:#A80036;stroke-width:1.5;" x1="972.0442" x2="1379.0442" y1="555" y2="555"/><text fill="#000000" font-family="sans-serif" font-size="11" lengthAdjust="spacing" textLength="117" x="977.0442" y="569.2104">IReception Reception</text><text fill="#000000" font-family="sans-serif" font-size="11" lengthAdjust="spacing" textLength="140" x="977.0442" y="582.0151">IConfirmationState State</text><line style="stroke:#A80036;stroke-width:1.5;" x1="972.0442" x2="1379.0442" y1="588.6094" y2="588.6094"/><ellipse cx="982.0442" cy="599.6094" fill="#84BE84" rx="3" ry="3" style="stroke:#038048;stroke-width:1.0;"/><text fill="#000000" font-family="sans-serif" font-size="11" lengthAdjust="spacing" textLength="351" x="991.0442" y="602.8198">AddAsync(goodToAdd : IReceptionGood , quantity : int ) : Task</text><ellipse cx="982.0442" cy="612.4141" fill="#84BE84" rx="3" ry="3" style="stroke:#038048;stroke-width:1.0;"/><text fill="#000000" font-family="sans-serif" font-size="11" lengthAdjust="spacing" textLength="383" x="991.0442" y="615.6245">RemoveAsync(goodToRemove: IReceptionGood , quantity: int): Task</text><ellipse cx="982.0442" cy="625.2188" fill="#84BE84" rx="3" ry="3" style="stroke:#038048;stroke-width:1.0;"/><text fill="#000000" font-family="sans-serif" font-size="11" lengthAdjust="spacing" textLength="124" x="991.0442" y="628.4292">CommitAsync() : Task</text><ellipse cx="982.0442" cy="638.0234" fill="#84BE84" rx="3" ry="3" style="stroke:#038048;stroke-width:1.0;"/><text fill="#000000" font-family="sans-serif" font-size="11" lengthAdjust="spacing" textLength="272" x="991.0442" y="641.2339">ToListAsync(): Task&lt;List&lt;IGoodConfirmation&gt;&gt;</text><ellipse cx="982.0442" cy="650.8281" fill="#84BE84" rx="3" ry="3" style="stroke:#038048;stroke-width:1.0;"/><text fill="#000000" font-family="sans-serif" font-size="11" lengthAdjust="spacing" textLength="106" x="991.0442" y="654.0386">ClearAsync(): Task</text><!--MD5=[7a63f56ae3ca9cb817a43269df786bdd]
class IReceptionGood--><rect codeLine="48" fill="#FEFECE" filter="url(#f1maunmu4qsq91)" height="99.2188" id="IReceptionGood" style="stroke:#A80036;stroke-width:1.5;" width="207" x="1229.0442" y="738"/><ellipse cx="1278.7942" cy="754" fill="#B4A7E5" rx="11" ry="11" style="stroke:#A80036;stroke-width:1.0;"/><path d="M1274.7161,749.7656 L1274.7161,747.6094 L1282.1067,747.6094 L1282.1067,749.7656 L1279.638,749.7656 L1279.638,757.8438 L1282.1067,757.8438 L1282.1067,760 L1274.7161,760 L1274.7161,757.8438 L1277.1848,757.8438 L1277.1848,749.7656 L1274.7161,749.7656 Z " fill="#000000"/><text fill="#000000" font-family="sans-serif" font-size="12" font-style="italic" lengthAdjust="spacing" textLength="99" x="1299.2942" y="758.1543">IReceptionGood</text><line style="stroke:#A80036;stroke-width:1.5;" x1="1230.0442" x2="1435.0442" y1="770" y2="770"/><text fill="#000000" font-family="sans-serif" font-size="11" lengthAdjust="spacing" textLength="65" x="1235.0442" y="784.2104">int Quantity</text><text fill="#000000" font-family="sans-serif" font-size="11" lengthAdjust="spacing" textLength="183" x="1235.0442" y="797.0151">IGoodConfirmation Confirmation</text><line style="stroke:#A80036;stroke-width:1.5;" x1="1230.0442" x2="1435.0442" y1="803.6094" y2="803.6094"/><ellipse cx="1240.0442" cy="814.6094" fill="#84BE84" rx="3" ry="3" style="stroke:#038048;stroke-width:1.0;"/><text fill="#000000" font-family="sans-serif" font-size="11" lengthAdjust="spacing" textLength="181" x="1249.0442" y="817.8198">ConfirmedAsync() : Task&lt;bool&gt;</text><ellipse cx="1240.0442" cy="827.4141" fill="#84BE84" rx="3" ry="3" style="stroke:#038048;stroke-width:1.0;"/><text fill="#000000" font-family="sans-serif" font-size="11" lengthAdjust="spacing" textLength="138" x="1249.0442" y="830.6245">Clear() : IReceptionGood</text><!--MD5=[1b9f8d1b33b627c9ed3b17acaadb8546]
class IGoodConfirmation--><rect codeLine="56" fill="#FEFECE" filter="url(#f1maunmu4qsq91)" height="112.0234" id="IGoodConfirmation" style="stroke:#A80036;stroke-width:1.5;" width="173" x="1246.0442" y="898"/><ellipse cx="1272.7442" cy="914" fill="#B4A7E5" rx="11" ry="11" style="stroke:#A80036;stroke-width:1.0;"/><path d="M1268.6661,909.7656 L1268.6661,907.6094 L1276.0567,907.6094 L1276.0567,909.7656 L1273.588,909.7656 L1273.588,917.8438 L1276.0567,917.8438 L1276.0567,920 L1268.6661,920 L1268.6661,917.8438 L1271.1348,917.8438 L1271.1348,909.7656 L1268.6661,909.7656 Z " fill="#000000"/><text fill="#000000" font-family="sans-serif" font-size="12" font-style="italic" lengthAdjust="spacing" textLength="115" x="1289.3442" y="918.1543">IGoodConfirmation</text><line style="stroke:#A80036;stroke-width:1.5;" x1="1247.0442" x2="1418.0442" y1="930" y2="930"/><text fill="#000000" font-family="sans-serif" font-size="11" lengthAdjust="spacing" textLength="122" x="1252.0442" y="944.2104">IReceptionGood Good</text><text fill="#000000" font-family="sans-serif" font-size="11" lengthAdjust="spacing" textLength="140" x="1252.0442" y="957.0151">IConfirmationState State</text><line style="stroke:#A80036;stroke-width:1.5;" x1="1247.0442" x2="1418.0442" y1="963.6094" y2="963.6094"/><ellipse cx="1257.0442" cy="974.6094" fill="#84BE84" rx="3" ry="3" style="stroke:#038048;stroke-width:1.0;"/><text fill="#000000" font-family="sans-serif" font-size="11" lengthAdjust="spacing" textLength="142" x="1266.0442" y="977.8198">int Increase(quantity :int)</text><ellipse cx="1257.0442" cy="987.4141" fill="#84BE84" rx="3" ry="3" style="stroke:#038048;stroke-width:1.0;"/><text fill="#000000" font-family="sans-serif" font-size="11" lengthAdjust="spacing" textLength="147" x="1266.0442" y="990.6245">int Decrease(quantity :int)</text><ellipse cx="1257.0442" cy="1000.2188" fill="#84BE84" rx="3" ry="3" style="stroke:#038048;stroke-width:1.0;"/><text fill="#000000" font-family="sans-serif" font-size="11" lengthAdjust="spacing" textLength="65" x="1266.0442" y="1003.4292">void Clear()</text><!--MD5=[8fc521b70c28b9f085ea6418b28640a0]
class IWarehouseGood--><rect codeLine="66" fill="#FEFECE" filter="url(#f1maunmu4qsq91)" height="99.2188" id="IWarehouseGood" style="stroke:#A80036;stroke-width:1.5;" width="222" x="589.5442" y="347"/><ellipse cx="642.7942" cy="363" fill="#B4A7E5" rx="11" ry="11" style="stroke:#A80036;stroke-width:1.0;"/><path d="M638.7161,358.7656 L638.7161,356.6094 L646.1067,356.6094 L646.1067,358.7656 L643.6379,358.7656 L643.6379,366.8438 L646.1067,366.8438 L646.1067,369 L638.7161,369 L638.7161,366.8438 L641.1848,366.8438 L641.1848,358.7656 L638.7161,358.7656 Z " fill="#000000"/><text fill="#000000" font-family="sans-serif" font-size="12" font-style="italic" lengthAdjust="spacing" textLength="107" x="663.2942" y="367.1543">IWarehouseGood</text><line style="stroke:#A80036;stroke-width:1.5;" x1="590.5442" x2="810.5442" y1="379" y2="379"/><text fill="#000000" font-family="sans-serif" font-size="11" lengthAdjust="spacing" textLength="65" x="595.5442" y="393.2104">int Quantity</text><text fill="#000000" font-family="sans-serif" font-size="11" lengthAdjust="spacing" textLength="111" x="595.5442" y="406.0151">IStorages Storages</text><text fill="#000000" font-family="sans-serif" font-size="11" lengthAdjust="spacing" textLength="123" x="595.5442" y="418.8198">IMovement Movement</text><line style="stroke:#A80036;stroke-width:1.5;" x1="590.5442" x2="810.5442" y1="425.4141" y2="425.4141"/><text fill="#000000" font-family="sans-serif" font-size="11" lengthAdjust="spacing" textLength="210" x="595.5442" y="439.6245">From(storage :IStorage) : IMovement</text><!--MD5=[5d2945def2d575c1f907a7f09ba34b55]
class IStorages--><rect codeLine="75" fill="#FEFECE" filter="url(#f1maunmu4qsq91)" height="112.0234" id="IStorages" style="stroke:#A80036;stroke-width:1.5;" width="444" x="57.5442" y="536"/><ellipse cx="245.2942" cy="552" fill="#B4A7E5" rx="11" ry="11" style="stroke:#A80036;stroke-width:1.0;"/><path d="M241.2161,547.7656 L241.2161,545.6094 L248.6067,545.6094 L248.6067,547.7656 L246.138,547.7656 L246.138,555.8438 L248.6067,555.8438 L248.6067,558 L241.2161,558 L241.2161,555.8438 L243.6848,555.8438 L243.6848,547.7656 L241.2161,547.7656 Z " fill="#000000"/><text fill="#000000" font-family="sans-serif" font-size="12" font-style="italic" lengthAdjust="spacing" textLength="60" x="265.7942" y="556.1543">IStorages</text><line style="stroke:#A80036;stroke-width:1.5;" x1="58.5442" x2="500.5442" y1="568" y2="568"/><text fill="#000000" font-family="sans-serif" font-size="11" lengthAdjust="spacing" textLength="162" x="63.5442" y="582.2104">IEntities&lt;IStorage&gt; PutAway</text><text fill="#000000" font-family="sans-serif" font-size="11" lengthAdjust="spacing" textLength="142" x="63.5442" y="595.0151">IEntities&lt;IStorage&gt; Race</text><text fill="#000000" font-family="sans-serif" font-size="11" lengthAdjust="spacing" textLength="161" x="63.5442" y="607.8198">IEntities&lt;IStorage&gt; Reserve</text><line style="stroke:#A80036;stroke-width:1.5;" x1="58.5442" x2="500.5442" y1="614.4141" y2="614.4141"/><ellipse cx="68.5442" cy="625.4141" fill="#84BE84" rx="3" ry="3" style="stroke:#038048;stroke-width:1.0;"/><text fill="#000000" font-family="sans-serif" font-size="11" lengthAdjust="spacing" textLength="269" x="77.5442" y="628.6245">ByBarcodeAsync(ean: string) : Task&lt;IStorage&gt;</text><ellipse cx="68.5442" cy="638.2188" fill="#84BE84" rx="3" ry="3" style="stroke:#038048;stroke-width:1.0;"/><text fill="#000000" font-family="sans-serif" font-size="11" lengthAdjust="spacing" textLength="418" x="77.5442" y="641.4292">ByBarcodeAsync(warehouse : IWarehouse, ean: string) : Task&lt;IStorage&gt;</text><!--MD5=[e8cfd755308414781c0123d0000bbf77]
class IStorage--><rect codeLine="84" fill="#FEFECE" filter="url(#f1maunmu4qsq91)" height="86.4141" id="IStorage" style="stroke:#A80036;stroke-width:1.5;" width="212" x="173.5442" y="744.5"/><ellipse cx="248.7942" cy="760.5" fill="#B4A7E5" rx="11" ry="11" style="stroke:#A80036;stroke-width:1.0;"/><path d="M244.7161,756.2656 L244.7161,754.1094 L252.1067,754.1094 L252.1067,756.2656 L249.638,756.2656 L249.638,764.3438 L252.1067,764.3438 L252.1067,766.5 L244.7161,766.5 L244.7161,764.3438 L247.1848,764.3438 L247.1848,756.2656 L244.7161,756.2656 Z " fill="#000000"/><text fill="#000000" font-family="sans-serif" font-size="12" font-style="italic" lengthAdjust="spacing" textLength="53" x="269.2942" y="764.6543">IStorage</text><line style="stroke:#A80036;stroke-width:1.5;" x1="174.5442" x2="384.5442" y1="776.5" y2="776.5"/><text fill="#000000" font-family="sans-serif" font-size="11" lengthAdjust="spacing" textLength="200" x="179.5442" y="790.7104">IEntities&lt;IWarehouseGood&gt; Goods</text><line style="stroke:#A80036;stroke-width:1.5;" x1="174.5442" x2="384.5442" y1="797.3047" y2="797.3047"/><ellipse cx="184.5442" cy="808.3047" fill="#84BE84" rx="3" ry="3" style="stroke:#038048;stroke-width:1.0;"/><text fill="#000000" font-family="sans-serif" font-size="11" lengthAdjust="spacing" textLength="90" x="193.5442" y="811.5151">IncreaseAsync()</text><ellipse cx="184.5442" cy="821.1094" fill="#84BE84" rx="3" ry="3" style="stroke:#038048;stroke-width:1.0;"/><text fill="#000000" font-family="sans-serif" font-size="11" lengthAdjust="spacing" textLength="95" x="193.5442" y="824.3198">DecreaseAsync()</text><!--MD5=[0456f55dbd06482b22a5e5e10e73b231]
class IMovement--><rect codeLine="91" fill="#FEFECE" filter="url(#f1maunmu4qsq91)" height="73.6094" id="IMovement" style="stroke:#A80036;stroke-width:1.5;" width="328" x="536.5442" y="555"/><ellipse cx="662.7942" cy="571" fill="#B4A7E5" rx="11" ry="11" style="stroke:#A80036;stroke-width:1.0;"/><path d="M658.7161,566.7656 L658.7161,564.6094 L666.1067,564.6094 L666.1067,566.7656 L663.6379,566.7656 L663.6379,574.8438 L666.1067,574.8438 L666.1067,577 L658.7161,577 L658.7161,574.8438 L661.1848,574.8438 L661.1848,566.7656 L658.7161,566.7656 Z " fill="#000000"/><text fill="#000000" font-family="sans-serif" font-size="12" font-style="italic" lengthAdjust="spacing" textLength="67" x="683.2942" y="575.1543">IMovement</text><line style="stroke:#A80036;stroke-width:1.5;" x1="537.5442" x2="863.5442" y1="587" y2="587"/><line style="stroke:#A80036;stroke-width:1.5;" x1="537.5442" x2="863.5442" y1="595" y2="595"/><ellipse cx="547.5442" cy="606" fill="#84BE84" rx="3" ry="3" style="stroke:#038048;stroke-width:1.0;"/><text fill="#000000" font-family="sans-serif" font-size="11" lengthAdjust="spacing" textLength="302" x="556.5442" y="609.2104">MoveToAsync(storage: IStorage , quantity: int) : Task</text><ellipse cx="547.5442" cy="618.8047" fill="#84BE84" rx="3" ry="3" style="stroke:#038048;stroke-width:1.0;"/><text fill="#000000" font-family="sans-serif" font-size="11" lengthAdjust="spacing" textLength="137" x="556.5442" y="622.0151">From(storage: IStorage)</text><!--MD5=[0c0753e9631ff759b8e4cfc38d133815]
class IConfirmationState--><rect codeLine="96" fill="#FEFECE" filter="url(#f1maunmu4qsq91)" height="60.8047" id="IConfirmationState" style="stroke:#A80036;stroke-width:1.5;" width="273" x="1059.0442" y="1071"/><ellipse cx="1133.2942" cy="1087" fill="#B4A7E5" rx="11" ry="11" style="stroke:#A80036;stroke-width:1.0;"/><path d="M1129.2161,1082.7656 L1129.2161,1080.6094 L1136.6067,1080.6094 L1136.6067,1082.7656 L1134.138,1082.7656 L1134.138,1090.8438 L1136.6067,1090.8438 L1136.6067,1093 L1129.2161,1093 L1129.2161,1090.8438 L1131.6848,1090.8438 L1131.6848,1082.7656 L1129.2161,1082.7656 Z " fill="#000000"/><text fill="#000000" font-family="sans-serif" font-size="12" font-style="italic" lengthAdjust="spacing" textLength="116" x="1153.7942" y="1091.1543">IConfirmationState</text><line style="stroke:#A80036;stroke-width:1.5;" x1="1060.0442" x2="1331.0442" y1="1103" y2="1103"/><line style="stroke:#A80036;stroke-width:1.5;" x1="1060.0442" x2="1331.0442" y1="1111" y2="1111"/><ellipse cx="1070.0442" cy="1122" fill="#84BE84" rx="3" ry="3" style="stroke:#038048;stroke-width:1.0;"/><text fill="#000000" font-family="sans-serif" font-size="11" lengthAdjust="spacing" textLength="247" x="1079.0442" y="1125.2104">ToEnumAsync() : Task&lt;ConfirmationState&gt;</text><!--MD5=[49ef23f3df3a3bd53fb72f77ec9a58bc]
reverse link ICompany to ICustomer--><path codeLine="101" d="M457.3178,128.8418 C450.8776,135.5607 444.5241,142.3576 438.5442,149 C420.969,168.5223 402.2798,191.8142 388.9512,208.914 " fill="none" id="ICompany-backto-ICustomer" style="stroke:#A80036;stroke-width:1.0;"/><polygon fill="#A80036" points="466.7819,119.081,459.7335,120.6042,458.4286,127.6962,465.477,126.173,466.7819,119.081" style="stroke:#A80036;stroke-width:1.0;"/><text fill="#000000" font-family="sans-serif" font-size="13" lengthAdjust="spacing" textLength="54" x="439.5442" y="162.0669">contains</text><text fill="#000000" font-family="sans-serif" font-size="13" lengthAdjust="spacing" textLength="8" x="451.2546" y="138.9035">1</text><text fill="#000000" font-family="sans-serif" font-size="13" lengthAdjust="spacing" textLength="36" x="353.0555" y="197.904">many</text><!--MD5=[3409c9272a57e3b85ec3c1a63de29f9d]
reverse link ICompany to IUser--><path codeLine="102" d="M508.7475,131.8572 C502.4988,159.0953 495.7233,188.6294 491.1167,208.7095 " fill="none" id="ICompany-backto-IUser" style="stroke:#A80036;stroke-width:1.0;"/><polygon fill="#A80036" points="511.6661,119.1355,506.4257,124.0891,508.9827,130.8316,514.2231,125.878,511.6661,119.1355" style="stroke:#A80036;stroke-width:1.0;"/><text fill="#000000" font-family="sans-serif" font-size="13" lengthAdjust="spacing" textLength="54" x="505.5442" y="162.0669">contains</text><text fill="#000000" font-family="sans-serif" font-size="13" lengthAdjust="spacing" textLength="8" x="501.6091" y="138.9646">1</text><text fill="#000000" font-family="sans-serif" font-size="13" lengthAdjust="spacing" textLength="36" x="452.0875" y="198.0436">many</text><!--MD5=[f8e4752c4ba4b88646ed7fb6a0542aa5]
reverse link ICompany to ISupplier--><path codeLine="103" d="M719.647,122.8691 C807.2231,149.7426 906.7999,180.2987 978.8121,202.3963 " fill="none" id="ICompany-backto-ISupplier" style="stroke:#A80036;stroke-width:1.0;"/><polygon fill="#A80036" points="707.0958,119.0176,711.6584,124.6018,718.5678,122.5379,714.0053,116.9538,707.0958,119.0176" style="stroke:#A80036;stroke-width:1.0;"/><text fill="#000000" font-family="sans-serif" font-size="13" lengthAdjust="spacing" textLength="54" x="852.5442" y="162.0669">contains</text><text fill="#000000" font-family="sans-serif" font-size="13" lengthAdjust="spacing" textLength="8" x="721.9727" y="139.2297">1</text><text fill="#000000" font-family="sans-serif" font-size="13" lengthAdjust="spacing" textLength="36" x="934.902" y="196.9141">many</text><!--MD5=[a2fb562cbc050e676760d92a3e1f45c5]
reverse link ICompany to IWarehouse--><path codeLine="104" d="M592.3108,128.4564 C615.9887,151.3271 641.7328,176.1935 662.1708,195.9348 " fill="none" id="ICompany-backto-IWarehouse" style="stroke:#A80036;stroke-width:1.0;"/><polygon fill="#A80036" points="582.661,119.1355,584.1976,126.181,591.2922,127.4723,589.7555,120.4269,582.661,119.1355" style="stroke:#A80036;stroke-width:1.0;"/><!--MD5=[28bf3e847e616c01aba3563ed8474867]
reverse link ISupplier to IReception--><path codeLine="106" d="M1103.4594,274.9962 C1117.6962,298.9934 1135.5168,329.0312 1149.8771,353.2364 " fill="none" id="ISupplier-backto-IReception" style="stroke:#A80036;stroke-width:1.0;"/><polygon fill="#A80036" points="1096.7892,263.7531,1096.4105,270.9543,1102.9121,274.0735,1103.2908,266.8723,1096.7892,263.7531" style="stroke:#A80036;stroke-width:1.0;"/><text fill="#000000" font-family="sans-serif" font-size="13" lengthAdjust="spacing" textLength="54" x="1128.5442" y="313.0669">contains</text><text fill="#000000" font-family="sans-serif" font-size="13" lengthAdjust="spacing" textLength="8" x="1091.5937" y="283.3834">1</text><text fill="#000000" font-family="sans-serif" font-size="13" lengthAdjust="spacing" textLength="36" x="1107.1906" y="342.5086">many</text><!--MD5=[3114d429e70eb9ea4e85c37a4be4a027]
reverse link IReception to IReceptionGood--><path codeLine="108" d="M1313.485,445.9168 C1346.7978,464.729 1378.3042,489.8923 1397.5442,523 C1436.9844,590.8676 1397.9449,681.934 1365.6207,737.5769 " fill="none" id="IReception-backto-IReceptionGood" style="stroke:#A80036;stroke-width:1.0;"/><polygon fill="#A80036" points="1301.6437,439.5249,1305.0236,445.8948,1312.2035,445.2249,1308.8236,438.8549,1301.6437,439.5249" style="stroke:#A80036;stroke-width:1.0;"/><text fill="#000000" font-family="sans-serif" font-size="13" lengthAdjust="spacing" textLength="54" x="1415.5442" y="596.5669">contains</text><text fill="#000000" font-family="sans-serif" font-size="13" lengthAdjust="spacing" textLength="8" x="1313.8664" y="459.9367">1</text><text fill="#000000" font-family="sans-serif" font-size="13" lengthAdjust="spacing" textLength="36" x="1331.6466" y="726.9218">many</text><!--MD5=[509c9ed52fc692f77ea0404119c24070]
reverse link IReception to IConfirmation--><path codeLine="109" d="M1163.8649,452.9488 C1162.6682,474.7 1162.4746,499.7942 1163.2842,522.6268 " fill="none" id="IReception-backto-IConfirmation" style="stroke:#A80036;stroke-width:1.0;"/><polygon fill="#A80036" points="1164.7397,439.8878,1160.3476,445.607,1163.9377,451.861,1168.3297,446.1417,1164.7397,439.8878" style="stroke:#A80036;stroke-width:1.0;"/><!--MD5=[604ed2183890d1102fa6d4663ca609c1]
reverse link IConfirmation to IReception--><path codeLine="112" d="M1188.8971,509.4988 C1189.3621,485.5691 1188.7245,460.3894 1186.9843,439.8878 " fill="none" id="IConfirmation-backto-IReception" style="stroke:#A80036;stroke-width:1.0;"/><polygon fill="#A80036" points="1188.5253,522.6268,1192.6936,516.7425,1188.8651,510.6316,1184.6968,516.5159,1188.5253,522.6268" style="stroke:#A80036;stroke-width:1.0;"/><!--MD5=[29094d67ba3ce8e58301e9be5089caf9]
reverse link IReceptionGood to IGoodConfirmation--><path codeLine="110" d="M1320.1384,850.4179 C1319.5994,866.0481 1319.6934,882.6968 1320.4204,897.9716 " fill="none" id="IReceptionGood-backto-IGoodConfirmation" style="stroke:#A80036;stroke-width:1.0;"/><polygon fill="#A80036" points="1320.7749,837.0047,1316.495,842.8083,1320.206,848.9912,1324.486,843.1876,1320.7749,837.0047" style="stroke:#A80036;stroke-width:1.0;"/><!--MD5=[80acd0917db55519c5f0a6a68d6f3cde]
reverse link IGoodConfirmation to IReceptionGood--><path codeLine="118" d="M1345.8734,884.7355 C1346.268,868.7148 1345.9788,851.9826 1345.0058,837.0047 " fill="none" id="IGoodConfirmation-backto-IReceptionGood" style="stroke:#A80036;stroke-width:1.0;"/><polygon fill="#A80036" points="1345.3812,897.9716,1349.6015,892.1245,1345.8273,885.9799,1341.607,891.827,1345.3812,897.9716" style="stroke:#A80036;stroke-width:1.0;"/><!--MD5=[cf2bcbcd180f2622383404a95915bc40]
reverse link IConfirmation to IConfirmationState--><path codeLine="113" d="M1178.7831,674.5106 C1183.3095,789.8206 1191.3121,993.6872 1194.339,1070.7977 " fill="none" id="IConfirmation-backto-IConfirmationState" style="stroke:#A80036;stroke-width:1.0;"/><polygon fill="#A80036" points="1178.2623,661.2437,1174.5008,667.396,1178.7331,673.2345,1182.4946,667.0822,1178.2623,661.2437" style="stroke:#A80036;stroke-width:1.0;"/><!--MD5=[97b88ed7fff08738c69bc2b228524978]
reverse link IConfirmation to IReceptionGood--><path codeLine="114" d="M1239.3054,671.3969 C1257.3218,693.8314 1276.4127,717.6038 1292.5957,737.7552 " fill="none" id="IConfirmation-backto-IReceptionGood" style="stroke:#A80036;stroke-width:1.0;"/><polygon fill="#A80036" points="1231.1175,661.2011,1231.7557,668.3839,1238.6314,670.5575,1237.9932,663.3747,1231.1175,661.2011" style="stroke:#A80036;stroke-width:1.0;"/><text fill="#000000" font-family="sans-serif" font-size="13" lengthAdjust="spacing" textLength="54" x="1269.5442" y="704.0669">contains</text><text fill="#000000" font-family="sans-serif" font-size="13" lengthAdjust="spacing" textLength="8" x="1228.0331" y="680.6024">1</text><text fill="#000000" font-family="sans-serif" font-size="13" lengthAdjust="spacing" textLength="36" x="1248.4467" y="726.766">many</text><!--MD5=[db6cd7534cdc2d171f04874d87426579]
reverse link IGoodConfirmation to IConfirmationState--><path codeLine="117" d="M1271.3206,1019.9159 C1254.9022,1037.5927 1237.9198,1055.8766 1224.2039,1070.6437 " fill="none" id="IGoodConfirmation-backto-IConfirmationState" style="stroke:#A80036;stroke-width:1.0;"/><polygon fill="#A80036" points="1280.3596,1010.1842,1273.3455,1011.8582,1272.193,1018.9766,1279.2071,1017.3026,1280.3596,1010.1842" style="stroke:#A80036;stroke-width:1.0;"/><!--MD5=[c2a2b94348eefffd3dfd68d75af7c4f6]
reverse link IWarehouse to IWarehouseGood--><path codeLine="120" d="M700.5442,283.2075 C700.5442,303.4223 700.5442,326.6763 700.5442,346.836 " fill="none" id="IWarehouse-backto-IWarehouseGood" style="stroke:#A80036;stroke-width:1.0;"/><polygon fill="#A80036" points="700.5442,270.1007,696.5442,276.1007,700.5442,282.1007,704.5442,276.1007,700.5442,270.1007" style="stroke:#A80036;stroke-width:1.0;"/><text fill="#000000" font-family="sans-serif" font-size="13" lengthAdjust="spacing" textLength="54" x="701.5442" y="313.0669">contains</text><text fill="#000000" font-family="sans-serif" font-size="13" lengthAdjust="spacing" textLength="8" x="691.8817" y="289.5979">1</text><text fill="#000000" font-family="sans-serif" font-size="13" lengthAdjust="spacing" textLength="36" x="662.0129" y="335.8582">many</text><!--MD5=[df76e01b0366ca21ffded64e8ea6dbe1]
reverse link IWarehouse to IStorage--><path codeLine="121" d="M562.4217,273.9936 C386.9401,329.1928 99.5729,431.1119 39.5442,523 C6,574.3475 7.8603,608.4842 39.5442,661 C68.8026,709.4955 123.5284,740.3431 173.3406,759.422 " fill="none" id="IWarehouse-backto-IStorage" style="stroke:#A80036;stroke-width:1.0;"/><polygon fill="#A80036" points="574.8583,270.1008,567.9374,268.0758,563.4062,273.6855,570.3272,275.7105,574.8583,270.1008" style="stroke:#A80036;stroke-width:1.0;"/><text fill="#000000" font-family="sans-serif" font-size="13" lengthAdjust="spacing" textLength="54" x="84.5442" y="489.0669">contains</text><text fill="#000000" font-family="sans-serif" font-size="13" lengthAdjust="spacing" textLength="8" x="545.3791" y="289.598">1</text><text fill="#000000" font-family="sans-serif" font-size="13" lengthAdjust="spacing" textLength="36" x="129.3838" y="754.2007">many</text><!--MD5=[4667dece3e8a471b49a58c61e44cb430]
reverse link IWarehouseGood to IStorages--><path codeLine="122" d="M581.8359,451.6246 C525.1148,477.9642 457.336,509.4387 400.3467,535.9029 " fill="none" id="IWarehouseGood-backto-IStorages" style="stroke:#A80036;stroke-width:1.0;"/><polygon fill="#A80036" points="593.7639,446.0856,586.6373,444.9847,582.8802,451.1397,590.0067,452.2406,593.7639,446.0856" style="stroke:#A80036;stroke-width:1.0;"/><!--MD5=[270475b1514bebc36fb887f08344bc8f]
reverse link IWarehouseGood to IMovement--><path codeLine="123" d="M700.5442,459.2044 C700.5442,490.7225 700.5442,527.8432 700.5442,554.8133 " fill="none" id="IWarehouseGood-backto-IMovement" style="stroke:#A80036;stroke-width:1.0;"/><polygon fill="#A80036" points="700.5442,446.0856,696.5442,452.0856,700.5442,458.0856,704.5442,452.0856,700.5442,446.0856" style="stroke:#A80036;stroke-width:1.0;"/><!--MD5=[f30aaba99780cef93244cc40d4fa0a73]
reverse link IStorages to IStorage--><path codeLine="124" d="M279.5442,661.2766 C279.5442,688.9087 279.5442,719.8667 279.5442,744.2079 " fill="none" id="IStorages-backto-IStorage" style="stroke:#A80036;stroke-width:1.0;"/><polygon fill="#A80036" points="279.5442,648.0225,275.5442,654.0225,279.5442,660.0225,283.5442,654.0225,279.5442,648.0225" style="stroke:#A80036;stroke-width:1.0;"/><text fill="#000000" font-family="sans-serif" font-size="13" lengthAdjust="spacing" textLength="54" x="280.5442" y="704.0669">contains</text><text fill="#000000" font-family="sans-serif" font-size="13" lengthAdjust="spacing" textLength="8" x="271.0317" y="668.2352">1</text><text fill="#000000" font-family="sans-serif" font-size="13" lengthAdjust="spacing" textLength="36" x="240.788" y="733.4757">many</text><!--MD5=[1d3d5cc7aa38798341a29112766230bd]
reverse link IStorage to IWarehouseGood--><path codeLine="125" d="M398.7423,779.7918 C556.5653,766.8163 821.9301,734.4429 881.5442,661 C920.1978,613.3799 909.8888,577.3908 881.5442,523 C864.9786,491.2119 836.3689,465.7694 806.7228,446.2776 " fill="none" id="IStorage-backto-IWarehouseGood" style="stroke:#A80036;stroke-width:1.0;"/><polygon fill="#A80036" points="385.6938,780.8407,391.995,784.3471,397.6552,779.8793,391.354,776.3728,385.6938,780.8407" style="stroke:#A80036;stroke-width:1.0;"/><!--MD5=[cab478ee836f067fd0521991951c657c]
@startuml
interface       ICompany
{
  IEntities<ICustomer> Customers
  IEntities<IUser> Users
  IWarehouse Warehouse
  IEntities<ISupplier> Suppliers
  +LoginAsync(userName: string , password:string) : Task<IUser>
}

interface       IEntities
{
  +ToListAsync() : Task<IList<TEntity>> 
  +With(filter : IFilter) : IEntities<TEntity> 
}

interface       ICustomer
interface       IUser
interface       IWarehouse
{
  IEntities<IWarehouseGood> Goods

  +ByBarcodeAsync(ean: string) : Task<IStorage>
}
interface       ISupplier
{
  IEntities<IReception> Receptions
}
interface       IReception
{
  IEntities<IReceptionGood> Goods

  +ValidateAsync(goodsToValidate: IList<IGoodConfirmation>) : Task
  +Confirmation() : IConfirmation
}

interface     IConfirmation
{
  IReception Reception
  IConfirmationState State

  +AddAsync(goodToAdd : IReceptionGood , quantity : int ) : Task
  +RemoveAsync(goodToRemove: IReceptionGood , quantity: int): Task
  +CommitAsync() : Task
  +ToListAsync(): Task<List<IGoodConfirmation>> 
  +ClearAsync(): Task
}

interface       IReceptionGood
{
  int Quantity
  IGoodConfirmation Confirmation
  
  +ConfirmedAsync() : Task<bool> 
  +Clear() : IReceptionGood
}
interface       IGoodConfirmation
{
  IReceptionGood Good
  IConfirmationState State
  
  +int Increase(quantity :int)
  +int Decrease(quantity :int)
  +void Clear()
}

interface     IWarehouseGood
{
  int Quantity
  IStorages Storages
  IMovement Movement
  
  From(storage :IStorage) : IMovement
}

interface     IStorages
{
  IEntities<IStorage> PutAway
  IEntities<IStorage> Race
  IEntities<IStorage> Reserve
  
  +ByBarcodeAsync(ean: string) : Task<IStorage>
  +ByBarcodeAsync(warehouse : IWarehouse, ean: string) : Task<IStorage> 
}
interface     IStorage
{
  IEntities<IWarehouseGood> Goods

  +IncreaseAsync()
  +DecreaseAsync()
}
interface     IMovement
{
  +MoveToAsync(storage: IStorage , quantity: int) : Task
  +From(storage: IStorage)
}
interface     IConfirmationState
{
  +ToEnumAsync() : Task<ConfirmationState>
}

ICompany "1" *- - "many" ICustomer : contains
ICompany "1" *- - "many" IUser : contains
ICompany "1" *- - "many" ISupplier : contains
ICompany *- - IWarehouse

ISupplier "1" *- - "many" IReception : contains

IReception "1" *- - "many" IReceptionGood : contains
IReception *- - IConfirmation
IReceptionGood *- - IGoodConfirmation

IConfirmation *- - IReception
IConfirmation *- - IConfirmationState
IConfirmation "1" *- - "many" IReceptionGood : contains


IGoodConfirmation *- - IConfirmationState
IGoodConfirmation *- - IReceptionGood

IWarehouse "1" *- - "many" IWarehouseGood : contains
IWarehouse "1" *- - "many" IStorage : contains
IWarehouseGood *- - IStorages
IWarehouseGood *- - IMovement
IStorages "1" *- - "many" IStorage : contains
IStorage *- - IWarehouseGood
@enduml

PlantUML version 1.2021.7(Sun May 23 12:40:07 UTC 2021)
(GPL source distribution)
Java Runtime: OpenJDK Runtime Environment
JVM: OpenJDK 64-Bit Server VM
Default Encoding: UTF-8
Language: en
Country: US
--></g></svg>