<?xml version="1.0" encoding="UTF-8" standalone="no"?><svg xmlns="http://www.w3.org/2000/svg" xmlns:xlink="http://www.w3.org/1999/xlink" contentScriptType="application/ecmascript" contentStyleType="text/css" height="649px" preserveAspectRatio="none" style="width:1048px;height:649px;background:#FFFFFF;" version="1.1" viewBox="0 0 1048 649" width="1048px" zoomAndPan="magnify"><defs><filter height="300%" id="fzdw2a46tr2q3" width="300%" x="-1" y="-1"><feGaussianBlur result="blurOut" stdDeviation="2.0"/><feColorMatrix in="blurOut" result="blurOut2" type="matrix" values="0 0 0 0 0 0 0 0 0 0 0 0 0 0 0 0 0 0 .4 0"/><feOffset dx="4.0" dy="4.0" in="blurOut2" result="blurOut3"/><feBlend in="SourceGraphic" in2="blurOut3" mode="normal"/></filter></defs><g><!--MD5=[72ebdb76e9db27ec466b32e588ae4e81]
class IWarehouse--><rect codeLine="1" fill="#FEFECE" filter="url(#fzdw2a46tr2q3)" height="73.6094" id="IWarehouse" style="stroke:#A80036;stroke-width:1.5;" width="295" x="708.5" y="7"/><ellipse cx="814.75" cy="23" fill="#B4A7E5" rx="11" ry="11" style="stroke:#A80036;stroke-width:1.0;"/><path d="M810.6719,18.7656 L810.6719,16.6094 L818.0625,16.6094 L818.0625,18.7656 L815.5938,18.7656 L815.5938,26.8438 L818.0625,26.8438 L818.0625,29 L810.6719,29 L810.6719,26.8438 L813.1406,26.8438 L813.1406,18.7656 L810.6719,18.7656 Z " fill="#000000"/><text fill="#000000" font-family="sans-serif" font-size="12" font-style="italic" lengthAdjust="spacing" textLength="74" x="835.25" y="27.1543">IWarehouse</text><line style="stroke:#A80036;stroke-width:1.5;" x1="709.5" x2="1002.5" y1="39" y2="39"/><text fill="#000000" font-family="sans-serif" font-size="11" lengthAdjust="spacing" textLength="200" x="714.5" y="53.2104">IEntities&lt;IWarehouseGood&gt; Goods</text><line style="stroke:#A80036;stroke-width:1.5;" x1="709.5" x2="1002.5" y1="59.8047" y2="59.8047"/><ellipse cx="719.5" cy="70.8047" fill="#84BE84" rx="3" ry="3" style="stroke:#038048;stroke-width:1.0;"/><text fill="#000000" font-family="sans-serif" font-size="11" lengthAdjust="spacing" textLength="269" x="728.5" y="74.0151">ByBarcodeAsync(ean: string) : Task&lt;IStorage&gt;</text><!--MD5=[8fc521b70c28b9f085ea6418b28640a0]
class IWarehouseGood--><rect codeLine="8" fill="#FEFECE" filter="url(#fzdw2a46tr2q3)" height="99.2188" id="IWarehouseGood" style="stroke:#A80036;stroke-width:1.5;" width="222" x="601" y="158"/><ellipse cx="654.25" cy="174" fill="#B4A7E5" rx="11" ry="11" style="stroke:#A80036;stroke-width:1.0;"/><path d="M650.1719,169.7656 L650.1719,167.6094 L657.5625,167.6094 L657.5625,169.7656 L655.0938,169.7656 L655.0938,177.8438 L657.5625,177.8438 L657.5625,180 L650.1719,180 L650.1719,177.8438 L652.6406,177.8438 L652.6406,169.7656 L650.1719,169.7656 Z " fill="#000000"/><text fill="#000000" font-family="sans-serif" font-size="12" font-style="italic" lengthAdjust="spacing" textLength="107" x="674.75" y="178.1543">IWarehouseGood</text><line style="stroke:#A80036;stroke-width:1.5;" x1="602" x2="822" y1="190" y2="190"/><text fill="#000000" font-family="sans-serif" font-size="11" lengthAdjust="spacing" textLength="65" x="607" y="204.2104">int Quantity</text><text fill="#000000" font-family="sans-serif" font-size="11" lengthAdjust="spacing" textLength="111" x="607" y="217.0151">IStorages Storages</text><text fill="#000000" font-family="sans-serif" font-size="11" lengthAdjust="spacing" textLength="123" x="607" y="229.8198">IMovement Movement</text><line style="stroke:#A80036;stroke-width:1.5;" x1="602" x2="822" y1="236.4141" y2="236.4141"/><text fill="#000000" font-family="sans-serif" font-size="11" lengthAdjust="spacing" textLength="210" x="607" y="250.6245">From(storage :IStorage) : IMovement</text><!--MD5=[5d2945def2d575c1f907a7f09ba34b55]
class IStorages--><rect codeLine="17" fill="#FEFECE" filter="url(#fzdw2a46tr2q3)" height="112.0234" id="IStorages" style="stroke:#A80036;stroke-width:1.5;" width="444" x="7" y="334"/><ellipse cx="194.75" cy="350" fill="#B4A7E5" rx="11" ry="11" style="stroke:#A80036;stroke-width:1.0;"/><path d="M190.6719,345.7656 L190.6719,343.6094 L198.0625,343.6094 L198.0625,345.7656 L195.5938,345.7656 L195.5938,353.8438 L198.0625,353.8438 L198.0625,356 L190.6719,356 L190.6719,353.8438 L193.1406,353.8438 L193.1406,345.7656 L190.6719,345.7656 Z " fill="#000000"/><text fill="#000000" font-family="sans-serif" font-size="12" font-style="italic" lengthAdjust="spacing" textLength="60" x="215.25" y="354.1543">IStorages</text><line style="stroke:#A80036;stroke-width:1.5;" x1="8" x2="450" y1="366" y2="366"/><text fill="#000000" font-family="sans-serif" font-size="11" lengthAdjust="spacing" textLength="162" x="13" y="380.2104">IEntities&lt;IStorage&gt; PutAway</text><text fill="#000000" font-family="sans-serif" font-size="11" lengthAdjust="spacing" textLength="142" x="13" y="393.0151">IEntities&lt;IStorage&gt; Race</text><text fill="#000000" font-family="sans-serif" font-size="11" lengthAdjust="spacing" textLength="161" x="13" y="405.8198">IEntities&lt;IStorage&gt; Reserve</text><line style="stroke:#A80036;stroke-width:1.5;" x1="8" x2="450" y1="412.4141" y2="412.4141"/><ellipse cx="18" cy="423.4141" fill="#84BE84" rx="3" ry="3" style="stroke:#038048;stroke-width:1.0;"/><text fill="#000000" font-family="sans-serif" font-size="11" lengthAdjust="spacing" textLength="269" x="27" y="426.6245">ByBarcodeAsync(ean: string) : Task&lt;IStorage&gt;</text><ellipse cx="18" cy="436.2188" fill="#84BE84" rx="3" ry="3" style="stroke:#038048;stroke-width:1.0;"/><text fill="#000000" font-family="sans-serif" font-size="11" lengthAdjust="spacing" textLength="418" x="27" y="439.4292">ByBarcodeAsync(warehouse : IWarehouse, ean: string) : Task&lt;IStorage&gt;</text><!--MD5=[e8cfd755308414781c0123d0000bbf77]
class IStorage--><rect codeLine="26" fill="#FEFECE" filter="url(#fzdw2a46tr2q3)" height="112.0234" id="IStorage" style="stroke:#A80036;stroke-width:1.5;" width="335" x="699.5" y="523"/><ellipse cx="836.25" cy="539" fill="#B4A7E5" rx="11" ry="11" style="stroke:#A80036;stroke-width:1.0;"/><path d="M832.1719,534.7656 L832.1719,532.6094 L839.5625,532.6094 L839.5625,534.7656 L837.0938,534.7656 L837.0938,542.8438 L839.5625,542.8438 L839.5625,545 L832.1719,545 L832.1719,542.8438 L834.6406,542.8438 L834.6406,534.7656 L832.1719,534.7656 Z " fill="#000000"/><text fill="#000000" font-family="sans-serif" font-size="12" font-style="italic" lengthAdjust="spacing" textLength="53" x="856.75" y="543.1543">IStorage</text><line style="stroke:#A80036;stroke-width:1.5;" x1="700.5" x2="1033.5" y1="555" y2="555"/><text fill="#000000" font-family="sans-serif" font-size="11" lengthAdjust="spacing" textLength="200" x="705.5" y="569.2104">IEntities&lt;IWarehouseGood&gt; Goods</text><line style="stroke:#A80036;stroke-width:1.5;" x1="700.5" x2="1033.5" y1="575.8047" y2="575.8047"/><ellipse cx="710.5" cy="586.8047" fill="#84BE84" rx="3" ry="3" style="stroke:#038048;stroke-width:1.0;"/><text fill="#000000" font-family="sans-serif" font-size="11" lengthAdjust="spacing" textLength="297" x="719.5" y="590.0151">IncreaseAsync(good: IWarehouseGood, quantity: int)</text><ellipse cx="710.5" cy="599.6094" fill="#84BE84" rx="3" ry="3" style="stroke:#038048;stroke-width:1.0;"/><text fill="#000000" font-family="sans-serif" font-size="11" lengthAdjust="spacing" textLength="302" x="719.5" y="602.8198">DecreaseAsync(good: IWarehouseGood, quantity: int)</text><ellipse cx="710.5" cy="612.4141" fill="#84BE84" rx="3" ry="3" style="stroke:#038048;stroke-width:1.0;"/><text fill="#000000" font-family="sans-serif" font-size="11" lengthAdjust="spacing" textLength="297" x="719.5" y="615.6245">QuantityForAsync(goodBarcode : string) : Task&lt;int&gt;</text><ellipse cx="710.5" cy="625.2188" fill="#84BE84" rx="3" ry="3" style="stroke:#038048;stroke-width:1.0;"/><text fill="#000000" font-family="sans-serif" font-size="11" lengthAdjust="spacing" textLength="309" x="719.5" y="628.4292">QuantityForAsync(good: IWarehouseGood) : Task&lt;int&gt;</text><!--MD5=[0456f55dbd06482b22a5e5e10e73b231]
class IMovement--><rect codeLine="35" fill="#FEFECE" filter="url(#fzdw2a46tr2q3)" height="73.6094" id="IMovement" style="stroke:#A80036;stroke-width:1.5;" width="328" x="486" y="353"/><ellipse cx="612.25" cy="369" fill="#B4A7E5" rx="11" ry="11" style="stroke:#A80036;stroke-width:1.0;"/><path d="M608.1719,364.7656 L608.1719,362.6094 L615.5625,362.6094 L615.5625,364.7656 L613.0938,364.7656 L613.0938,372.8438 L615.5625,372.8438 L615.5625,375 L608.1719,375 L608.1719,372.8438 L610.6406,372.8438 L610.6406,364.7656 L608.1719,364.7656 Z " fill="#000000"/><text fill="#000000" font-family="sans-serif" font-size="12" font-style="italic" lengthAdjust="spacing" textLength="67" x="632.75" y="373.1543">IMovement</text><line style="stroke:#A80036;stroke-width:1.5;" x1="487" x2="813" y1="385" y2="385"/><line style="stroke:#A80036;stroke-width:1.5;" x1="487" x2="813" y1="393" y2="393"/><ellipse cx="497" cy="404" fill="#84BE84" rx="3" ry="3" style="stroke:#038048;stroke-width:1.0;"/><text fill="#000000" font-family="sans-serif" font-size="11" lengthAdjust="spacing" textLength="302" x="506" y="407.2104">MoveToAsync(storage: IStorage , quantity: int) : Task</text><ellipse cx="497" cy="416.8047" fill="#84BE84" rx="3" ry="3" style="stroke:#038048;stroke-width:1.0;"/><text fill="#000000" font-family="sans-serif" font-size="11" lengthAdjust="spacing" textLength="137" x="506" y="420.0151">From(storage: IStorage)</text><!--MD5=[c2a2b94348eefffd3dfd68d75af7c4f6]
reverse link IWarehouse to IWarehouseGood--><path codeLine="41" d="M814.85,91.15 C796.25,112.01 774.27,136.67 755.41,157.82 " fill="none" id="IWarehouse-backto-IWarehouseGood" style="stroke:#A80036;stroke-width:1.0;"/><polygon fill="#A80036" points="823.68,81.24,816.702,83.0587,815.697,90.1994,822.675,88.3807,823.68,81.24" style="stroke:#A80036;stroke-width:1.0;"/><text fill="#000000" font-family="sans-serif" font-size="13" lengthAdjust="spacing" textLength="54" x="797" y="124.0669">contains</text><text fill="#000000" font-family="sans-serif" font-size="13" lengthAdjust="spacing" textLength="8" x="809.6645" y="100.7603">1</text><text fill="#000000" font-family="sans-serif" font-size="13" lengthAdjust="spacing" textLength="36" x="722.9833" y="146.8399">many</text><!--MD5=[df76e01b0366ca21ffded64e8ea6dbe1]
reverse link IWarehouse to IStorage--><path codeLine="42" d="M861.46,94.29 C870.02,174.27 886.22,337.35 892,476 C892.31,483.55 893.08,485.52 892,493 C890.6,502.74 888.33,512.93 885.73,522.72 " fill="none" id="IWarehouse-backto-IStorage" style="stroke:#A80036;stroke-width:1.0;"/><polygon fill="#A80036" points="860.06,81.26,856.7292,87.6558,861.3519,93.1903,864.6827,86.7945,860.06,81.26" style="stroke:#A80036;stroke-width:1.0;"/><text fill="#000000" font-family="sans-serif" font-size="13" lengthAdjust="spacing" textLength="54" x="882" y="300.0669">contains</text><text fill="#000000" font-family="sans-serif" font-size="13" lengthAdjust="spacing" textLength="8" x="852.0699" y="100.7836">1</text><text fill="#000000" font-family="sans-serif" font-size="13" lengthAdjust="spacing" textLength="36" x="849.819" y="512.0204">many</text><!--MD5=[4667dece3e8a471b49a58c61e44cb430]
reverse link IWarehouseGood to IStorages--><path codeLine="43" d="M588.57,254.63 C523.85,278.81 444.12,308.61 376.2,333.99 " fill="none" id="IWarehouseGood-backto-IStorages" style="stroke:#A80036;stroke-width:1.0;"/><polygon fill="#A80036" points="600.89,250.02,593.8707,248.3679,589.6459,254.2118,596.6652,255.8639,600.89,250.02" style="stroke:#A80036;stroke-width:1.0;"/><!--MD5=[270475b1514bebc36fb887f08344bc8f]
reverse link IWarehouseGood to IMovement--><path codeLine="44" d="M690.98,269.7 C681.5,297.3 670.63,328.95 662.46,352.72 " fill="none" id="IWarehouseGood-backto-IMovement" style="stroke:#A80036;stroke-width:1.0;"/><polygon fill="#A80036" points="695.22,257.35,689.4851,261.7216,691.3146,268.6967,697.0495,264.3252,695.22,257.35" style="stroke:#A80036;stroke-width:1.0;"/><!--MD5=[f30aaba99780cef93244cc40d4fa0a73]
reverse link IStorages to IStorage--><path codeLine="45" d="M429.66,449.81 C516.38,475.23 616.7,504.64 699.36,528.86 " fill="none" id="IStorages-backto-IStorage" style="stroke:#A80036;stroke-width:1.0;"/><polygon fill="#A80036" points="416.97,446.09,421.602,451.6167,428.4851,449.4667,423.8531,443.94,416.97,446.09" style="stroke:#A80036;stroke-width:1.0;"/><text fill="#000000" font-family="sans-serif" font-size="13" lengthAdjust="spacing" textLength="54" x="569" y="489.0669">contains</text><text fill="#000000" font-family="sans-serif" font-size="13" lengthAdjust="spacing" textLength="8" x="431.3913" y="465.9136">1</text><text fill="#000000" font-family="sans-serif" font-size="13" lengthAdjust="spacing" textLength="36" x="655.5283" y="523.4975">many</text><!--MD5=[1d3d5cc7aa38798341a29112766230bd]
reverse link IStorage to IWarehouseGood--><path codeLine="46" d="M868.22,509.73 C866.57,458.91 858.81,389.11 832,334 C817.89,304.99 794.61,278.31 772.29,257.08 " fill="none" id="IStorage-backto-IWarehouseGood" style="stroke:#A80036;stroke-width:1.0;"/><polygon fill="#A80036" points="868.52,522.87,872.3805,516.7793,868.2432,510.8732,864.3826,516.9639,868.52,522.87" style="stroke:#A80036;stroke-width:1.0;"/><!--MD5=[0da60a17a548d4f5cfb95379d83f27f2]
@startuml
interface       IWarehouse
{
  IEntities<IWarehouseGood> Goods

  +ByBarcodeAsync(ean: string) : Task<IStorage>
}

interface     IWarehouseGood
{
  int Quantity
  IStorages Storages
  IMovement Movement
  
  From(storage :IStorage) : IMovement
}

interface     IStorages
{
  IEntities<IStorage> PutAway
  IEntities<IStorage> Race
  IEntities<IStorage> Reserve
  
  +ByBarcodeAsync(ean: string) : Task<IStorage>
  +ByBarcodeAsync(warehouse : IWarehouse, ean: string) : Task<IStorage> 
}
interface     IStorage
{
  IEntities<IWarehouseGood> Goods

  +IncreaseAsync(good: IWarehouseGood, quantity: int)
  +DecreaseAsync(good: IWarehouseGood, quantity: int)
  +QuantityForAsync(goodBarcode : string) : Task<int>
  +QuantityForAsync(good: IWarehouseGood) : Task<int>
}
interface     IMovement
{
  +MoveToAsync(storage: IStorage , quantity: int) : Task
  +From(storage: IStorage)
}

IWarehouse "1" *- - "many" IWarehouseGood : contains
IWarehouse "1" *- - "many" IStorage : contains
IWarehouseGood *- - IStorages
IWarehouseGood *- - IMovement
IStorages "1" *- - "many" IStorage : contains
IStorage *- - IWarehouseGood
@enduml

PlantUML version 1.2021.16(Wed Dec 08 17:25:22 UTC 2021)
(GPL source distribution)
Java Runtime: OpenJDK Runtime Environment
JVM: OpenJDK 64-Bit Server VM
Default Encoding: UTF-8
Language: en
Country: US
--></g></svg>