<?xml version="1.0" encoding="UTF-8" standalone="no"?><svg xmlns="http://www.w3.org/2000/svg" xmlns:xlink="http://www.w3.org/1999/xlink" contentScriptType="application/ecmascript" contentStyleType="text/css" height="1158px" preserveAspectRatio="none" style="width:1478px;height:1158px;background:#FFFFFF;" version="1.1" viewBox="0 0 1478 1158" width="1478px" zoomAndPan="magnify"><defs><filter height="300%" id="f1tpbmltexoe4d" width="300%" x="-1" y="-1"><feGaussianBlur result="blurOut" stdDeviation="2.0"/><feColorMatrix in="blurOut" result="blurOut2" type="matrix" values="0 0 0 0 0 0 0 0 0 0 0 0 0 0 0 0 0 0 .4 0"/><feOffset dx="4.0" dy="4.0" in="blurOut2" result="blurOut3"/><feBlend in="SourceGraphic" in2="blurOut3" mode="normal"/></filter></defs><g><!--MD5=[174cc1f4f4efb3e1302c3f0922d8a9c1]
class ICompany--><rect codeLine="1" fill="#FEFECE" filter="url(#f1tpbmltexoe4d)" height="112.0234" id="ICompany" style="stroke:#A80036;stroke-width:1.5;" width="389" x="330.08" y="7"/><ellipse cx="490.33" cy="23" fill="#B4A7E5" rx="11" ry="11" style="stroke:#A80036;stroke-width:1.0;"/><path d="M486.2519,18.7656 L486.2519,16.6094 L493.6425,16.6094 L493.6425,18.7656 L491.1738,18.7656 L491.1738,26.8438 L493.6425,26.8438 L493.6425,29 L486.2519,29 L486.2519,26.8438 L488.7206,26.8438 L488.7206,18.7656 L486.2519,18.7656 Z " fill="#000000"/><text fill="#000000" font-family="sans-serif" font-size="12" font-style="italic" lengthAdjust="spacing" textLength="60" x="510.83" y="27.1543">ICompany</text><line style="stroke:#A80036;stroke-width:1.5;" x1="331.08" x2="718.08" y1="39" y2="39"/><text fill="#000000" font-family="sans-serif" font-size="11" lengthAdjust="spacing" textLength="189" x="336.08" y="53.2104">IEntities&lt;ICustomer&gt; Customers</text><text fill="#000000" font-family="sans-serif" font-size="11" lengthAdjust="spacing" textLength="131" x="336.08" y="66.0151">IEntities&lt;IUser&gt; Users</text><text fill="#000000" font-family="sans-serif" font-size="11" lengthAdjust="spacing" textLength="133" x="336.08" y="78.8198">IWarehouse Warehouse</text><text fill="#000000" font-family="sans-serif" font-size="11" lengthAdjust="spacing" textLength="171" x="336.08" y="91.6245">IEntities&lt;ISupplier&gt; Suppliers</text><line style="stroke:#A80036;stroke-width:1.5;" x1="331.08" x2="718.08" y1="98.2188" y2="98.2188"/><ellipse cx="341.08" cy="109.2188" fill="#84BE84" rx="3" ry="3" style="stroke:#038048;stroke-width:1.0;"/><text fill="#000000" font-family="sans-serif" font-size="11" lengthAdjust="spacing" textLength="363" x="350.08" y="112.4292">LoginAsync(userName: string , password:string) : Task&lt;IUser&gt;</text><!--MD5=[e3df29e2ec2ff7bb4b8995ee14292961]
class IEntities--><rect codeLine="10" fill="#FEFECE" filter="url(#f1tpbmltexoe4d)" height="73.6094" id="IEntities" style="stroke:#A80036;stroke-width:1.5;" width="239" x="754.08" y="26"/><ellipse cx="844.33" cy="42" fill="#B4A7E5" rx="11" ry="11" style="stroke:#A80036;stroke-width:1.0;"/><path d="M840.2519,37.7656 L840.2519,35.6094 L847.6425,35.6094 L847.6425,37.7656 L845.1738,37.7656 L845.1738,45.8438 L847.6425,45.8438 L847.6425,48 L840.2519,48 L840.2519,45.8438 L842.7206,45.8438 L842.7206,37.7656 L840.2519,37.7656 Z " fill="#000000"/><text fill="#000000" font-family="sans-serif" font-size="12" font-style="italic" lengthAdjust="spacing" textLength="50" x="864.83" y="46.1543">IEntities</text><line style="stroke:#A80036;stroke-width:1.5;" x1="755.08" x2="992.08" y1="58" y2="58"/><line style="stroke:#A80036;stroke-width:1.5;" x1="755.08" x2="992.08" y1="66" y2="66"/><ellipse cx="765.08" cy="77" fill="#84BE84" rx="3" ry="3" style="stroke:#038048;stroke-width:1.0;"/><text fill="#000000" font-family="sans-serif" font-size="11" lengthAdjust="spacing" textLength="211" x="774.08" y="80.2104">ToListAsync() : Task&lt;IList&lt;TEntity&gt;&gt;</text><ellipse cx="765.08" cy="89.8047" fill="#84BE84" rx="3" ry="3" style="stroke:#038048;stroke-width:1.0;"/><text fill="#000000" font-family="sans-serif" font-size="11" lengthAdjust="spacing" textLength="213" x="774.08" y="93.0151">With(filter : IFilter) : IEntities&lt;TEntity&gt;</text><!--MD5=[fa61f9393a6e78a1f0a5db506689f6f2]
class ICustomer--><rect codeLine="16" fill="#FEFECE" filter="url(#f1tpbmltexoe4d)" height="48" id="ICustomer" style="stroke:#A80036;stroke-width:1.5;" width="95" x="323.08" y="209"/><ellipse cx="338.08" cy="225" fill="#B4A7E5" rx="11" ry="11" style="stroke:#A80036;stroke-width:1.0;"/><path d="M334.0019,220.7656 L334.0019,218.6094 L341.3925,218.6094 L341.3925,220.7656 L338.9238,220.7656 L338.9238,228.8438 L341.3925,228.8438 L341.3925,231 L334.0019,231 L334.0019,228.8438 L336.4706,228.8438 L336.4706,220.7656 L334.0019,220.7656 Z " fill="#000000"/><text fill="#000000" font-family="sans-serif" font-size="12" font-style="italic" lengthAdjust="spacing" textLength="63" x="352.08" y="229.1543">ICustomer</text><line style="stroke:#A80036;stroke-width:1.5;" x1="324.08" x2="417.08" y1="241" y2="241"/><line style="stroke:#A80036;stroke-width:1.5;" x1="324.08" x2="417.08" y1="249" y2="249"/><!--MD5=[4397ba3f25468a58f081bf0666d83f60]
class IUser--><rect codeLine="17" fill="#FEFECE" filter="url(#f1tpbmltexoe4d)" height="48" id="IUser" style="stroke:#A80036;stroke-width:1.5;" width="64" x="453.58" y="209"/><ellipse cx="468.58" cy="225" fill="#B4A7E5" rx="11" ry="11" style="stroke:#A80036;stroke-width:1.0;"/><path d="M464.5019,220.7656 L464.5019,218.6094 L471.8925,218.6094 L471.8925,220.7656 L469.4238,220.7656 L469.4238,228.8438 L471.8925,228.8438 L471.8925,231 L464.5019,231 L464.5019,228.8438 L466.9706,228.8438 L466.9706,220.7656 L464.5019,220.7656 Z " fill="#000000"/><text fill="#000000" font-family="sans-serif" font-size="12" font-style="italic" lengthAdjust="spacing" textLength="32" x="482.58" y="229.1543">IUser</text><line style="stroke:#A80036;stroke-width:1.5;" x1="454.58" x2="516.58" y1="241" y2="241"/><line style="stroke:#A80036;stroke-width:1.5;" x1="454.58" x2="516.58" y1="249" y2="249"/><!--MD5=[72ebdb76e9db27ec466b32e588ae4e81]
class IWarehouse--><rect codeLine="18" fill="#FEFECE" filter="url(#f1tpbmltexoe4d)" height="73.6094" id="IWarehouse" style="stroke:#A80036;stroke-width:1.5;" width="295" x="553.08" y="196"/><ellipse cx="659.33" cy="212" fill="#B4A7E5" rx="11" ry="11" style="stroke:#A80036;stroke-width:1.0;"/><path d="M655.2519,207.7656 L655.2519,205.6094 L662.6425,205.6094 L662.6425,207.7656 L660.1738,207.7656 L660.1738,215.8438 L662.6425,215.8438 L662.6425,218 L655.2519,218 L655.2519,215.8438 L657.7206,215.8438 L657.7206,207.7656 L655.2519,207.7656 Z " fill="#000000"/><text fill="#000000" font-family="sans-serif" font-size="12" font-style="italic" lengthAdjust="spacing" textLength="74" x="679.83" y="216.1543">IWarehouse</text><line style="stroke:#A80036;stroke-width:1.5;" x1="554.08" x2="847.08" y1="228" y2="228"/><text fill="#000000" font-family="sans-serif" font-size="11" lengthAdjust="spacing" textLength="200" x="559.08" y="242.2104">IEntities&lt;IWarehouseGood&gt; Goods</text><line style="stroke:#A80036;stroke-width:1.5;" x1="554.08" x2="847.08" y1="248.8047" y2="248.8047"/><ellipse cx="564.08" cy="259.8047" fill="#84BE84" rx="3" ry="3" style="stroke:#038048;stroke-width:1.0;"/><text fill="#000000" font-family="sans-serif" font-size="11" lengthAdjust="spacing" textLength="269" x="573.08" y="263.0151">ByBarcodeAsync(ean: string) : Task&lt;IStorage&gt;</text><!--MD5=[f7f4a9c734668113b597fe9b3e401ef0]
class ISupplier--><rect codeLine="24" fill="#FEFECE" filter="url(#f1tpbmltexoe4d)" height="60.8047" id="ISupplier" style="stroke:#A80036;stroke-width:1.5;" width="199" x="979.08" y="202.5"/><ellipse cx="1047.33" cy="218.5" fill="#B4A7E5" rx="11" ry="11" style="stroke:#A80036;stroke-width:1.0;"/><path d="M1043.2519,214.2656 L1043.2519,212.1094 L1050.6425,212.1094 L1050.6425,214.2656 L1048.1738,214.2656 L1048.1738,222.3438 L1050.6425,222.3438 L1050.6425,224.5 L1043.2519,224.5 L1043.2519,222.3438 L1045.7206,222.3438 L1045.7206,214.2656 L1043.2519,214.2656 Z " fill="#000000"/><text fill="#000000" font-family="sans-serif" font-size="12" font-style="italic" lengthAdjust="spacing" textLength="54" x="1067.83" y="222.6543">ISupplier</text><line style="stroke:#A80036;stroke-width:1.5;" x1="980.08" x2="1177.08" y1="234.5" y2="234.5"/><text fill="#000000" font-family="sans-serif" font-size="11" lengthAdjust="spacing" textLength="187" x="985.08" y="248.7104">IEntities&lt;IReception&gt; Receptions</text><line style="stroke:#A80036;stroke-width:1.5;" x1="980.08" x2="1177.08" y1="255.3047" y2="255.3047"/><!--MD5=[97030263585a0ee0e093ee1c379493c2]
class IReception--><rect codeLine="28" fill="#FEFECE" filter="url(#f1tpbmltexoe4d)" height="86.4141" id="IReception" style="stroke:#A80036;stroke-width:1.5;" width="400" x="975.58" y="353.5"/><ellipse cx="1138.33" cy="369.5" fill="#B4A7E5" rx="11" ry="11" style="stroke:#A80036;stroke-width:1.0;"/><path d="M1134.2519,365.2656 L1134.2519,363.1094 L1141.6425,363.1094 L1141.6425,365.2656 L1139.1738,365.2656 L1139.1738,373.3438 L1141.6425,373.3438 L1141.6425,375.5 L1134.2519,375.5 L1134.2519,373.3438 L1136.7206,373.3438 L1136.7206,365.2656 L1134.2519,365.2656 Z " fill="#000000"/><text fill="#000000" font-family="sans-serif" font-size="12" font-style="italic" lengthAdjust="spacing" textLength="66" x="1158.83" y="373.6543">IReception</text><line style="stroke:#A80036;stroke-width:1.5;" x1="976.58" x2="1374.58" y1="385.5" y2="385.5"/><text fill="#000000" font-family="sans-serif" font-size="11" lengthAdjust="spacing" textLength="192" x="981.58" y="399.7104">IEntities&lt;IReceptionGood&gt; Goods</text><line style="stroke:#A80036;stroke-width:1.5;" x1="976.58" x2="1374.58" y1="406.3047" y2="406.3047"/><ellipse cx="986.58" cy="417.3047" fill="#84BE84" rx="3" ry="3" style="stroke:#038048;stroke-width:1.0;"/><text fill="#000000" font-family="sans-serif" font-size="11" lengthAdjust="spacing" textLength="374" x="995.58" y="420.5151">ValidateAsync(goodsToValidate: IList&lt;IGoodConfirmation&gt;) : Task</text><ellipse cx="986.58" cy="430.1094" fill="#84BE84" rx="3" ry="3" style="stroke:#038048;stroke-width:1.0;"/><text fill="#000000" font-family="sans-serif" font-size="11" lengthAdjust="spacing" textLength="169" x="995.58" y="433.3198">Confirmation() : IConfirmation</text><!--MD5=[042910ce448c96a3f43e3022bbf01c0e]
class IConfirmation--><rect codeLine="36" fill="#FEFECE" filter="url(#f1tpbmltexoe4d)" height="137.6328" id="IConfirmation" style="stroke:#A80036;stroke-width:1.5;" width="409" x="971.08" y="523"/><ellipse cx="1130.33" cy="539" fill="#B4A7E5" rx="11" ry="11" style="stroke:#A80036;stroke-width:1.0;"/><path d="M1126.2519,534.7656 L1126.2519,532.6094 L1133.6425,532.6094 L1133.6425,534.7656 L1131.1738,534.7656 L1131.1738,542.8438 L1133.6425,542.8438 L1133.6425,545 L1126.2519,545 L1126.2519,542.8438 L1128.7206,542.8438 L1128.7206,534.7656 L1126.2519,534.7656 Z " fill="#000000"/><text fill="#000000" font-family="sans-serif" font-size="12" font-style="italic" lengthAdjust="spacing" textLength="82" x="1150.83" y="543.1543">IConfirmation</text><line style="stroke:#A80036;stroke-width:1.5;" x1="972.08" x2="1379.08" y1="555" y2="555"/><text fill="#000000" font-family="sans-serif" font-size="11" lengthAdjust="spacing" textLength="117" x="977.08" y="569.2104">IReception Reception</text><text fill="#000000" font-family="sans-serif" font-size="11" lengthAdjust="spacing" textLength="140" x="977.08" y="582.0151">IConfirmationState State</text><line style="stroke:#A80036;stroke-width:1.5;" x1="972.08" x2="1379.08" y1="588.6094" y2="588.6094"/><ellipse cx="982.08" cy="599.6094" fill="#84BE84" rx="3" ry="3" style="stroke:#038048;stroke-width:1.0;"/><text fill="#000000" font-family="sans-serif" font-size="11" lengthAdjust="spacing" textLength="351" x="991.08" y="602.8198">AddAsync(goodToAdd : IReceptionGood , quantity : int ) : Task</text><ellipse cx="982.08" cy="612.4141" fill="#84BE84" rx="3" ry="3" style="stroke:#038048;stroke-width:1.0;"/><text fill="#000000" font-family="sans-serif" font-size="11" lengthAdjust="spacing" textLength="383" x="991.08" y="615.6245">RemoveAsync(goodToRemove: IReceptionGood , quantity: int): Task</text><ellipse cx="982.08" cy="625.2188" fill="#84BE84" rx="3" ry="3" style="stroke:#038048;stroke-width:1.0;"/><text fill="#000000" font-family="sans-serif" font-size="11" lengthAdjust="spacing" textLength="124" x="991.08" y="628.4292">CommitAsync() : Task</text><ellipse cx="982.08" cy="638.0234" fill="#84BE84" rx="3" ry="3" style="stroke:#038048;stroke-width:1.0;"/><text fill="#000000" font-family="sans-serif" font-size="11" lengthAdjust="spacing" textLength="272" x="991.08" y="641.2339">ToListAsync(): Task&lt;List&lt;IGoodConfirmation&gt;&gt;</text><ellipse cx="982.08" cy="650.8281" fill="#84BE84" rx="3" ry="3" style="stroke:#038048;stroke-width:1.0;"/><text fill="#000000" font-family="sans-serif" font-size="11" lengthAdjust="spacing" textLength="106" x="991.08" y="654.0386">ClearAsync(): Task</text><!--MD5=[7a63f56ae3ca9cb817a43269df786bdd]
class IReceptionGood--><rect codeLine="48" fill="#FEFECE" filter="url(#f1tpbmltexoe4d)" height="99.2188" id="IReceptionGood" style="stroke:#A80036;stroke-width:1.5;" width="207" x="1229.08" y="744.5"/><ellipse cx="1278.83" cy="760.5" fill="#B4A7E5" rx="11" ry="11" style="stroke:#A80036;stroke-width:1.0;"/><path d="M1274.7519,756.2656 L1274.7519,754.1094 L1282.1425,754.1094 L1282.1425,756.2656 L1279.6738,756.2656 L1279.6738,764.3438 L1282.1425,764.3438 L1282.1425,766.5 L1274.7519,766.5 L1274.7519,764.3438 L1277.2206,764.3438 L1277.2206,756.2656 L1274.7519,756.2656 Z " fill="#000000"/><text fill="#000000" font-family="sans-serif" font-size="12" font-style="italic" lengthAdjust="spacing" textLength="99" x="1299.33" y="764.6543">IReceptionGood</text><line style="stroke:#A80036;stroke-width:1.5;" x1="1230.08" x2="1435.08" y1="776.5" y2="776.5"/><text fill="#000000" font-family="sans-serif" font-size="11" lengthAdjust="spacing" textLength="65" x="1235.08" y="790.7104">int Quantity</text><text fill="#000000" font-family="sans-serif" font-size="11" lengthAdjust="spacing" textLength="183" x="1235.08" y="803.5151">IGoodConfirmation Confirmation</text><line style="stroke:#A80036;stroke-width:1.5;" x1="1230.08" x2="1435.08" y1="810.1094" y2="810.1094"/><ellipse cx="1240.08" cy="821.1094" fill="#84BE84" rx="3" ry="3" style="stroke:#038048;stroke-width:1.0;"/><text fill="#000000" font-family="sans-serif" font-size="11" lengthAdjust="spacing" textLength="181" x="1249.08" y="824.3198">ConfirmedAsync() : Task&lt;bool&gt;</text><ellipse cx="1240.08" cy="833.9141" fill="#84BE84" rx="3" ry="3" style="stroke:#038048;stroke-width:1.0;"/><text fill="#000000" font-family="sans-serif" font-size="11" lengthAdjust="spacing" textLength="138" x="1249.08" y="837.1245">Clear() : IReceptionGood</text><!--MD5=[1b9f8d1b33b627c9ed3b17acaadb8546]
class IGoodConfirmation--><rect codeLine="56" fill="#FEFECE" filter="url(#f1tpbmltexoe4d)" height="112.0234" id="IGoodConfirmation" style="stroke:#A80036;stroke-width:1.5;" width="173" x="1246.08" y="911"/><ellipse cx="1272.78" cy="927" fill="#B4A7E5" rx="11" ry="11" style="stroke:#A80036;stroke-width:1.0;"/><path d="M1268.7019,922.7656 L1268.7019,920.6094 L1276.0925,920.6094 L1276.0925,922.7656 L1273.6238,922.7656 L1273.6238,930.8438 L1276.0925,930.8438 L1276.0925,933 L1268.7019,933 L1268.7019,930.8438 L1271.1706,930.8438 L1271.1706,922.7656 L1268.7019,922.7656 Z " fill="#000000"/><text fill="#000000" font-family="sans-serif" font-size="12" font-style="italic" lengthAdjust="spacing" textLength="115" x="1289.38" y="931.1543">IGoodConfirmation</text><line style="stroke:#A80036;stroke-width:1.5;" x1="1247.08" x2="1418.08" y1="943" y2="943"/><text fill="#000000" font-family="sans-serif" font-size="11" lengthAdjust="spacing" textLength="122" x="1252.08" y="957.2104">IReceptionGood Good</text><text fill="#000000" font-family="sans-serif" font-size="11" lengthAdjust="spacing" textLength="140" x="1252.08" y="970.0151">IConfirmationState State</text><line style="stroke:#A80036;stroke-width:1.5;" x1="1247.08" x2="1418.08" y1="976.6094" y2="976.6094"/><ellipse cx="1257.08" cy="987.6094" fill="#84BE84" rx="3" ry="3" style="stroke:#038048;stroke-width:1.0;"/><text fill="#000000" font-family="sans-serif" font-size="11" lengthAdjust="spacing" textLength="142" x="1266.08" y="990.8198">int Increase(quantity :int)</text><ellipse cx="1257.08" cy="1000.4141" fill="#84BE84" rx="3" ry="3" style="stroke:#038048;stroke-width:1.0;"/><text fill="#000000" font-family="sans-serif" font-size="11" lengthAdjust="spacing" textLength="147" x="1266.08" y="1003.6245">int Decrease(quantity :int)</text><ellipse cx="1257.08" cy="1013.2188" fill="#84BE84" rx="3" ry="3" style="stroke:#038048;stroke-width:1.0;"/><text fill="#000000" font-family="sans-serif" font-size="11" lengthAdjust="spacing" textLength="65" x="1266.08" y="1016.4292">void Clear()</text><!--MD5=[8fc521b70c28b9f085ea6418b28640a0]
class IWarehouseGood--><rect codeLine="66" fill="#FEFECE" filter="url(#f1tpbmltexoe4d)" height="99.2188" id="IWarehouseGood" style="stroke:#A80036;stroke-width:1.5;" width="222" x="589.58" y="347"/><ellipse cx="642.83" cy="363" fill="#B4A7E5" rx="11" ry="11" style="stroke:#A80036;stroke-width:1.0;"/><path d="M638.7519,358.7656 L638.7519,356.6094 L646.1425,356.6094 L646.1425,358.7656 L643.6738,358.7656 L643.6738,366.8438 L646.1425,366.8438 L646.1425,369 L638.7519,369 L638.7519,366.8438 L641.2206,366.8438 L641.2206,358.7656 L638.7519,358.7656 Z " fill="#000000"/><text fill="#000000" font-family="sans-serif" font-size="12" font-style="italic" lengthAdjust="spacing" textLength="107" x="663.33" y="367.1543">IWarehouseGood</text><line style="stroke:#A80036;stroke-width:1.5;" x1="590.58" x2="810.58" y1="379" y2="379"/><text fill="#000000" font-family="sans-serif" font-size="11" lengthAdjust="spacing" textLength="65" x="595.58" y="393.2104">int Quantity</text><text fill="#000000" font-family="sans-serif" font-size="11" lengthAdjust="spacing" textLength="111" x="595.58" y="406.0151">IStorages Storages</text><text fill="#000000" font-family="sans-serif" font-size="11" lengthAdjust="spacing" textLength="123" x="595.58" y="418.8198">IMovement Movement</text><line style="stroke:#A80036;stroke-width:1.5;" x1="590.58" x2="810.58" y1="425.4141" y2="425.4141"/><text fill="#000000" font-family="sans-serif" font-size="11" lengthAdjust="spacing" textLength="210" x="595.58" y="439.6245">From(storage :IStorage) : IMovement</text><!--MD5=[5d2945def2d575c1f907a7f09ba34b55]
class IStorages--><rect codeLine="75" fill="#FEFECE" filter="url(#f1tpbmltexoe4d)" height="112.0234" id="IStorages" style="stroke:#A80036;stroke-width:1.5;" width="444" x="57.58" y="536"/><ellipse cx="245.33" cy="552" fill="#B4A7E5" rx="11" ry="11" style="stroke:#A80036;stroke-width:1.0;"/><path d="M241.2519,547.7656 L241.2519,545.6094 L248.6425,545.6094 L248.6425,547.7656 L246.1737,547.7656 L246.1737,555.8438 L248.6425,555.8438 L248.6425,558 L241.2519,558 L241.2519,555.8438 L243.7206,555.8438 L243.7206,547.7656 L241.2519,547.7656 Z " fill="#000000"/><text fill="#000000" font-family="sans-serif" font-size="12" font-style="italic" lengthAdjust="spacing" textLength="60" x="265.83" y="556.1543">IStorages</text><line style="stroke:#A80036;stroke-width:1.5;" x1="58.58" x2="500.58" y1="568" y2="568"/><text fill="#000000" font-family="sans-serif" font-size="11" lengthAdjust="spacing" textLength="162" x="63.58" y="582.2104">IEntities&lt;IStorage&gt; PutAway</text><text fill="#000000" font-family="sans-serif" font-size="11" lengthAdjust="spacing" textLength="142" x="63.58" y="595.0151">IEntities&lt;IStorage&gt; Race</text><text fill="#000000" font-family="sans-serif" font-size="11" lengthAdjust="spacing" textLength="161" x="63.58" y="607.8198">IEntities&lt;IStorage&gt; Reserve</text><line style="stroke:#A80036;stroke-width:1.5;" x1="58.58" x2="500.58" y1="614.4141" y2="614.4141"/><ellipse cx="68.58" cy="625.4141" fill="#84BE84" rx="3" ry="3" style="stroke:#038048;stroke-width:1.0;"/><text fill="#000000" font-family="sans-serif" font-size="11" lengthAdjust="spacing" textLength="269" x="77.58" y="628.6245">ByBarcodeAsync(ean: string) : Task&lt;IStorage&gt;</text><ellipse cx="68.58" cy="638.2188" fill="#84BE84" rx="3" ry="3" style="stroke:#038048;stroke-width:1.0;"/><text fill="#000000" font-family="sans-serif" font-size="11" lengthAdjust="spacing" textLength="418" x="77.58" y="641.4292">ByBarcodeAsync(warehouse : IWarehouse, ean: string) : Task&lt;IStorage&gt;</text><!--MD5=[e8cfd755308414781c0123d0000bbf77]
class IStorage--><rect codeLine="84" fill="#FEFECE" filter="url(#f1tpbmltexoe4d)" height="112.0234" id="IStorage" style="stroke:#A80036;stroke-width:1.5;" width="335" x="112.08" y="738"/><ellipse cx="248.83" cy="754" fill="#B4A7E5" rx="11" ry="11" style="stroke:#A80036;stroke-width:1.0;"/><path d="M244.7519,749.7656 L244.7519,747.6094 L252.1425,747.6094 L252.1425,749.7656 L249.6738,749.7656 L249.6738,757.8438 L252.1425,757.8438 L252.1425,760 L244.7519,760 L244.7519,757.8438 L247.2206,757.8438 L247.2206,749.7656 L244.7519,749.7656 Z " fill="#000000"/><text fill="#000000" font-family="sans-serif" font-size="12" font-style="italic" lengthAdjust="spacing" textLength="53" x="269.33" y="758.1543">IStorage</text><line style="stroke:#A80036;stroke-width:1.5;" x1="113.08" x2="446.08" y1="770" y2="770"/><text fill="#000000" font-family="sans-serif" font-size="11" lengthAdjust="spacing" textLength="200" x="118.08" y="784.2104">IEntities&lt;IWarehouseGood&gt; Goods</text><line style="stroke:#A80036;stroke-width:1.5;" x1="113.08" x2="446.08" y1="790.8047" y2="790.8047"/><ellipse cx="123.08" cy="801.8047" fill="#84BE84" rx="3" ry="3" style="stroke:#038048;stroke-width:1.0;"/><text fill="#000000" font-family="sans-serif" font-size="11" lengthAdjust="spacing" textLength="297" x="132.08" y="805.0151">IncreaseAsync(good: IWarehouseGood, quantity: int)</text><ellipse cx="123.08" cy="814.6094" fill="#84BE84" rx="3" ry="3" style="stroke:#038048;stroke-width:1.0;"/><text fill="#000000" font-family="sans-serif" font-size="11" lengthAdjust="spacing" textLength="302" x="132.08" y="817.8198">DecreaseAsync(good: IWarehouseGood, quantity: int)</text><ellipse cx="123.08" cy="827.4141" fill="#84BE84" rx="3" ry="3" style="stroke:#038048;stroke-width:1.0;"/><text fill="#000000" font-family="sans-serif" font-size="11" lengthAdjust="spacing" textLength="297" x="132.08" y="830.6245">QuantityForAsync(goodBarcode : string) : Task&lt;int&gt;</text><ellipse cx="123.08" cy="840.2188" fill="#84BE84" rx="3" ry="3" style="stroke:#038048;stroke-width:1.0;"/><text fill="#000000" font-family="sans-serif" font-size="11" lengthAdjust="spacing" textLength="309" x="132.08" y="843.4292">QuantityForAsync(good: IWarehouseGood) : Task&lt;int&gt;</text><!--MD5=[0456f55dbd06482b22a5e5e10e73b231]
class IMovement--><rect codeLine="93" fill="#FEFECE" filter="url(#f1tpbmltexoe4d)" height="73.6094" id="IMovement" style="stroke:#A80036;stroke-width:1.5;" width="328" x="536.58" y="555"/><ellipse cx="662.83" cy="571" fill="#B4A7E5" rx="11" ry="11" style="stroke:#A80036;stroke-width:1.0;"/><path d="M658.7519,566.7656 L658.7519,564.6094 L666.1425,564.6094 L666.1425,566.7656 L663.6738,566.7656 L663.6738,574.8438 L666.1425,574.8438 L666.1425,577 L658.7519,577 L658.7519,574.8438 L661.2206,574.8438 L661.2206,566.7656 L658.7519,566.7656 Z " fill="#000000"/><text fill="#000000" font-family="sans-serif" font-size="12" font-style="italic" lengthAdjust="spacing" textLength="67" x="683.33" y="575.1543">IMovement</text><line style="stroke:#A80036;stroke-width:1.5;" x1="537.58" x2="863.58" y1="587" y2="587"/><line style="stroke:#A80036;stroke-width:1.5;" x1="537.58" x2="863.58" y1="595" y2="595"/><ellipse cx="547.58" cy="606" fill="#84BE84" rx="3" ry="3" style="stroke:#038048;stroke-width:1.0;"/><text fill="#000000" font-family="sans-serif" font-size="11" lengthAdjust="spacing" textLength="302" x="556.58" y="609.2104">MoveToAsync(storage: IStorage , quantity: int) : Task</text><ellipse cx="547.58" cy="618.8047" fill="#84BE84" rx="3" ry="3" style="stroke:#038048;stroke-width:1.0;"/><text fill="#000000" font-family="sans-serif" font-size="11" lengthAdjust="spacing" textLength="137" x="556.58" y="622.0151">From(storage: IStorage)</text><!--MD5=[0c0753e9631ff759b8e4cfc38d133815]
class IConfirmationState--><rect codeLine="98" fill="#FEFECE" filter="url(#f1tpbmltexoe4d)" height="60.8047" id="IConfirmationState" style="stroke:#A80036;stroke-width:1.5;" width="273" x="1059.08" y="1084"/><ellipse cx="1133.33" cy="1100" fill="#B4A7E5" rx="11" ry="11" style="stroke:#A80036;stroke-width:1.0;"/><path d="M1129.2519,1095.7656 L1129.2519,1093.6094 L1136.6425,1093.6094 L1136.6425,1095.7656 L1134.1738,1095.7656 L1134.1738,1103.8438 L1136.6425,1103.8438 L1136.6425,1106 L1129.2519,1106 L1129.2519,1103.8438 L1131.7206,1103.8438 L1131.7206,1095.7656 L1129.2519,1095.7656 Z " fill="#000000"/><text fill="#000000" font-family="sans-serif" font-size="12" font-style="italic" lengthAdjust="spacing" textLength="116" x="1153.83" y="1104.1543">IConfirmationState</text><line style="stroke:#A80036;stroke-width:1.5;" x1="1060.08" x2="1331.08" y1="1116" y2="1116"/><line style="stroke:#A80036;stroke-width:1.5;" x1="1060.08" x2="1331.08" y1="1124" y2="1124"/><ellipse cx="1070.08" cy="1135" fill="#84BE84" rx="3" ry="3" style="stroke:#038048;stroke-width:1.0;"/><text fill="#000000" font-family="sans-serif" font-size="11" lengthAdjust="spacing" textLength="247" x="1079.08" y="1138.2104">ToEnumAsync() : Task&lt;ConfirmationState&gt;</text><!--MD5=[49ef23f3df3a3bd53fb72f77ec9a58bc]
reverse link ICompany to ICustomer--><path codeLine="103" d="M457.36,129.07 C450.92,135.71 444.56,142.43 438.58,149 C420.77,168.56 401.79,191.95 388.43,208.91 " fill="none" id="ICompany-backto-ICustomer" style="stroke:#A80036;stroke-width:1.0;"/><polygon fill="#A80036" points="466.83,119.42,459.7713,120.8946,458.4175,127.9775,465.4763,126.5029,466.83,119.42" style="stroke:#A80036;stroke-width:1.0;"/><text fill="#000000" font-family="sans-serif" font-size="13" lengthAdjust="spacing" textLength="54" x="439.58" y="162.0669">contains</text><text fill="#000000" font-family="sans-serif" font-size="13" lengthAdjust="spacing" textLength="8" x="451.3042" y="139.2838">1</text><text fill="#000000" font-family="sans-serif" font-size="13" lengthAdjust="spacing" textLength="36" x="352.3916" y="197.899">many</text><!--MD5=[3409c9272a57e3b85ec3c1a63de29f9d]
reverse link ICompany to IUser--><path codeLine="104" d="M508.85,131.77 C502.5,159.1 495.61,188.81 490.98,208.73 " fill="none" id="ICompany-backto-IUser" style="stroke:#A80036;stroke-width:1.0;"/><polygon fill="#A80036" points="511.81,119.01,506.5551,123.9483,509.0924,130.6982,514.3473,125.76,511.81,119.01" style="stroke:#A80036;stroke-width:1.0;"/><text fill="#000000" font-family="sans-serif" font-size="13" lengthAdjust="spacing" textLength="54" x="505.58" y="162.0669">contains</text><text fill="#000000" font-family="sans-serif" font-size="13" lengthAdjust="spacing" textLength="8" x="501.6613" y="139.2211">1</text><text fill="#000000" font-family="sans-serif" font-size="13" lengthAdjust="spacing" textLength="36" x="451.9087" y="198.0691">many</text><!--MD5=[f8e4752c4ba4b88646ed7fb6a0542aa5]
reverse link ICompany to ISupplier--><path codeLine="105" d="M718.43,122.78 C807.26,149.72 908.66,180.47 981.18,202.46 " fill="none" id="ICompany-backto-ISupplier" style="stroke:#A80036;stroke-width:1.0;"/><polygon fill="#A80036" points="705.98,119.01,710.5618,124.5784,717.4641,122.4908,712.8823,116.9224,705.98,119.01" style="stroke:#A80036;stroke-width:1.0;"/><text fill="#000000" font-family="sans-serif" font-size="13" lengthAdjust="spacing" textLength="54" x="852.58" y="162.0669">contains</text><text fill="#000000" font-family="sans-serif" font-size="13" lengthAdjust="spacing" textLength="8" x="720.7094" y="139.2211">1</text><text fill="#000000" font-family="sans-serif" font-size="13" lengthAdjust="spacing" textLength="36" x="934.9022" y="196.1536">many</text><!--MD5=[a2fb562cbc050e676760d92a3e1f45c5]
reverse link ICompany to IWarehouse--><path codeLine="106" d="M591.67,128.04 C615.76,151.03 642.07,176.15 662.8,195.93 " fill="none" id="ICompany-backto-IWarehouse" style="stroke:#A80036;stroke-width:1.0;"/><polygon fill="#A80036" points="582.21,119.01,583.7885,126.0462,590.8906,127.2954,589.3121,120.2592,582.21,119.01" style="stroke:#A80036;stroke-width:1.0;"/><!--MD5=[28bf3e847e616c01aba3563ed8474867]
reverse link ISupplier to IReception--><path codeLine="108" d="M1103.11,274.84 C1117.51,298.82 1135.69,329.08 1150.23,353.29 " fill="none" id="ISupplier-backto-IReception" style="stroke:#A80036;stroke-width:1.0;"/><polygon fill="#A80036" points="1096.37,263.62,1096.0338,270.8233,1102.5536,273.9041,1102.8899,266.7008,1096.37,263.62" style="stroke:#A80036;stroke-width:1.0;"/><text fill="#000000" font-family="sans-serif" font-size="13" lengthAdjust="spacing" textLength="54" x="1128.58" y="313.0669">contains</text><text fill="#000000" font-family="sans-serif" font-size="13" lengthAdjust="spacing" textLength="8" x="1091.2142" y="283.583">1</text><text fill="#000000" font-family="sans-serif" font-size="13" lengthAdjust="spacing" textLength="36" x="1107.592" y="342.5704">many</text><!--MD5=[3114d429e70eb9ea4e85c37a4be4a027]
reverse link IReception to IReceptionGood--><path codeLine="110" d="M1312.28,445.63 C1346.04,464.36 1378.09,489.59 1397.58,523 C1438.46,593.07 1397.53,687.66 1364.67,744.28 " fill="none" id="IReception-backto-IReceptionGood" style="stroke:#A80036;stroke-width:1.0;"/><polygon fill="#A80036" points="1300.78,439.52,1304.2028,445.867,1311.3781,445.1486,1307.9552,438.8016,1300.78,439.52" style="stroke:#A80036;stroke-width:1.0;"/><text fill="#000000" font-family="sans-serif" font-size="13" lengthAdjust="spacing" textLength="54" x="1416.58" y="596.5669">contains</text><text fill="#000000" font-family="sans-serif" font-size="13" lengthAdjust="spacing" textLength="8" x="1312.8538" y="459.931">1</text><text fill="#000000" font-family="sans-serif" font-size="13" lengthAdjust="spacing" textLength="36" x="1330.6514" y="733.2943">many</text><!--MD5=[509c9ed52fc692f77ea0404119c24070]
reverse link IReception to IConfirmation--><path codeLine="111" d="M1163.92,453.01 C1162.7,474.77 1162.5,499.94 1163.34,522.78 " fill="none" id="IReception-backto-IConfirmation" style="stroke:#A80036;stroke-width:1.0;"/><polygon fill="#A80036" points="1164.82,439.96,1160.4206,445.6736,1164.0025,451.9321,1168.402,446.2186,1164.82,439.96" style="stroke:#A80036;stroke-width:1.0;"/><!--MD5=[604ed2183890d1102fa6d4663ca609c1]
reverse link IConfirmation to IReception--><path codeLine="114" d="M1188.93,509.64 C1189.41,485.68 1188.76,460.43 1186.98,439.96 " fill="none" id="IConfirmation-backto-IReception" style="stroke:#A80036;stroke-width:1.0;"/><polygon fill="#A80036" points="1188.55,522.78,1192.7264,516.9014,1188.9063,510.7853,1184.7299,516.6639,1188.55,522.78" style="stroke:#A80036;stroke-width:1.0;"/><!--MD5=[29094d67ba3ce8e58301e9be5089caf9]
reverse link IReceptionGood to IGoodConfirmation--><path codeLine="112" d="M1320.28,856.7 C1319.6,874.35 1319.69,893.46 1320.57,910.7 " fill="none" id="IReceptionGood-backto-IGoodConfirmation" style="stroke:#A80036;stroke-width:1.0;"/><polygon fill="#A80036" points="1320.95,843.54,1316.6452,849.3252,1320.3297,855.524,1324.6345,849.7387,1320.95,843.54" style="stroke:#A80036;stroke-width:1.0;"/><!--MD5=[80acd0917db55519c5f0a6a68d6f3cde]
reverse link IGoodConfirmation to IReceptionGood--><path codeLine="120" d="M1345.84,897.47 C1346.36,879.42 1346.04,860.31 1344.89,843.54 " fill="none" id="IGoodConfirmation-backto-IReceptionGood" style="stroke:#A80036;stroke-width:1.0;"/><polygon fill="#A80036" points="1345.3,910.7,1349.5407,904.8676,1345.788,898.7099,1341.5473,904.5423,1345.3,910.7" style="stroke:#A80036;stroke-width:1.0;"/><!--MD5=[cf2bcbcd180f2622383404a95915bc40]
reverse link IConfirmation to IConfirmationState--><path codeLine="115" d="M1178.7,674.26 C1183.24,792.33 1191.44,1005.73 1194.44,1083.84 " fill="none" id="IConfirmation-backto-IConfirmationState" style="stroke:#A80036;stroke-width:1.0;"/><polygon fill="#A80036" points="1178.2,661.05,1174.4338,667.1995,1178.6617,673.0411,1182.4279,666.8917,1178.2,661.05" style="stroke:#A80036;stroke-width:1.0;"/><!--MD5=[97b88ed7fff08738c69bc2b228524978]
reverse link IConfirmation to IReceptionGood--><path codeLine="116" d="M1237.32,671.64 C1256.55,696.15 1277.19,722.44 1294.33,744.27 " fill="none" id="IConfirmation-backto-IReceptionGood" style="stroke:#A80036;stroke-width:1.0;"/><polygon fill="#A80036" points="1229.17,661.27,1229.7219,668.46,1236.571,670.7159,1236.0191,663.5259,1229.17,661.27" style="stroke:#A80036;stroke-width:1.0;"/><text fill="#000000" font-family="sans-serif" font-size="13" lengthAdjust="spacing" textLength="54" x="1264.58" y="704.0669">contains</text><text fill="#000000" font-family="sans-serif" font-size="13" lengthAdjust="spacing" textLength="8" x="1225.8965" y="680.6779">1</text><text fill="#000000" font-family="sans-serif" font-size="13" lengthAdjust="spacing" textLength="36" x="1250.4198" y="733.2829">many</text><!--MD5=[db6cd7534cdc2d171f04874d87426579]
reverse link IGoodConfirmation to IConfirmationState--><path codeLine="119" d="M1271.58,1032.78 C1254.85,1050.55 1237.52,1068.96 1223.64,1083.7 " fill="none" id="IGoodConfirmation-backto-IConfirmationState" style="stroke:#A80036;stroke-width:1.0;"/><polygon fill="#A80036" points="1280.79,1023.01,1273.765,1024.6377,1272.5656,1031.7484,1279.5906,1030.1207,1280.79,1023.01" style="stroke:#A80036;stroke-width:1.0;"/><!--MD5=[c2a2b94348eefffd3dfd68d75af7c4f6]
reverse link IWarehouse to IWarehouseGood--><path codeLine="122" d="M700.58,283.3 C700.58,303.46 700.58,326.72 700.58,346.82 " fill="none" id="IWarehouse-backto-IWarehouseGood" style="stroke:#A80036;stroke-width:1.0;"/><polygon fill="#A80036" points="700.58,270.24,696.58,276.24,700.58,282.24,704.58,276.24,700.58,270.24" style="stroke:#A80036;stroke-width:1.0;"/><text fill="#000000" font-family="sans-serif" font-size="13" lengthAdjust="spacing" textLength="54" x="701.58" y="313.0669">contains</text><text fill="#000000" font-family="sans-serif" font-size="13" lengthAdjust="spacing" textLength="8" x="691.9175" y="289.7603">1</text><text fill="#000000" font-family="sans-serif" font-size="13" lengthAdjust="spacing" textLength="36" x="662.0488" y="335.8399">many</text><!--MD5=[df76e01b0366ca21ffded64e8ea6dbe1]
reverse link IWarehouse to IStorage--><path codeLine="123" d="M565.13,273.95 C389.91,328.69 99.94,430.74 39.58,523 C6,574.33 8.36,608.2 39.58,661 C58.88,693.64 89.45,718.76 122.39,737.87 " fill="none" id="IWarehouse-backto-IStorage" style="stroke:#A80036;stroke-width:1.0;"/><polygon fill="#A80036" points="577.8,270.01,570.8834,267.9704,566.3404,273.5705,573.257,275.6101,577.8,270.01" style="stroke:#A80036;stroke-width:1.0;"/><text fill="#000000" font-family="sans-serif" font-size="13" lengthAdjust="spacing" textLength="54" x="89.58" y="489.0669">contains</text><text fill="#000000" font-family="sans-serif" font-size="13" lengthAdjust="spacing" textLength="8" x="548.0097" y="289.772">1</text><text fill="#000000" font-family="sans-serif" font-size="13" lengthAdjust="spacing" textLength="36" x="68.3235" y="728.3807">many</text><!--MD5=[4667dece3e8a471b49a58c61e44cb430]
reverse link IWarehouseGood to IStorages--><path codeLine="124" d="M582.86,451.61 C525.63,477.91 456.97,509.47 399.46,535.9 " fill="none" id="IWarehouseGood-backto-IStorages" style="stroke:#A80036;stroke-width:1.0;"/><polygon fill="#A80036" points="594.89,446.08,587.7679,444.9505,583.986,451.0903,591.1081,452.2198,594.89,446.08" style="stroke:#A80036;stroke-width:1.0;"/><!--MD5=[270475b1514bebc36fb887f08344bc8f]
reverse link IWarehouseGood to IMovement--><path codeLine="125" d="M700.58,459.41 C700.58,490.84 700.58,527.93 700.58,554.71 " fill="none" id="IWarehouseGood-backto-IMovement" style="stroke:#A80036;stroke-width:1.0;"/><polygon fill="#A80036" points="700.58,446.33,696.58,452.33,700.58,458.33,704.58,452.33,700.58,446.33" style="stroke:#A80036;stroke-width:1.0;"/><!--MD5=[f30aaba99780cef93244cc40d4fa0a73]
reverse link IStorages to IStorage--><path codeLine="126" d="M279.58,661.34 C279.58,686.35 279.58,714.3 279.58,738 " fill="none" id="IStorages-backto-IStorage" style="stroke:#A80036;stroke-width:1.0;"/><polygon fill="#A80036" points="279.58,648.18,275.58,654.18,279.58,660.18,283.58,654.18,279.58,648.18" style="stroke:#A80036;stroke-width:1.0;"/><text fill="#000000" font-family="sans-serif" font-size="13" lengthAdjust="spacing" textLength="54" x="280.58" y="704.0669">contains</text><text fill="#000000" font-family="sans-serif" font-size="13" lengthAdjust="spacing" textLength="8" x="271.0925" y="668.0146">1</text><text fill="#000000" font-family="sans-serif" font-size="13" lengthAdjust="spacing" textLength="36" x="241.2738" y="726.938">many</text><!--MD5=[1d3d5cc7aa38798341a29112766230bd]
reverse link IStorage to IWarehouseGood--><path codeLine="127" d="M460.58,777.95 C618.18,760.65 829.39,725.87 881.58,661 C920.03,613.21 910.03,577.34 881.58,523 C864.82,490.99 835.77,465.51 805.79,446.1 " fill="none" id="IStorage-backto-IWarehouseGood" style="stroke:#A80036;stroke-width:1.0;"/><polygon fill="#A80036" points="447.42,779.37,453.8121,782.7078,459.3517,778.0911,452.9595,774.7533,447.42,779.37" style="stroke:#A80036;stroke-width:1.0;"/><!--MD5=[11f2e02036e76e935767c1051cfb7f3b]
@startuml
interface       ICompany
{
  IEntities<ICustomer> Customers
  IEntities<IUser> Users
  IWarehouse Warehouse
  IEntities<ISupplier> Suppliers
  +LoginAsync(userName: string , password:string) : Task<IUser>
}

interface       IEntities
{
  +ToListAsync() : Task<IList<TEntity>> 
  +With(filter : IFilter) : IEntities<TEntity> 
}

interface       ICustomer
interface       IUser
interface       IWarehouse
{
  IEntities<IWarehouseGood> Goods

  +ByBarcodeAsync(ean: string) : Task<IStorage>
}
interface       ISupplier
{
  IEntities<IReception> Receptions
}
interface       IReception
{
  IEntities<IReceptionGood> Goods

  +ValidateAsync(goodsToValidate: IList<IGoodConfirmation>) : Task
  +Confirmation() : IConfirmation
}

interface     IConfirmation
{
  IReception Reception
  IConfirmationState State

  +AddAsync(goodToAdd : IReceptionGood , quantity : int ) : Task
  +RemoveAsync(goodToRemove: IReceptionGood , quantity: int): Task
  +CommitAsync() : Task
  +ToListAsync(): Task<List<IGoodConfirmation>> 
  +ClearAsync(): Task
}

interface       IReceptionGood
{
  int Quantity
  IGoodConfirmation Confirmation
  
  +ConfirmedAsync() : Task<bool> 
  +Clear() : IReceptionGood
}
interface       IGoodConfirmation
{
  IReceptionGood Good
  IConfirmationState State
  
  +int Increase(quantity :int)
  +int Decrease(quantity :int)
  +void Clear()
}

interface     IWarehouseGood
{
  int Quantity
  IStorages Storages
  IMovement Movement
  
  From(storage :IStorage) : IMovement
}

interface     IStorages
{
  IEntities<IStorage> PutAway
  IEntities<IStorage> Race
  IEntities<IStorage> Reserve
  
  +ByBarcodeAsync(ean: string) : Task<IStorage>
  +ByBarcodeAsync(warehouse : IWarehouse, ean: string) : Task<IStorage> 
}
interface     IStorage
{
  IEntities<IWarehouseGood> Goods

  +IncreaseAsync(good: IWarehouseGood, quantity: int)
  +DecreaseAsync(good: IWarehouseGood, quantity: int)
  +QuantityForAsync(goodBarcode : string) : Task<int>
  +QuantityForAsync(good: IWarehouseGood) : Task<int>
}
interface     IMovement
{
  +MoveToAsync(storage: IStorage , quantity: int) : Task
  +From(storage: IStorage)
}
interface     IConfirmationState
{
  +ToEnumAsync() : Task<ConfirmationState>
}

ICompany "1" *- - "many" ICustomer : contains
ICompany "1" *- - "many" IUser : contains
ICompany "1" *- - "many" ISupplier : contains
ICompany *- - IWarehouse

ISupplier "1" *- - "many" IReception : contains

IReception "1" *- - "many" IReceptionGood : contains
IReception *- - IConfirmation
IReceptionGood *- - IGoodConfirmation

IConfirmation *- - IReception
IConfirmation *- - IConfirmationState
IConfirmation "1" *- - "many" IReceptionGood : contains


IGoodConfirmation *- - IConfirmationState
IGoodConfirmation *- - IReceptionGood

IWarehouse "1" *- - "many" IWarehouseGood : contains
IWarehouse "1" *- - "many" IStorage : contains
IWarehouseGood *- - IStorages
IWarehouseGood *- - IMovement
IStorages "1" *- - "many" IStorage : contains
IStorage *- - IWarehouseGood
@enduml

PlantUML version 1.2021.16(Wed Dec 08 17:25:22 UTC 2021)
(GPL source distribution)
Java Runtime: OpenJDK Runtime Environment
JVM: OpenJDK 64-Bit Server VM
Default Encoding: UTF-8
Language: en
Country: US
--></g></svg>