<?xml version="1.0" encoding="UTF-8" standalone="no"?><svg xmlns="http://www.w3.org/2000/svg" xmlns:xlink="http://www.w3.org/1999/xlink" contentScriptType="application/ecmascript" contentStyleType="text/css" height="765px" preserveAspectRatio="none" style="width:521px;height:765px;background:#FFFFFF;" version="1.1" viewBox="0 0 521 765" width="521px" zoomAndPan="magnify"><defs><filter height="300%" id="fpt1hvx145e2f" width="300%" x="-1" y="-1"><feGaussianBlur result="blurOut" stdDeviation="2.0"/><feColorMatrix in="blurOut" result="blurOut2" type="matrix" values="0 0 0 0 0 0 0 0 0 0 0 0 0 0 0 0 0 0 .4 0"/><feOffset dx="4.0" dy="4.0" in="blurOut2" result="blurOut3"/><feBlend in="SourceGraphic" in2="blurOut3" mode="normal"/></filter></defs><g><!--MD5=[174cc1f4f4efb3e1302c3f0922d8a9c1]
class ICompany--><rect codeLine="1" fill="#FEFECE" filter="url(#fpt1hvx145e2f)" height="60.8047" id="ICompany" style="stroke:#A80036;stroke-width:1.5;" width="97" x="160" y="7"/><ellipse cx="177.25" cy="23" fill="#B4A7E5" rx="11" ry="11" style="stroke:#A80036;stroke-width:1.0;"/><path d="M173.1719,18.7656 L173.1719,16.6094 L180.5625,16.6094 L180.5625,18.7656 L178.0938,18.7656 L178.0938,26.8438 L180.5625,26.8438 L180.5625,29 L173.1719,29 L173.1719,26.8438 L175.6406,26.8438 L175.6406,18.7656 L173.1719,18.7656 Z " fill="#000000"/><text fill="#000000" font-family="sans-serif" font-size="12" font-style="italic" lengthAdjust="spacing" textLength="60" x="191.75" y="27.1543">ICompany</text><line style="stroke:#A80036;stroke-width:1.5;" x1="161" x2="256" y1="39" y2="39"/><line style="stroke:#A80036;stroke-width:1.5;" x1="161" x2="256" y1="47" y2="47"/><ellipse cx="171" cy="58" fill="#84BE84" rx="3" ry="3" style="stroke:#038048;stroke-width:1.0;"/><text fill="#000000" font-family="sans-serif" font-size="11" lengthAdjust="spacing" textLength="71" x="180" y="61.2104">LoginAsync()</text><!--MD5=[fa61f9393a6e78a1f0a5db506689f6f2]
class ICustomer--><rect codeLine="5" fill="#FEFECE" filter="url(#fpt1hvx145e2f)" height="48" id="ICustomer" style="stroke:#A80036;stroke-width:1.5;" width="95" x="7" y="145"/><ellipse cx="22" cy="161" fill="#B4A7E5" rx="11" ry="11" style="stroke:#A80036;stroke-width:1.0;"/><path d="M17.9219,156.7656 L17.9219,154.6094 L25.3125,154.6094 L25.3125,156.7656 L22.8438,156.7656 L22.8438,164.8438 L25.3125,164.8438 L25.3125,167 L17.9219,167 L17.9219,164.8438 L20.3906,164.8438 L20.3906,156.7656 L17.9219,156.7656 Z " fill="#000000"/><text fill="#000000" font-family="sans-serif" font-size="12" font-style="italic" lengthAdjust="spacing" textLength="63" x="36" y="165.1543">ICustomer</text><line style="stroke:#A80036;stroke-width:1.5;" x1="8" x2="101" y1="177" y2="177"/><line style="stroke:#A80036;stroke-width:1.5;" x1="8" x2="101" y1="185" y2="185"/><!--MD5=[4397ba3f25468a58f081bf0666d83f60]
class IUser--><rect codeLine="6" fill="#FEFECE" filter="url(#fpt1hvx145e2f)" height="48" id="IUser" style="stroke:#A80036;stroke-width:1.5;" width="64" x="137.5" y="145"/><ellipse cx="152.5" cy="161" fill="#B4A7E5" rx="11" ry="11" style="stroke:#A80036;stroke-width:1.0;"/><path d="M148.4219,156.7656 L148.4219,154.6094 L155.8125,154.6094 L155.8125,156.7656 L153.3438,156.7656 L153.3438,164.8438 L155.8125,164.8438 L155.8125,167 L148.4219,167 L148.4219,164.8438 L150.8906,164.8438 L150.8906,156.7656 L148.4219,156.7656 Z " fill="#000000"/><text fill="#000000" font-family="sans-serif" font-size="12" font-style="italic" lengthAdjust="spacing" textLength="32" x="166.5" y="165.1543">IUser</text><line style="stroke:#A80036;stroke-width:1.5;" x1="138.5" x2="200.5" y1="177" y2="177"/><line style="stroke:#A80036;stroke-width:1.5;" x1="138.5" x2="200.5" y1="185" y2="185"/><!--MD5=[72ebdb76e9db27ec466b32e588ae4e81]
class IWarehouse--><rect codeLine="7" fill="#FEFECE" filter="url(#fpt1hvx145e2f)" height="48" id="IWarehouse" style="stroke:#A80036;stroke-width:1.5;" width="106" x="236.5" y="145"/><ellipse cx="251.5" cy="161" fill="#B4A7E5" rx="11" ry="11" style="stroke:#A80036;stroke-width:1.0;"/><path d="M247.4219,156.7656 L247.4219,154.6094 L254.8125,154.6094 L254.8125,156.7656 L252.3438,156.7656 L252.3438,164.8438 L254.8125,164.8438 L254.8125,167 L247.4219,167 L247.4219,164.8438 L249.8906,164.8438 L249.8906,156.7656 L247.4219,156.7656 Z " fill="#000000"/><text fill="#000000" font-family="sans-serif" font-size="12" font-style="italic" lengthAdjust="spacing" textLength="74" x="265.5" y="165.1543">IWarehouse</text><line style="stroke:#A80036;stroke-width:1.5;" x1="237.5" x2="341.5" y1="177" y2="177"/><line style="stroke:#A80036;stroke-width:1.5;" x1="237.5" x2="341.5" y1="185" y2="185"/><!--MD5=[f7f4a9c734668113b597fe9b3e401ef0]
class ISupplier--><rect codeLine="8" fill="#FEFECE" filter="url(#fpt1hvx145e2f)" height="48" id="ISupplier" style="stroke:#A80036;stroke-width:1.5;" width="86" x="384.5" y="145"/><ellipse cx="399.5" cy="161" fill="#B4A7E5" rx="11" ry="11" style="stroke:#A80036;stroke-width:1.0;"/><path d="M395.4219,156.7656 L395.4219,154.6094 L402.8125,154.6094 L402.8125,156.7656 L400.3438,156.7656 L400.3438,164.8438 L402.8125,164.8438 L402.8125,167 L395.4219,167 L395.4219,164.8438 L397.8906,164.8438 L397.8906,156.7656 L395.4219,156.7656 Z " fill="#000000"/><text fill="#000000" font-family="sans-serif" font-size="12" font-style="italic" lengthAdjust="spacing" textLength="54" x="413.5" y="165.1543">ISupplier</text><line style="stroke:#A80036;stroke-width:1.5;" x1="385.5" x2="469.5" y1="177" y2="177"/><line style="stroke:#A80036;stroke-width:1.5;" x1="385.5" x2="469.5" y1="185" y2="185"/><!--MD5=[97030263585a0ee0e093ee1c379493c2]
class IReception--><rect codeLine="9" fill="#FEFECE" filter="url(#fpt1hvx145e2f)" height="60.8047" id="IReception" style="stroke:#A80036;stroke-width:1.5;" width="112" x="375.5" y="270"/><ellipse cx="396.8" cy="286" fill="#B4A7E5" rx="11" ry="11" style="stroke:#A80036;stroke-width:1.0;"/><path d="M392.7219,281.7656 L392.7219,279.6094 L400.1125,279.6094 L400.1125,281.7656 L397.6438,281.7656 L397.6438,289.8438 L400.1125,289.8438 L400.1125,292 L392.7219,292 L392.7219,289.8438 L395.1906,289.8438 L395.1906,281.7656 L392.7219,281.7656 Z " fill="#000000"/><text fill="#000000" font-family="sans-serif" font-size="12" font-style="italic" lengthAdjust="spacing" textLength="66" x="412.2" y="290.1543">IReception</text><line style="stroke:#A80036;stroke-width:1.5;" x1="376.5" x2="486.5" y1="302" y2="302"/><line style="stroke:#A80036;stroke-width:1.5;" x1="376.5" x2="486.5" y1="310" y2="310"/><ellipse cx="386.5" cy="321" fill="#84BE84" rx="3" ry="3" style="stroke:#038048;stroke-width:1.0;"/><text fill="#000000" font-family="sans-serif" font-size="11" lengthAdjust="spacing" textLength="86" x="395.5" y="324.2104">ValidateAsync()</text><!--MD5=[7a63f56ae3ca9cb817a43269df786bdd]
class IReceptionGood--><rect codeLine="13" fill="#FEFECE" filter="url(#fpt1hvx145e2f)" height="60.8047" id="IReceptionGood" style="stroke:#A80036;stroke-width:1.5;" width="131" x="366" y="408"/><ellipse cx="381" cy="424" fill="#B4A7E5" rx="11" ry="11" style="stroke:#A80036;stroke-width:1.0;"/><path d="M376.9219,419.7656 L376.9219,417.6094 L384.3125,417.6094 L384.3125,419.7656 L381.8438,419.7656 L381.8438,427.8438 L384.3125,427.8438 L384.3125,430 L376.9219,430 L376.9219,427.8438 L379.3906,427.8438 L379.3906,419.7656 L376.9219,419.7656 Z " fill="#000000"/><text fill="#000000" font-family="sans-serif" font-size="12" font-style="italic" lengthAdjust="spacing" textLength="99" x="395" y="428.1543">IReceptionGood</text><line style="stroke:#A80036;stroke-width:1.5;" x1="367" x2="496" y1="440" y2="440"/><text fill="#000000" font-family="sans-serif" font-size="11" lengthAdjust="spacing" textLength="65" x="372" y="454.2104">int Quantity</text><line style="stroke:#A80036;stroke-width:1.5;" x1="367" x2="496" y1="460.8047" y2="460.8047"/><!--MD5=[1b9f8d1b33b627c9ed3b17acaadb8546]
class IGoodConfirmation--><rect codeLine="17" fill="#FEFECE" filter="url(#fpt1hvx145e2f)" height="112.0234" id="IGoodConfirmation" style="stroke:#A80036;stroke-width:1.5;" width="152" x="355.5" y="530"/><ellipse cx="372.75" cy="546" fill="#B4A7E5" rx="11" ry="11" style="stroke:#A80036;stroke-width:1.0;"/><path d="M368.6719,541.7656 L368.6719,539.6094 L376.0625,539.6094 L376.0625,541.7656 L373.5938,541.7656 L373.5938,549.8438 L376.0625,549.8438 L376.0625,552 L368.6719,552 L368.6719,549.8438 L371.1406,549.8438 L371.1406,541.7656 L368.6719,541.7656 Z " fill="#000000"/><text fill="#000000" font-family="sans-serif" font-size="12" font-style="italic" lengthAdjust="spacing" textLength="115" x="387.25" y="550.1543">IGoodConfirmation</text><line style="stroke:#A80036;stroke-width:1.5;" x1="356.5" x2="506.5" y1="562" y2="562"/><text fill="#000000" font-family="sans-serif" font-size="11" lengthAdjust="spacing" textLength="122" x="361.5" y="576.2104">IReceptionGood Good</text><text fill="#000000" font-family="sans-serif" font-size="11" lengthAdjust="spacing" textLength="140" x="361.5" y="589.0151">IConfirmationState State</text><line style="stroke:#A80036;stroke-width:1.5;" x1="356.5" x2="506.5" y1="595.6094" y2="595.6094"/><ellipse cx="366.5" cy="606.6094" fill="#84BE84" rx="3" ry="3" style="stroke:#038048;stroke-width:1.0;"/><text fill="#000000" font-family="sans-serif" font-size="11" lengthAdjust="spacing" textLength="75" x="375.5" y="609.8198">int Increase()</text><ellipse cx="366.5" cy="619.4141" fill="#84BE84" rx="3" ry="3" style="stroke:#038048;stroke-width:1.0;"/><text fill="#000000" font-family="sans-serif" font-size="11" lengthAdjust="spacing" textLength="80" x="375.5" y="622.6245">int Decrease()</text><ellipse cx="366.5" cy="632.2188" fill="#84BE84" rx="3" ry="3" style="stroke:#038048;stroke-width:1.0;"/><text fill="#000000" font-family="sans-serif" font-size="11" lengthAdjust="spacing" textLength="65" x="375.5" y="635.4292">void Clear()</text><!--MD5=[8fc521b70c28b9f085ea6418b28640a0]
class IWarehouseGood--><rect codeLine="27" fill="#FEFECE" filter="url(#fpt1hvx145e2f)" height="60.8047" id="IWarehouseGood" style="stroke:#A80036;stroke-width:1.5;" width="139" x="201" y="270"/><ellipse cx="216" cy="286" fill="#B4A7E5" rx="11" ry="11" style="stroke:#A80036;stroke-width:1.0;"/><path d="M211.9219,281.7656 L211.9219,279.6094 L219.3125,279.6094 L219.3125,281.7656 L216.8438,281.7656 L216.8438,289.8438 L219.3125,289.8438 L219.3125,292 L211.9219,292 L211.9219,289.8438 L214.3906,289.8438 L214.3906,281.7656 L211.9219,281.7656 Z " fill="#000000"/><text fill="#000000" font-family="sans-serif" font-size="12" font-style="italic" lengthAdjust="spacing" textLength="107" x="230" y="290.1543">IWarehouseGood</text><line style="stroke:#A80036;stroke-width:1.5;" x1="202" x2="339" y1="302" y2="302"/><text fill="#000000" font-family="sans-serif" font-size="11" lengthAdjust="spacing" textLength="65" x="207" y="316.2104">int Quantity</text><line style="stroke:#A80036;stroke-width:1.5;" x1="202" x2="339" y1="322.8047" y2="322.8047"/><!--MD5=[e8cfd755308414781c0123d0000bbf77]
class IStorage--><rect codeLine="32" fill="#FEFECE" filter="url(#fpt1hvx145e2f)" height="48" id="IStorage" style="stroke:#A80036;stroke-width:1.5;" width="85" x="107" y="414.5"/><ellipse cx="122" cy="430.5" fill="#B4A7E5" rx="11" ry="11" style="stroke:#A80036;stroke-width:1.0;"/><path d="M117.9219,426.2656 L117.9219,424.1094 L125.3125,424.1094 L125.3125,426.2656 L122.8438,426.2656 L122.8438,434.3438 L125.3125,434.3438 L125.3125,436.5 L117.9219,436.5 L117.9219,434.3438 L120.3906,434.3438 L120.3906,426.2656 L117.9219,426.2656 Z " fill="#000000"/><text fill="#000000" font-family="sans-serif" font-size="12" font-style="italic" lengthAdjust="spacing" textLength="53" x="136" y="434.6543">IStorage</text><line style="stroke:#A80036;stroke-width:1.5;" x1="108" x2="191" y1="446.5" y2="446.5"/><line style="stroke:#A80036;stroke-width:1.5;" x1="108" x2="191" y1="454.5" y2="454.5"/><!--MD5=[0456f55dbd06482b22a5e5e10e73b231]
class IMovement--><rect codeLine="33" fill="#FEFECE" filter="url(#fpt1hvx145e2f)" height="48" id="IMovement" style="stroke:#A80036;stroke-width:1.5;" width="99" x="227" y="414.5"/><ellipse cx="242" cy="430.5" fill="#B4A7E5" rx="11" ry="11" style="stroke:#A80036;stroke-width:1.0;"/><path d="M237.9219,426.2656 L237.9219,424.1094 L245.3125,424.1094 L245.3125,426.2656 L242.8438,426.2656 L242.8438,434.3438 L245.3125,434.3438 L245.3125,436.5 L237.9219,436.5 L237.9219,434.3438 L240.3906,434.3438 L240.3906,426.2656 L237.9219,426.2656 Z " fill="#000000"/><text fill="#000000" font-family="sans-serif" font-size="12" font-style="italic" lengthAdjust="spacing" textLength="67" x="256" y="434.6543">IMovement</text><line style="stroke:#A80036;stroke-width:1.5;" x1="228" x2="325" y1="446.5" y2="446.5"/><line style="stroke:#A80036;stroke-width:1.5;" x1="228" x2="325" y1="454.5" y2="454.5"/><!--MD5=[0c0753e9631ff759b8e4cfc38d133815]
class IConfirmationState--><rect codeLine="34" fill="#FEFECE" filter="url(#fpt1hvx145e2f)" height="48" id="IConfirmationState" style="stroke:#A80036;stroke-width:1.5;" width="148" x="357.5" y="703"/><ellipse cx="372.5" cy="719" fill="#B4A7E5" rx="11" ry="11" style="stroke:#A80036;stroke-width:1.0;"/><path d="M368.4219,714.7656 L368.4219,712.6094 L375.8125,712.6094 L375.8125,714.7656 L373.3438,714.7656 L373.3438,722.8438 L375.8125,722.8438 L375.8125,725 L368.4219,725 L368.4219,722.8438 L370.8906,722.8438 L370.8906,714.7656 L368.4219,714.7656 Z " fill="#000000"/><text fill="#000000" font-family="sans-serif" font-size="12" font-style="italic" lengthAdjust="spacing" textLength="116" x="386.5" y="723.1543">IConfirmationState</text><line style="stroke:#A80036;stroke-width:1.5;" x1="358.5" x2="504.5" y1="735" y2="735"/><line style="stroke:#A80036;stroke-width:1.5;" x1="358.5" x2="504.5" y1="743" y2="743"/><!--MD5=[49ef23f3df3a3bd53fb72f77ec9a58bc]
reverse link ICompany to ICustomer--><path codeLine="36" d="M148.8994,74.5362 C138.4328,81.8795 127.8944,89.8511 118.5,98 C102.0778,112.245 85.7039,130.5029 73.6291,144.9366 " fill="none" id="ICompany-backto-ICustomer" style="stroke:#A80036;stroke-width:1.0;"/><polygon fill="#A80036" points="159.7296,67.1302,152.519,67.2152,149.8241,73.9038,157.0347,73.8188,159.7296,67.1302" style="stroke:#A80036;stroke-width:1.0;"/><text fill="#000000" font-family="sans-serif" font-size="13" lengthAdjust="spacing" textLength="54" x="119.5" y="111.0669">contains</text><text fill="#000000" font-family="sans-serif" font-size="13" lengthAdjust="spacing" textLength="8" x="143.9789" y="67.4716">1</text><text fill="#000000" font-family="sans-serif" font-size="13" lengthAdjust="spacing" textLength="36" x="37.9184" y="133.9324">many</text><!--MD5=[3409c9272a57e3b85ec3c1a63de29f9d]
reverse link ICompany to IUser--><path codeLine="37" d="M192.1752,80.5312 C190.16,86.3681 188.2106,92.307 186.5,98 C181.8679,113.4161 177.6478,131.0103 174.571,144.8274 " fill="none" id="ICompany-backto-IUser" style="stroke:#A80036;stroke-width:1.0;"/><polygon fill="#A80036" points="196.6247,68.0512,190.8421,72.3594,192.5948,79.3543,198.3774,75.046,196.6247,68.0512" style="stroke:#A80036;stroke-width:1.0;"/><text fill="#000000" font-family="sans-serif" font-size="13" lengthAdjust="spacing" textLength="54" x="187.5" y="111.0669">contains</text><text fill="#000000" font-family="sans-serif" font-size="13" lengthAdjust="spacing" textLength="8" x="185.3504" y="88">1</text><text fill="#000000" font-family="sans-serif" font-size="13" lengthAdjust="spacing" textLength="36" x="135.2579" y="133.7952">many</text><!--MD5=[f8e4752c4ba4b88646ed7fb6a0542aa5]
reverse link ICompany to ISupplier--><path codeLine="38" d="M268.5007,73.5278 C306.347,96.2529 354.1853,124.9777 387.4554,144.955 " fill="none" id="ICompany-backto-ISupplier" style="stroke:#A80036;stroke-width:1.0;"/><polygon fill="#A80036" points="257.1032,66.6841,260.188,73.2021,267.391,72.8615,264.3063,66.3435,257.1032,66.6841" style="stroke:#A80036;stroke-width:1.0;"/><text fill="#000000" font-family="sans-serif" font-size="13" lengthAdjust="spacing" textLength="54" x="331.5" y="111.0669">contains</text><text fill="#000000" font-family="sans-serif" font-size="13" lengthAdjust="spacing" textLength="8" x="265.1581" y="67.0965">1</text><text fill="#000000" font-family="sans-serif" font-size="13" lengthAdjust="spacing" textLength="36" x="340.3906" y="136.0213">many</text><!--MD5=[a2fb562cbc050e676760d92a3e1f45c5]
reverse link ICompany to IWarehouse--><path codeLine="39" d="M234.8567,79.2658 C238.7766,85.5343 242.7559,91.9298 246.5,98 C256.108,113.5769 266.7657,131.1723 275.0671,144.9499 " fill="none" id="ICompany-backto-IWarehouse" style="stroke:#A80036;stroke-width:1.0;"/><polygon fill="#A80036" points="227.9286,68.2175,227.7273,75.4258,234.3038,78.384,234.505,71.1757,227.9286,68.2175" style="stroke:#A80036;stroke-width:1.0;"/><!--MD5=[28bf3e847e616c01aba3563ed8474867]
reverse link ISupplier to IReception--><path codeLine="41" d="M428.6303,206.1577 C429.2393,226.1796 429.982,250.5944 430.5592,269.5704 " fill="none" id="ISupplier-backto-IReception" style="stroke:#A80036;stroke-width:1.0;"/><polygon fill="#A80036" points="428.2337,193.1191,424.4181,199.238,428.5987,205.1135,432.4144,198.9947,428.2337,193.1191" style="stroke:#A80036;stroke-width:1.0;"/><text fill="#000000" font-family="sans-serif" font-size="13" lengthAdjust="spacing" textLength="54" x="430.5" y="236.0669">contains</text><text fill="#000000" font-family="sans-serif" font-size="13" lengthAdjust="spacing" textLength="8" x="419.4375" y="212.9093">1</text><text fill="#000000" font-family="sans-serif" font-size="13" lengthAdjust="spacing" textLength="36" x="390.6527" y="258.745">many</text><!--MD5=[3114d429e70eb9ea4e85c37a4be4a027]
reverse link IReception to IReceptionGood--><path codeLine="43" d="M431.5,344.1574 C431.5,364.9107 431.5,389.2162 431.5,407.9589 " fill="none" id="IReception-backto-IReceptionGood" style="stroke:#A80036;stroke-width:1.0;"/><polygon fill="#A80036" points="431.5,331.1267,427.5,337.1267,431.5,343.1267,435.5,337.1267,431.5,331.1267" style="stroke:#A80036;stroke-width:1.0;"/><text fill="#000000" font-family="sans-serif" font-size="13" lengthAdjust="spacing" textLength="54" x="432.5" y="374.0669">contains</text><text fill="#000000" font-family="sans-serif" font-size="13" lengthAdjust="spacing" textLength="8" x="422.675" y="351.0911">1</text><text fill="#000000" font-family="sans-serif" font-size="13" lengthAdjust="spacing" textLength="36" x="391.5625" y="396.7402">many</text><!--MD5=[29094d67ba3ce8e58301e9be5089caf9]
reverse link IReceptionGood to IGoodConfirmation--><path codeLine="45" d="M431.5,482.1433 C431.5,497.0955 431.5,514.0409 431.5,529.8421 " fill="none" id="IReceptionGood-backto-IGoodConfirmation" style="stroke:#A80036;stroke-width:1.0;"/><polygon fill="#A80036" points="431.5,469.0621,427.5,475.0621,431.5,481.0621,435.5,475.0621,431.5,469.0621" style="stroke:#A80036;stroke-width:1.0;"/><!--MD5=[db6cd7534cdc2d171f04874d87426579]
reverse link IGoodConfirmation to IConfirmationState--><path codeLine="47" d="M431.5,655.3604 C431.5,672.3623 431.5,689.4526 431.5,702.6747 " fill="none" id="IGoodConfirmation-backto-IConfirmationState" style="stroke:#A80036;stroke-width:1.0;"/><polygon fill="#A80036" points="431.5,642.1321,427.5,648.1321,431.5,654.1321,435.5,648.1321,431.5,642.1321" style="stroke:#A80036;stroke-width:1.0;"/><!--MD5=[c2a2b94348eefffd3dfd68d75af7c4f6]
reverse link IWarehouse to IWarehouseGood--><path codeLine="49" d="M284.1312,206.1577 C281.2383,226.1796 277.7107,250.5944 274.9689,269.5704 " fill="none" id="IWarehouse-backto-IWarehouseGood" style="stroke:#A80036;stroke-width:1.0;"/><polygon fill="#A80036" points="286.0151,193.1191,281.1981,198.4854,284.299,204.9958,289.1159,199.6295,286.0151,193.1191" style="stroke:#A80036;stroke-width:1.0;"/><text fill="#000000" font-family="sans-serif" font-size="13" lengthAdjust="spacing" textLength="54" x="282.5" y="236.0669">contains</text><text fill="#000000" font-family="sans-serif" font-size="13" lengthAdjust="spacing" textLength="8" x="276.1907" y="212.9093">1</text><text fill="#000000" font-family="sans-serif" font-size="13" lengthAdjust="spacing" textLength="36" x="236.1781" y="258.745">many</text><!--MD5=[ae8ec709e6cb131111a58d86bb51f5fc]
reverse link IWarehouseGood to IStorage--><path codeLine="50" d="M228.5601,340.6442 C222.0313,347.3042 215.4754,354.244 209.5,361 C194.2813,378.2069 178.4281,398.818 166.8417,414.4578 " fill="none" id="IWarehouseGood-backto-IStorage" style="stroke:#A80036;stroke-width:1.0;"/><polygon fill="#A80036" points="238.0354,331.1409,230.9664,332.5655,229.5626,339.6386,236.6316,338.214,238.0354,331.1409" style="stroke:#A80036;stroke-width:1.0;"/><text fill="#000000" font-family="sans-serif" font-size="13" lengthAdjust="spacing" textLength="54" x="210.5" y="374.0669">contains</text><text fill="#000000" font-family="sans-serif" font-size="13" lengthAdjust="spacing" textLength="8" x="222.5146" y="351.1082">1</text><text fill="#000000" font-family="sans-serif" font-size="13" lengthAdjust="spacing" textLength="36" x="130.673" y="403.459">many</text><!--MD5=[270475b1514bebc36fb887f08344bc8f]
reverse link IWarehouseGood to IMovement--><path codeLine="51" d="M272.3992,344.1821 C273.4083,367.3899 274.6102,395.0342 275.451,414.3735 " fill="none" id="IWarehouseGood-backto-IMovement" style="stroke:#A80036;stroke-width:1.0;"/><polygon fill="#A80036" points="271.8316,331.1267,268.0961,337.2948,272.353,343.1154,276.0885,336.9472,271.8316,331.1267" style="stroke:#A80036;stroke-width:1.0;"/><!--MD5=[385ecb9df9d8ac1fde0b11e3581c4e60]
@startuml
interface       ICompany
{
  +LoginAsync()
}
interface       ICustomer
interface       IUser
interface       IWarehouse
interface       ISupplier
interface       IReception
{
  +ValidateAsync()
}
interface       IReceptionGood
{
  int Quantity
}
interface       IGoodConfirmation
{
  IReceptionGood Good
  IConfirmationState State
  
  +int Increase()
  +int Decrease()
  +void Clear()
}

interface     IWarehouseGood
{
  int Quantity
}

interface     IStorage
interface     IMovement
interface     IConfirmationState

ICompany "1" *- - "many" ICustomer : contains
ICompany "1" *- - "many" IUser : contains
ICompany "1" *- - "many" ISupplier : contains
ICompany *- - IWarehouse

ISupplier "1" *- - "many" IReception : contains

IReception "1" *- - "many" IReceptionGood : contains

IReceptionGood *- - IGoodConfirmation

IGoodConfirmation *- - IConfirmationState

IWarehouse "1" *- - "many" IWarehouseGood : contains
IWarehouseGood "1" *- - "many" IStorage : contains
IWarehouseGood *- - IMovement
@enduml

PlantUML version 1.2021.7(Sun May 23 12:40:07 UTC 2021)
(GPL source distribution)
Java Runtime: OpenJDK Runtime Environment
JVM: OpenJDK 64-Bit Server VM
Default Encoding: UTF-8
Language: en
Country: US
--></g></svg>