<?xml version="1.0" encoding="UTF-8" standalone="no"?><svg xmlns="http://www.w3.org/2000/svg" xmlns:xlink="http://www.w3.org/1999/xlink" contentScriptType="application/ecmascript" contentStyleType="text/css" height="1024px" preserveAspectRatio="none" style="width:1465px;height:1024px;background:#FFFFFF;" version="1.1" viewBox="0 0 1465 1024" width="1465px" zoomAndPan="magnify"><defs><filter height="300%" id="f1jhkftrhzjg6n" width="300%" x="-1" y="-1"><feGaussianBlur result="blurOut" stdDeviation="2.0"/><feColorMatrix in="blurOut" result="blurOut2" type="matrix" values="0 0 0 0 0 0 0 0 0 0 0 0 0 0 0 0 0 0 .4 0"/><feOffset dx="4.0" dy="4.0" in="blurOut2" result="blurOut3"/><feBlend in="SourceGraphic" in2="blurOut3" mode="normal"/></filter></defs><g><!--MD5=[174cc1f4f4efb3e1302c3f0922d8a9c1]
class ICompany--><rect codeLine="1" fill="#FEFECE" filter="url(#f1jhkftrhzjg6n)" height="112.0234" id="ICompany" style="stroke:#A80036;stroke-width:1.5;" width="389" x="330.0442" y="7"/><ellipse cx="490.2942" cy="23" fill="#B4A7E5" rx="11" ry="11" style="stroke:#A80036;stroke-width:1.0;"/><path d="M486.2161,18.7656 L486.2161,16.6094 L493.6067,16.6094 L493.6067,18.7656 L491.138,18.7656 L491.138,26.8438 L493.6067,26.8438 L493.6067,29 L486.2161,29 L486.2161,26.8438 L488.6848,26.8438 L488.6848,18.7656 L486.2161,18.7656 Z " fill="#000000"/><text fill="#000000" font-family="sans-serif" font-size="12" font-style="italic" lengthAdjust="spacing" textLength="60" x="510.7942" y="27.1543">ICompany</text><line style="stroke:#A80036;stroke-width:1.5;" x1="331.0442" x2="718.0442" y1="39" y2="39"/><text fill="#000000" font-family="sans-serif" font-size="11" lengthAdjust="spacing" textLength="189" x="336.0442" y="53.2104">IEntities&lt;ICustomer&gt; Customers</text><text fill="#000000" font-family="sans-serif" font-size="11" lengthAdjust="spacing" textLength="131" x="336.0442" y="66.0151">IEntities&lt;IUser&gt; Users</text><text fill="#000000" font-family="sans-serif" font-size="11" lengthAdjust="spacing" textLength="133" x="336.0442" y="78.8198">IWarehouse Warehouse</text><text fill="#000000" font-family="sans-serif" font-size="11" lengthAdjust="spacing" textLength="171" x="336.0442" y="91.6245">IEntities&lt;ISupplier&gt; Suppliers</text><line style="stroke:#A80036;stroke-width:1.5;" x1="331.0442" x2="718.0442" y1="98.2188" y2="98.2188"/><ellipse cx="341.0442" cy="109.2188" fill="#84BE84" rx="3" ry="3" style="stroke:#038048;stroke-width:1.0;"/><text fill="#000000" font-family="sans-serif" font-size="11" lengthAdjust="spacing" textLength="363" x="350.0442" y="112.4292">LoginAsync(userName: string , password:string) : Task&lt;IUser&gt;</text><!--MD5=[e3df29e2ec2ff7bb4b8995ee14292961]
class IEntities--><rect codeLine="10" fill="#FEFECE" filter="url(#f1jhkftrhzjg6n)" height="73.6094" id="IEntities" style="stroke:#A80036;stroke-width:1.5;" width="239" x="754.0442" y="26"/><ellipse cx="844.2942" cy="42" fill="#B4A7E5" rx="11" ry="11" style="stroke:#A80036;stroke-width:1.0;"/><path d="M840.2161,37.7656 L840.2161,35.6094 L847.6067,35.6094 L847.6067,37.7656 L845.1379,37.7656 L845.1379,45.8438 L847.6067,45.8438 L847.6067,48 L840.2161,48 L840.2161,45.8438 L842.6848,45.8438 L842.6848,37.7656 L840.2161,37.7656 Z " fill="#000000"/><text fill="#000000" font-family="sans-serif" font-size="12" font-style="italic" lengthAdjust="spacing" textLength="50" x="864.7942" y="46.1543">IEntities</text><line style="stroke:#A80036;stroke-width:1.5;" x1="755.0442" x2="992.0442" y1="58" y2="58"/><line style="stroke:#A80036;stroke-width:1.5;" x1="755.0442" x2="992.0442" y1="66" y2="66"/><ellipse cx="765.0442" cy="77" fill="#84BE84" rx="3" ry="3" style="stroke:#038048;stroke-width:1.0;"/><text fill="#000000" font-family="sans-serif" font-size="11" lengthAdjust="spacing" textLength="211" x="774.0442" y="80.2104">ToListAsync() : Task&lt;IList&lt;TEntity&gt;&gt;</text><ellipse cx="765.0442" cy="89.8047" fill="#84BE84" rx="3" ry="3" style="stroke:#038048;stroke-width:1.0;"/><text fill="#000000" font-family="sans-serif" font-size="11" lengthAdjust="spacing" textLength="213" x="774.0442" y="93.0151">With(filter : IFilter) : IEntities&lt;TEntity&gt;</text><!--MD5=[fa61f9393a6e78a1f0a5db506689f6f2]
class ICustomer--><rect codeLine="16" fill="#FEFECE" filter="url(#f1jhkftrhzjg6n)" height="48" id="ICustomer" style="stroke:#A80036;stroke-width:1.5;" width="95" x="323.0442" y="209"/><ellipse cx="338.0442" cy="225" fill="#B4A7E5" rx="11" ry="11" style="stroke:#A80036;stroke-width:1.0;"/><path d="M333.9661,220.7656 L333.9661,218.6094 L341.3567,218.6094 L341.3567,220.7656 L338.888,220.7656 L338.888,228.8438 L341.3567,228.8438 L341.3567,231 L333.9661,231 L333.9661,228.8438 L336.4348,228.8438 L336.4348,220.7656 L333.9661,220.7656 Z " fill="#000000"/><text fill="#000000" font-family="sans-serif" font-size="12" font-style="italic" lengthAdjust="spacing" textLength="63" x="352.0442" y="229.1543">ICustomer</text><line style="stroke:#A80036;stroke-width:1.5;" x1="324.0442" x2="417.0442" y1="241" y2="241"/><line style="stroke:#A80036;stroke-width:1.5;" x1="324.0442" x2="417.0442" y1="249" y2="249"/><!--MD5=[4397ba3f25468a58f081bf0666d83f60]
class IUser--><rect codeLine="17" fill="#FEFECE" filter="url(#f1jhkftrhzjg6n)" height="48" id="IUser" style="stroke:#A80036;stroke-width:1.5;" width="64" x="453.5442" y="209"/><ellipse cx="468.5442" cy="225" fill="#B4A7E5" rx="11" ry="11" style="stroke:#A80036;stroke-width:1.0;"/><path d="M464.4661,220.7656 L464.4661,218.6094 L471.8567,218.6094 L471.8567,220.7656 L469.388,220.7656 L469.388,228.8438 L471.8567,228.8438 L471.8567,231 L464.4661,231 L464.4661,228.8438 L466.9348,228.8438 L466.9348,220.7656 L464.4661,220.7656 Z " fill="#000000"/><text fill="#000000" font-family="sans-serif" font-size="12" font-style="italic" lengthAdjust="spacing" textLength="32" x="482.5442" y="229.1543">IUser</text><line style="stroke:#A80036;stroke-width:1.5;" x1="454.5442" x2="516.5442" y1="241" y2="241"/><line style="stroke:#A80036;stroke-width:1.5;" x1="454.5442" x2="516.5442" y1="249" y2="249"/><!--MD5=[72ebdb76e9db27ec466b32e588ae4e81]
class IWarehouse--><rect codeLine="18" fill="#FEFECE" filter="url(#f1jhkftrhzjg6n)" height="73.6094" id="IWarehouse" style="stroke:#A80036;stroke-width:1.5;" width="295" x="553.0442" y="196"/><ellipse cx="659.2942" cy="212" fill="#B4A7E5" rx="11" ry="11" style="stroke:#A80036;stroke-width:1.0;"/><path d="M655.2161,207.7656 L655.2161,205.6094 L662.6067,205.6094 L662.6067,207.7656 L660.1379,207.7656 L660.1379,215.8438 L662.6067,215.8438 L662.6067,218 L655.2161,218 L655.2161,215.8438 L657.6848,215.8438 L657.6848,207.7656 L655.2161,207.7656 Z " fill="#000000"/><text fill="#000000" font-family="sans-serif" font-size="12" font-style="italic" lengthAdjust="spacing" textLength="74" x="679.7942" y="216.1543">IWarehouse</text><line style="stroke:#A80036;stroke-width:1.5;" x1="554.0442" x2="847.0442" y1="228" y2="228"/><text fill="#000000" font-family="sans-serif" font-size="11" lengthAdjust="spacing" textLength="200" x="559.0442" y="242.2104">IEntities&lt;IWarehouseGood&gt; Goods</text><line style="stroke:#A80036;stroke-width:1.5;" x1="554.0442" x2="847.0442" y1="248.8047" y2="248.8047"/><ellipse cx="564.0442" cy="259.8047" fill="#84BE84" rx="3" ry="3" style="stroke:#038048;stroke-width:1.0;"/><text fill="#000000" font-family="sans-serif" font-size="11" lengthAdjust="spacing" textLength="269" x="573.0442" y="263.0151">ByBarcodeAsync(ean: string) : Task&lt;IStorage&gt;</text><!--MD5=[f7f4a9c734668113b597fe9b3e401ef0]
class ISupplier--><rect codeLine="24" fill="#FEFECE" filter="url(#f1jhkftrhzjg6n)" height="60.8047" id="ISupplier" style="stroke:#A80036;stroke-width:1.5;" width="199" x="915.0442" y="202.5"/><ellipse cx="983.2942" cy="218.5" fill="#B4A7E5" rx="11" ry="11" style="stroke:#A80036;stroke-width:1.0;"/><path d="M979.2161,214.2656 L979.2161,212.1094 L986.6067,212.1094 L986.6067,214.2656 L984.1379,214.2656 L984.1379,222.3438 L986.6067,222.3438 L986.6067,224.5 L979.2161,224.5 L979.2161,222.3438 L981.6848,222.3438 L981.6848,214.2656 L979.2161,214.2656 Z " fill="#000000"/><text fill="#000000" font-family="sans-serif" font-size="12" font-style="italic" lengthAdjust="spacing" textLength="54" x="1003.7942" y="222.6543">ISupplier</text><line style="stroke:#A80036;stroke-width:1.5;" x1="916.0442" x2="1113.0442" y1="234.5" y2="234.5"/><text fill="#000000" font-family="sans-serif" font-size="11" lengthAdjust="spacing" textLength="187" x="921.0442" y="248.7104">IEntities&lt;IReception&gt; Receptions</text><line style="stroke:#A80036;stroke-width:1.5;" x1="916.0442" x2="1113.0442" y1="255.3047" y2="255.3047"/><!--MD5=[97030263585a0ee0e093ee1c379493c2]
class IReception--><rect codeLine="28" fill="#FEFECE" filter="url(#f1jhkftrhzjg6n)" height="86.4141" id="IReception" style="stroke:#A80036;stroke-width:1.5;" width="400" x="946.5442" y="353.5"/><ellipse cx="1109.2942" cy="369.5" fill="#B4A7E5" rx="11" ry="11" style="stroke:#A80036;stroke-width:1.0;"/><path d="M1105.2161,365.2656 L1105.2161,363.1094 L1112.6067,363.1094 L1112.6067,365.2656 L1110.1379,365.2656 L1110.1379,373.3438 L1112.6067,373.3438 L1112.6067,375.5 L1105.2161,375.5 L1105.2161,373.3438 L1107.6848,373.3438 L1107.6848,365.2656 L1105.2161,365.2656 Z " fill="#000000"/><text fill="#000000" font-family="sans-serif" font-size="12" font-style="italic" lengthAdjust="spacing" textLength="66" x="1129.7942" y="373.6543">IReception</text><line style="stroke:#A80036;stroke-width:1.5;" x1="947.5442" x2="1345.5442" y1="385.5" y2="385.5"/><text fill="#000000" font-family="sans-serif" font-size="11" lengthAdjust="spacing" textLength="192" x="952.5442" y="399.7104">IEntities&lt;IReceptionGood&gt; Goods</text><line style="stroke:#A80036;stroke-width:1.5;" x1="947.5442" x2="1345.5442" y1="406.3047" y2="406.3047"/><ellipse cx="957.5442" cy="417.3047" fill="#84BE84" rx="3" ry="3" style="stroke:#038048;stroke-width:1.0;"/><text fill="#000000" font-family="sans-serif" font-size="11" lengthAdjust="spacing" textLength="374" x="966.5442" y="420.5151">ValidateAsync(goodsToValidate: IList&lt;IGoodConfirmation&gt;) : Task</text><ellipse cx="957.5442" cy="430.1094" fill="#84BE84" rx="3" ry="3" style="stroke:#038048;stroke-width:1.0;"/><text fill="#000000" font-family="sans-serif" font-size="11" lengthAdjust="spacing" textLength="169" x="966.5442" y="433.3198">Confirmation() : IConfirmation</text><!--MD5=[042910ce448c96a3f43e3022bbf01c0e]
class IConfirmation--><rect codeLine="36" fill="#FEFECE" filter="url(#f1jhkftrhzjg6n)" height="137.6328" id="IConfirmation" style="stroke:#A80036;stroke-width:1.5;" width="409" x="1042.0442" y="523"/><ellipse cx="1201.2942" cy="539" fill="#B4A7E5" rx="11" ry="11" style="stroke:#A80036;stroke-width:1.0;"/><path d="M1197.2161,534.7656 L1197.2161,532.6094 L1204.6067,532.6094 L1204.6067,534.7656 L1202.138,534.7656 L1202.138,542.8438 L1204.6067,542.8438 L1204.6067,545 L1197.2161,545 L1197.2161,542.8438 L1199.6848,542.8438 L1199.6848,534.7656 L1197.2161,534.7656 Z " fill="#000000"/><text fill="#000000" font-family="sans-serif" font-size="12" font-style="italic" lengthAdjust="spacing" textLength="82" x="1221.7942" y="543.1543">IConfirmation</text><line style="stroke:#A80036;stroke-width:1.5;" x1="1043.0442" x2="1450.0442" y1="555" y2="555"/><text fill="#000000" font-family="sans-serif" font-size="11" lengthAdjust="spacing" textLength="117" x="1048.0442" y="569.2104">IReception Reception</text><text fill="#000000" font-family="sans-serif" font-size="11" lengthAdjust="spacing" textLength="140" x="1048.0442" y="582.0151">IConfirmationState State</text><line style="stroke:#A80036;stroke-width:1.5;" x1="1043.0442" x2="1450.0442" y1="588.6094" y2="588.6094"/><ellipse cx="1053.0442" cy="599.6094" fill="#84BE84" rx="3" ry="3" style="stroke:#038048;stroke-width:1.0;"/><text fill="#000000" font-family="sans-serif" font-size="11" lengthAdjust="spacing" textLength="351" x="1062.0442" y="602.8198">AddAsync(goodToAdd : IReceptionGood , quantity : int ) : Task</text><ellipse cx="1053.0442" cy="612.4141" fill="#84BE84" rx="3" ry="3" style="stroke:#038048;stroke-width:1.0;"/><text fill="#000000" font-family="sans-serif" font-size="11" lengthAdjust="spacing" textLength="383" x="1062.0442" y="615.6245">RemoveAsync(goodToRemove: IReceptionGood , quantity: int): Task</text><ellipse cx="1053.0442" cy="625.2188" fill="#84BE84" rx="3" ry="3" style="stroke:#038048;stroke-width:1.0;"/><text fill="#000000" font-family="sans-serif" font-size="11" lengthAdjust="spacing" textLength="124" x="1062.0442" y="628.4292">CommitAsync() : Task</text><ellipse cx="1053.0442" cy="638.0234" fill="#84BE84" rx="3" ry="3" style="stroke:#038048;stroke-width:1.0;"/><text fill="#000000" font-family="sans-serif" font-size="11" lengthAdjust="spacing" textLength="272" x="1062.0442" y="641.2339">ToListAsync(): Task&lt;List&lt;IGoodConfirmation&gt;&gt;</text><ellipse cx="1053.0442" cy="650.8281" fill="#84BE84" rx="3" ry="3" style="stroke:#038048;stroke-width:1.0;"/><text fill="#000000" font-family="sans-serif" font-size="11" lengthAdjust="spacing" textLength="106" x="1062.0442" y="654.0386">ClearAsync(): Task</text><!--MD5=[7a63f56ae3ca9cb817a43269df786bdd]
class IReceptionGood--><rect codeLine="48" fill="#FEFECE" filter="url(#f1jhkftrhzjg6n)" height="99.2188" id="IReceptionGood" style="stroke:#A80036;stroke-width:1.5;" width="207" x="890.0442" y="911"/><ellipse cx="939.7942" cy="927" fill="#B4A7E5" rx="11" ry="11" style="stroke:#A80036;stroke-width:1.0;"/><path d="M935.7161,922.7656 L935.7161,920.6094 L943.1067,920.6094 L943.1067,922.7656 L940.6379,922.7656 L940.6379,930.8438 L943.1067,930.8438 L943.1067,933 L935.7161,933 L935.7161,930.8438 L938.1848,930.8438 L938.1848,922.7656 L935.7161,922.7656 Z " fill="#000000"/><text fill="#000000" font-family="sans-serif" font-size="12" font-style="italic" lengthAdjust="spacing" textLength="99" x="960.2942" y="931.1543">IReceptionGood</text><line style="stroke:#A80036;stroke-width:1.5;" x1="891.0442" x2="1096.0442" y1="943" y2="943"/><text fill="#000000" font-family="sans-serif" font-size="11" lengthAdjust="spacing" textLength="65" x="896.0442" y="957.2104">int Quantity</text><text fill="#000000" font-family="sans-serif" font-size="11" lengthAdjust="spacing" textLength="183" x="896.0442" y="970.0151">IGoodConfirmation Confirmation</text><line style="stroke:#A80036;stroke-width:1.5;" x1="891.0442" x2="1096.0442" y1="976.6094" y2="976.6094"/><ellipse cx="901.0442" cy="987.6094" fill="#84BE84" rx="3" ry="3" style="stroke:#038048;stroke-width:1.0;"/><text fill="#000000" font-family="sans-serif" font-size="11" lengthAdjust="spacing" textLength="181" x="910.0442" y="990.8198">ConfirmedAsync() : Task&lt;bool&gt;</text><ellipse cx="901.0442" cy="1000.4141" fill="#84BE84" rx="3" ry="3" style="stroke:#038048;stroke-width:1.0;"/><text fill="#000000" font-family="sans-serif" font-size="11" lengthAdjust="spacing" textLength="138" x="910.0442" y="1003.6245">Clear() : IReceptionGood</text><!--MD5=[1b9f8d1b33b627c9ed3b17acaadb8546]
class IGoodConfirmation--><rect codeLine="56" fill="#FEFECE" filter="url(#f1jhkftrhzjg6n)" height="112.0234" id="IGoodConfirmation" style="stroke:#A80036;stroke-width:1.5;" width="173" x="1042.0442" y="738"/><ellipse cx="1068.7442" cy="754" fill="#B4A7E5" rx="11" ry="11" style="stroke:#A80036;stroke-width:1.0;"/><path d="M1064.6661,749.7656 L1064.6661,747.6094 L1072.0567,747.6094 L1072.0567,749.7656 L1069.588,749.7656 L1069.588,757.8438 L1072.0567,757.8438 L1072.0567,760 L1064.6661,760 L1064.6661,757.8438 L1067.1348,757.8438 L1067.1348,749.7656 L1064.6661,749.7656 Z " fill="#000000"/><text fill="#000000" font-family="sans-serif" font-size="12" font-style="italic" lengthAdjust="spacing" textLength="115" x="1085.3442" y="758.1543">IGoodConfirmation</text><line style="stroke:#A80036;stroke-width:1.5;" x1="1043.0442" x2="1214.0442" y1="770" y2="770"/><text fill="#000000" font-family="sans-serif" font-size="11" lengthAdjust="spacing" textLength="122" x="1048.0442" y="784.2104">IReceptionGood Good</text><text fill="#000000" font-family="sans-serif" font-size="11" lengthAdjust="spacing" textLength="140" x="1048.0442" y="797.0151">IConfirmationState State</text><line style="stroke:#A80036;stroke-width:1.5;" x1="1043.0442" x2="1214.0442" y1="803.6094" y2="803.6094"/><ellipse cx="1053.0442" cy="814.6094" fill="#84BE84" rx="3" ry="3" style="stroke:#038048;stroke-width:1.0;"/><text fill="#000000" font-family="sans-serif" font-size="11" lengthAdjust="spacing" textLength="142" x="1062.0442" y="817.8198">int Increase(quantity :int)</text><ellipse cx="1053.0442" cy="827.4141" fill="#84BE84" rx="3" ry="3" style="stroke:#038048;stroke-width:1.0;"/><text fill="#000000" font-family="sans-serif" font-size="11" lengthAdjust="spacing" textLength="147" x="1062.0442" y="830.6245">int Decrease(quantity :int)</text><ellipse cx="1053.0442" cy="840.2188" fill="#84BE84" rx="3" ry="3" style="stroke:#038048;stroke-width:1.0;"/><text fill="#000000" font-family="sans-serif" font-size="11" lengthAdjust="spacing" textLength="65" x="1062.0442" y="843.4292">void Clear()</text><!--MD5=[8fc521b70c28b9f085ea6418b28640a0]
class IWarehouseGood--><rect codeLine="66" fill="#FEFECE" filter="url(#f1jhkftrhzjg6n)" height="99.2188" id="IWarehouseGood" style="stroke:#A80036;stroke-width:1.5;" width="222" x="589.5442" y="347"/><ellipse cx="642.7942" cy="363" fill="#B4A7E5" rx="11" ry="11" style="stroke:#A80036;stroke-width:1.0;"/><path d="M638.7161,358.7656 L638.7161,356.6094 L646.1067,356.6094 L646.1067,358.7656 L643.6379,358.7656 L643.6379,366.8438 L646.1067,366.8438 L646.1067,369 L638.7161,369 L638.7161,366.8438 L641.1848,366.8438 L641.1848,358.7656 L638.7161,358.7656 Z " fill="#000000"/><text fill="#000000" font-family="sans-serif" font-size="12" font-style="italic" lengthAdjust="spacing" textLength="107" x="663.2942" y="367.1543">IWarehouseGood</text><line style="stroke:#A80036;stroke-width:1.5;" x1="590.5442" x2="810.5442" y1="379" y2="379"/><text fill="#000000" font-family="sans-serif" font-size="11" lengthAdjust="spacing" textLength="65" x="595.5442" y="393.2104">int Quantity</text><text fill="#000000" font-family="sans-serif" font-size="11" lengthAdjust="spacing" textLength="111" x="595.5442" y="406.0151">IStorages Storages</text><text fill="#000000" font-family="sans-serif" font-size="11" lengthAdjust="spacing" textLength="123" x="595.5442" y="418.8198">IMovement Movement</text><line style="stroke:#A80036;stroke-width:1.5;" x1="590.5442" x2="810.5442" y1="425.4141" y2="425.4141"/><text fill="#000000" font-family="sans-serif" font-size="11" lengthAdjust="spacing" textLength="210" x="595.5442" y="439.6245">From(storage :IStorage) : IMovement</text><!--MD5=[5d2945def2d575c1f907a7f09ba34b55]
class IStorages--><rect codeLine="75" fill="#FEFECE" filter="url(#f1jhkftrhzjg6n)" height="112.0234" id="IStorages" style="stroke:#A80036;stroke-width:1.5;" width="444" x="57.5442" y="536"/><ellipse cx="245.2942" cy="552" fill="#B4A7E5" rx="11" ry="11" style="stroke:#A80036;stroke-width:1.0;"/><path d="M241.2161,547.7656 L241.2161,545.6094 L248.6067,545.6094 L248.6067,547.7656 L246.138,547.7656 L246.138,555.8438 L248.6067,555.8438 L248.6067,558 L241.2161,558 L241.2161,555.8438 L243.6848,555.8438 L243.6848,547.7656 L241.2161,547.7656 Z " fill="#000000"/><text fill="#000000" font-family="sans-serif" font-size="12" font-style="italic" lengthAdjust="spacing" textLength="60" x="265.7942" y="556.1543">IStorages</text><line style="stroke:#A80036;stroke-width:1.5;" x1="58.5442" x2="500.5442" y1="568" y2="568"/><text fill="#000000" font-family="sans-serif" font-size="11" lengthAdjust="spacing" textLength="162" x="63.5442" y="582.2104">IEntities&lt;IStorage&gt; PutAway</text><text fill="#000000" font-family="sans-serif" font-size="11" lengthAdjust="spacing" textLength="142" x="63.5442" y="595.0151">IEntities&lt;IStorage&gt; Race</text><text fill="#000000" font-family="sans-serif" font-size="11" lengthAdjust="spacing" textLength="161" x="63.5442" y="607.8198">IEntities&lt;IStorage&gt; Reserve</text><line style="stroke:#A80036;stroke-width:1.5;" x1="58.5442" x2="500.5442" y1="614.4141" y2="614.4141"/><ellipse cx="68.5442" cy="625.4141" fill="#84BE84" rx="3" ry="3" style="stroke:#038048;stroke-width:1.0;"/><text fill="#000000" font-family="sans-serif" font-size="11" lengthAdjust="spacing" textLength="269" x="77.5442" y="628.6245">ByBarcodeAsync(ean: string) : Task&lt;IStorage&gt;</text><ellipse cx="68.5442" cy="638.2188" fill="#84BE84" rx="3" ry="3" style="stroke:#038048;stroke-width:1.0;"/><text fill="#000000" font-family="sans-serif" font-size="11" lengthAdjust="spacing" textLength="418" x="77.5442" y="641.4292">ByBarcodeAsync(warehouse : IWarehouse, ean: string) : Task&lt;IStorage&gt;</text><!--MD5=[e8cfd755308414781c0123d0000bbf77]
class IStorage--><rect codeLine="84" fill="#FEFECE" filter="url(#f1jhkftrhzjg6n)" height="86.4141" id="IStorage" style="stroke:#A80036;stroke-width:1.5;" width="212" x="173.5442" y="751"/><ellipse cx="248.7942" cy="767" fill="#B4A7E5" rx="11" ry="11" style="stroke:#A80036;stroke-width:1.0;"/><path d="M244.7161,762.7656 L244.7161,760.6094 L252.1067,760.6094 L252.1067,762.7656 L249.638,762.7656 L249.638,770.8438 L252.1067,770.8438 L252.1067,773 L244.7161,773 L244.7161,770.8438 L247.1848,770.8438 L247.1848,762.7656 L244.7161,762.7656 Z " fill="#000000"/><text fill="#000000" font-family="sans-serif" font-size="12" font-style="italic" lengthAdjust="spacing" textLength="53" x="269.2942" y="771.1543">IStorage</text><line style="stroke:#A80036;stroke-width:1.5;" x1="174.5442" x2="384.5442" y1="783" y2="783"/><text fill="#000000" font-family="sans-serif" font-size="11" lengthAdjust="spacing" textLength="200" x="179.5442" y="797.2104">IEntities&lt;IWarehouseGood&gt; Goods</text><line style="stroke:#A80036;stroke-width:1.5;" x1="174.5442" x2="384.5442" y1="803.8047" y2="803.8047"/><ellipse cx="184.5442" cy="814.8047" fill="#84BE84" rx="3" ry="3" style="stroke:#038048;stroke-width:1.0;"/><text fill="#000000" font-family="sans-serif" font-size="11" lengthAdjust="spacing" textLength="90" x="193.5442" y="818.0151">IncreaseAsync()</text><ellipse cx="184.5442" cy="827.6094" fill="#84BE84" rx="3" ry="3" style="stroke:#038048;stroke-width:1.0;"/><text fill="#000000" font-family="sans-serif" font-size="11" lengthAdjust="spacing" textLength="95" x="193.5442" y="830.8198">DecreaseAsync()</text><!--MD5=[0456f55dbd06482b22a5e5e10e73b231]
class IMovement--><rect codeLine="91" fill="#FEFECE" filter="url(#f1jhkftrhzjg6n)" height="73.6094" id="IMovement" style="stroke:#A80036;stroke-width:1.5;" width="328" x="536.5442" y="555"/><ellipse cx="662.7942" cy="571" fill="#B4A7E5" rx="11" ry="11" style="stroke:#A80036;stroke-width:1.0;"/><path d="M658.7161,566.7656 L658.7161,564.6094 L666.1067,564.6094 L666.1067,566.7656 L663.6379,566.7656 L663.6379,574.8438 L666.1067,574.8438 L666.1067,577 L658.7161,577 L658.7161,574.8438 L661.1848,574.8438 L661.1848,566.7656 L658.7161,566.7656 Z " fill="#000000"/><text fill="#000000" font-family="sans-serif" font-size="12" font-style="italic" lengthAdjust="spacing" textLength="67" x="683.2942" y="575.1543">IMovement</text><line style="stroke:#A80036;stroke-width:1.5;" x1="537.5442" x2="863.5442" y1="587" y2="587"/><line style="stroke:#A80036;stroke-width:1.5;" x1="537.5442" x2="863.5442" y1="595" y2="595"/><ellipse cx="547.5442" cy="606" fill="#84BE84" rx="3" ry="3" style="stroke:#038048;stroke-width:1.0;"/><text fill="#000000" font-family="sans-serif" font-size="11" lengthAdjust="spacing" textLength="302" x="556.5442" y="609.2104">MoveToAsync(storage: IStorage , quantity: int) : Task</text><ellipse cx="547.5442" cy="618.8047" fill="#84BE84" rx="3" ry="3" style="stroke:#038048;stroke-width:1.0;"/><text fill="#000000" font-family="sans-serif" font-size="11" lengthAdjust="spacing" textLength="137" x="556.5442" y="622.0151">From(storage: IStorage)</text><!--MD5=[0c0753e9631ff759b8e4cfc38d133815]
class IConfirmationState--><rect codeLine="96" fill="#FEFECE" filter="url(#f1jhkftrhzjg6n)" height="60.8047" id="IConfirmationState" style="stroke:#A80036;stroke-width:1.5;" width="273" x="1132.0442" y="930"/><ellipse cx="1206.2942" cy="946" fill="#B4A7E5" rx="11" ry="11" style="stroke:#A80036;stroke-width:1.0;"/><path d="M1202.2161,941.7656 L1202.2161,939.6094 L1209.6067,939.6094 L1209.6067,941.7656 L1207.138,941.7656 L1207.138,949.8438 L1209.6067,949.8438 L1209.6067,952 L1202.2161,952 L1202.2161,949.8438 L1204.6848,949.8438 L1204.6848,941.7656 L1202.2161,941.7656 Z " fill="#000000"/><text fill="#000000" font-family="sans-serif" font-size="12" font-style="italic" lengthAdjust="spacing" textLength="116" x="1226.7942" y="950.1543">IConfirmationState</text><line style="stroke:#A80036;stroke-width:1.5;" x1="1133.0442" x2="1404.0442" y1="962" y2="962"/><line style="stroke:#A80036;stroke-width:1.5;" x1="1133.0442" x2="1404.0442" y1="970" y2="970"/><ellipse cx="1143.0442" cy="981" fill="#84BE84" rx="3" ry="3" style="stroke:#038048;stroke-width:1.0;"/><text fill="#000000" font-family="sans-serif" font-size="11" lengthAdjust="spacing" textLength="247" x="1152.0442" y="984.2104">ToEnumAsync() : Task&lt;ConfirmationState&gt;</text><!--MD5=[49ef23f3df3a3bd53fb72f77ec9a58bc]
reverse link ICompany to ICustomer--><path codeLine="101" d="M457.3178,128.8418 C450.8777,135.5607 444.5241,142.3576 438.5442,149 C420.9691,168.5223 402.2798,191.8142 388.9513,208.914 " fill="none" id="ICompany-backto-ICustomer" style="stroke:#A80036;stroke-width:1.0;"/><polygon fill="#A80036" points="466.7819,119.081,459.7335,120.6042,458.4286,127.6963,465.477,126.1731,466.7819,119.081" style="stroke:#A80036;stroke-width:1.0;"/><text fill="#000000" font-family="sans-serif" font-size="13" lengthAdjust="spacing" textLength="54" x="439.5442" y="162.0669">contains</text><text fill="#000000" font-family="sans-serif" font-size="13" lengthAdjust="spacing" textLength="8" x="451.2546" y="138.9035">1</text><text fill="#000000" font-family="sans-serif" font-size="13" lengthAdjust="spacing" textLength="36" x="353.0556" y="197.904">many</text><!--MD5=[3409c9272a57e3b85ec3c1a63de29f9d]
reverse link ICompany to IUser--><path codeLine="102" d="M508.7476,131.8572 C502.4988,159.0953 495.7234,188.6294 491.1168,208.7095 " fill="none" id="ICompany-backto-IUser" style="stroke:#A80036;stroke-width:1.0;"/><polygon fill="#A80036" points="511.6661,119.1355,506.4257,124.0891,508.9827,130.8316,514.2231,125.878,511.6661,119.1355" style="stroke:#A80036;stroke-width:1.0;"/><text fill="#000000" font-family="sans-serif" font-size="13" lengthAdjust="spacing" textLength="54" x="505.5442" y="162.0669">contains</text><text fill="#000000" font-family="sans-serif" font-size="13" lengthAdjust="spacing" textLength="8" x="501.6091" y="138.9646">1</text><text fill="#000000" font-family="sans-serif" font-size="13" lengthAdjust="spacing" textLength="36" x="452.0876" y="198.0436">many</text><!--MD5=[f8e4752c4ba4b88646ed7fb6a0542aa5]
reverse link ICompany to ISupplier--><path codeLine="103" d="M698.2981,123.282 C775.4679,150.0552 862.9664,180.4118 926.3335,202.3963 " fill="none" id="ICompany-backto-ISupplier" style="stroke:#A80036;stroke-width:1.0;"/><polygon fill="#A80036" points="686.0068,119.0176,690.3642,124.7633,697.3439,122.9509,692.9864,117.2053,686.0068,119.0176" style="stroke:#A80036;stroke-width:1.0;"/><text fill="#000000" font-family="sans-serif" font-size="13" lengthAdjust="spacing" textLength="54" x="814.5442" y="162.0669">contains</text><text fill="#000000" font-family="sans-serif" font-size="13" lengthAdjust="spacing" textLength="8" x="698.1817" y="139.2297">1</text><text fill="#000000" font-family="sans-serif" font-size="13" lengthAdjust="spacing" textLength="36" x="870.7509" y="192.4681">many</text><!--MD5=[a2fb562cbc050e676760d92a3e1f45c5]
reverse link ICompany to IWarehouse--><path codeLine="104" d="M592.3109,128.4564 C615.9887,151.3271 641.7328,176.1935 662.1709,195.9348 " fill="none" id="ICompany-backto-IWarehouse" style="stroke:#A80036;stroke-width:1.0;"/><polygon fill="#A80036" points="582.661,119.1355,584.1976,126.181,591.2921,127.4724,589.7555,120.4269,582.661,119.1355" style="stroke:#A80036;stroke-width:1.0;"/><!--MD5=[28bf3e847e616c01aba3563ed8474867]
reverse link ISupplier to IReception--><path codeLine="106" d="M1047.6596,274.0179 C1067.161,298.1731 1091.8075,328.7011 1111.6159,353.2364 " fill="none" id="ISupplier-backto-IReception" style="stroke:#A80036;stroke-width:1.0;"/><polygon fill="#A80036" points="1039.3724,263.7531,1040.0291,270.9342,1046.9105,273.09,1046.2537,265.9088,1039.3724,263.7531" style="stroke:#A80036;stroke-width:1.0;"/><text fill="#000000" font-family="sans-serif" font-size="13" lengthAdjust="spacing" textLength="54" x="1081.5442" y="313.0669">contains</text><text fill="#000000" font-family="sans-serif" font-size="13" lengthAdjust="spacing" textLength="8" x="1035.473" y="283.3834">1</text><text fill="#000000" font-family="sans-serif" font-size="13" lengthAdjust="spacing" textLength="36" x="1067.5113" y="342.5086">many</text><!--MD5=[3114d429e70eb9ea4e85c37a4be4a027]
reverse link IReception to IReceptionGood--><path codeLine="108" d="M1080.3488,448.4778 C1058.7369,469.1974 1037.088,494.8365 1024.5442,523 C966.5332,653.2473 976.8006,827.0249 986.4991,910.9688 " fill="none" id="IReception-backto-IReceptionGood" style="stroke:#A80036;stroke-width:1.0;"/><polygon fill="#A80036" points="1089.9112,439.6104,1082.7919,440.7572,1081.1122,447.7699,1088.2316,446.6232,1089.9112,439.6104" style="stroke:#A80036;stroke-width:1.0;"/><text fill="#000000" font-family="sans-serif" font-size="13" lengthAdjust="spacing" textLength="54" x="984.5442" y="704.0669">contains</text><text fill="#000000" font-family="sans-serif" font-size="13" lengthAdjust="spacing" textLength="8" x="1071.8689" y="460.0364">1</text><text fill="#000000" font-family="sans-serif" font-size="13" lengthAdjust="spacing" textLength="36" x="946.9771" y="900.0096">many</text><!--MD5=[509c9ed52fc692f77ea0404119c24070]
reverse link IReception to IConfirmation--><path codeLine="109" d="M1163.3192,452.0274 C1173.3104,473.9893 1186.1339,499.4711 1198.7993,522.6268 " fill="none" id="IReception-backto-IConfirmation" style="stroke:#A80036;stroke-width:1.0;"/><polygon fill="#A80036" points="1157.933,439.8878,1156.7101,446.9945,1162.7997,450.8566,1164.0226,443.75,1157.933,439.8878" style="stroke:#A80036;stroke-width:1.0;"/><!--MD5=[604ed2183890d1102fa6d4663ca609c1]
reverse link IConfirmation to IReception--><path codeLine="112" d="M1218.3494,510.8269 C1206.4229,486.5033 1192.631,460.7691 1180.1775,439.8878 " fill="none" id="IConfirmation-backto-IReception" style="stroke:#A80036;stroke-width:1.0;"/><polygon fill="#A80036" points="1224.0404,522.6268,1225.0367,515.4849,1218.8274,511.8183,1217.8311,518.9602,1224.0404,522.6268" style="stroke:#A80036;stroke-width:1.0;"/><!--MD5=[29094d67ba3ce8e58301e9be5089caf9]
reverse link IReceptionGood to IGoodConfirmation--><path codeLine="110" d="M1054.9205,900.8434 C1068.9582,884.4008 1083.3247,866.6197 1095.6934,850.3693 " fill="none" id="IReceptionGood-backto-IGoodConfirmation" style="stroke:#A80036;stroke-width:1.0;"/><polygon fill="#A80036" points="1046.2434,910.8827,1053.1932,908.959,1054.0904,901.8039,1047.1406,903.7276,1046.2434,910.8827" style="stroke:#A80036;stroke-width:1.0;"/><!--MD5=[80acd0917db55519c5f0a6a68d6f3cde]
reverse link IGoodConfirmation to IReceptionGood--><path codeLine="118" d="M1061.9737,860.6596 C1047.9169,877.4218 1033.8163,895.1192 1021.9983,910.8827 " fill="none" id="IGoodConfirmation-backto-IReceptionGood" style="stroke:#A80036;stroke-width:1.0;"/><polygon fill="#A80036" points="1070.6995,850.3693,1063.7682,852.3586,1062.9386,859.5218,1069.8699,857.5325,1070.6995,850.3693" style="stroke:#A80036;stroke-width:1.0;"/><!--MD5=[cf2bcbcd180f2622383404a95915bc40]
reverse link IConfirmation to IConfirmationState--><path codeLine="113" d="M1251.4656,674.4325 C1256.2885,755.217 1263.3841,874.0682 1266.7043,929.6812 " fill="none" id="IConfirmation-backto-IConfirmationState" style="stroke:#A80036;stroke-width:1.0;"/><polygon fill="#A80036" points="1250.6823,661.312,1247.047,667.5398,1251.3976,673.2907,1255.0328,667.0629,1250.6823,661.312" style="stroke:#A80036;stroke-width:1.0;"/><!--MD5=[b4eae62b9d7af900cf4e5940cfe77acf]
reverse link IConfirmation to IGoodConfirmation--><path codeLine="114" d="M1197.537,672.3762 C1193.7935,678.6637 1190.0933,684.9268 1186.5442,691 C1177.6912,706.1493 1168.2821,722.6685 1159.6759,737.9528 " fill="none" id="IConfirmation-backto-IGoodConfirmation" style="stroke:#A80036;stroke-width:1.0;"/><polygon fill="#A80036" points="1204.2991,661.068,1197.7867,664.1646,1198.1404,671.367,1204.6528,668.2704,1204.2991,661.068" style="stroke:#A80036;stroke-width:1.0;"/><text fill="#000000" font-family="sans-serif" font-size="13" lengthAdjust="spacing" textLength="54" x="1187.5442" y="704.0669">contains</text><text fill="#000000" font-family="sans-serif" font-size="13" lengthAdjust="spacing" textLength="8" x="1191.7468" y="680.6967">1</text><text fill="#000000" font-family="sans-serif" font-size="13" lengthAdjust="spacing" textLength="36" x="1125.3584" y="726.8847">many</text><!--MD5=[db6cd7534cdc2d171f04874d87426579]
reverse link IGoodConfirmation to IConfirmationState--><path codeLine="117" d="M1184.4716,860.5137 C1204.6553,884.5179 1226.4672,910.4584 1242.8151,929.9007 " fill="none" id="IGoodConfirmation-backto-IConfirmationState" style="stroke:#A80036;stroke-width:1.0;"/><polygon fill="#A80036" points="1175.9419,850.3693,1176.7418,857.5359,1183.6648,859.5539,1182.8649,852.3873,1175.9419,850.3693" style="stroke:#A80036;stroke-width:1.0;"/><!--MD5=[c2a2b94348eefffd3dfd68d75af7c4f6]
reverse link IWarehouse to IWarehouseGood--><path codeLine="120" d="M700.5442,283.2075 C700.5442,303.4223 700.5442,326.6763 700.5442,346.836 " fill="none" id="IWarehouse-backto-IWarehouseGood" style="stroke:#A80036;stroke-width:1.0;"/><polygon fill="#A80036" points="700.5442,270.1007,696.5442,276.1007,700.5442,282.1007,704.5442,276.1007,700.5442,270.1007" style="stroke:#A80036;stroke-width:1.0;"/><text fill="#000000" font-family="sans-serif" font-size="13" lengthAdjust="spacing" textLength="54" x="701.5442" y="313.0669">contains</text><text fill="#000000" font-family="sans-serif" font-size="13" lengthAdjust="spacing" textLength="8" x="691.8817" y="289.5979">1</text><text fill="#000000" font-family="sans-serif" font-size="13" lengthAdjust="spacing" textLength="36" x="662.0129" y="335.8582">many</text><!--MD5=[df76e01b0366ca21ffded64e8ea6dbe1]
reverse link IWarehouse to IStorage--><path codeLine="121" d="M562.4217,273.9936 C386.9401,329.1928 99.5729,431.1119 39.5442,523 C6,574.3475 8.4123,608.1551 39.5442,661 C68.6809,710.458 123.5628,742.8236 173.4978,763.2297 " fill="none" id="IWarehouse-backto-IStorage" style="stroke:#A80036;stroke-width:1.0;"/><polygon fill="#A80036" points="574.8584,270.1008,567.9375,268.0758,563.4063,273.6855,570.3273,275.7105,574.8584,270.1008" style="stroke:#A80036;stroke-width:1.0;"/><text fill="#000000" font-family="sans-serif" font-size="13" lengthAdjust="spacing" textLength="54" x="84.5442" y="489.0669">contains</text><text fill="#000000" font-family="sans-serif" font-size="13" lengthAdjust="spacing" textLength="8" x="545.3792" y="289.598">1</text><text fill="#000000" font-family="sans-serif" font-size="13" lengthAdjust="spacing" textLength="36" x="129.5511" y="757.8359">many</text><!--MD5=[4667dece3e8a471b49a58c61e44cb430]
reverse link IWarehouseGood to IStorages--><path codeLine="122" d="M581.836,451.6246 C525.1148,477.9642 457.3361,509.4387 400.3467,535.9029 " fill="none" id="IWarehouseGood-backto-IStorages" style="stroke:#A80036;stroke-width:1.0;"/><polygon fill="#A80036" points="593.7639,446.0856,586.6373,444.9847,582.8802,451.1397,590.0067,452.2406,593.7639,446.0856" style="stroke:#A80036;stroke-width:1.0;"/><!--MD5=[270475b1514bebc36fb887f08344bc8f]
reverse link IWarehouseGood to IMovement--><path codeLine="123" d="M700.5442,459.2044 C700.5442,490.7225 700.5442,527.8432 700.5442,554.8133 " fill="none" id="IWarehouseGood-backto-IMovement" style="stroke:#A80036;stroke-width:1.0;"/><polygon fill="#A80036" points="700.5442,446.0856,696.5442,452.0856,700.5442,458.0856,704.5442,452.0856,700.5442,446.0856" style="stroke:#A80036;stroke-width:1.0;"/><!--MD5=[f30aaba99780cef93244cc40d4fa0a73]
reverse link IStorages to IStorage--><path codeLine="124" d="M279.5442,661.3032 C279.5442,690.9709 279.5442,724.699 279.5442,750.7269 " fill="none" id="IStorages-backto-IStorage" style="stroke:#A80036;stroke-width:1.0;"/><polygon fill="#A80036" points="279.5442,648,275.5442,654,279.5442,660,283.5442,654,279.5442,648" style="stroke:#A80036;stroke-width:1.0;"/><text fill="#000000" font-family="sans-serif" font-size="13" lengthAdjust="spacing" textLength="54" x="280.5442" y="704.0669">contains</text><text fill="#000000" font-family="sans-serif" font-size="13" lengthAdjust="spacing" textLength="8" x="271.0317" y="668.2098">1</text><text fill="#000000" font-family="sans-serif" font-size="13" lengthAdjust="spacing" textLength="36" x="240.788" y="739.9976">many</text><!--MD5=[1d3d5cc7aa38798341a29112766230bd]
reverse link IStorage to IWarehouseGood--><path codeLine="125" d="M398.8129,784.9556 C556.718,770.2187 822.178,734.9136 881.5442,661 C919.9516,613.1811 909.8888,577.3908 881.5442,523 C864.9786,491.2119 836.3689,465.7694 806.7228,446.2776 " fill="none" id="IStorage-backto-IWarehouseGood" style="stroke:#A80036;stroke-width:1.0;"/><polygon fill="#A80036" points="385.7575,786.1501,392.0971,789.5867,397.7076,785.0565,391.368,781.62,385.7575,786.1501" style="stroke:#A80036;stroke-width:1.0;"/><!--MD5=[1e3d47593e1d030a62f8708f4ba98ab4]
@startuml
interface       ICompany
{
  IEntities<ICustomer> Customers
  IEntities<IUser> Users
  IWarehouse Warehouse
  IEntities<ISupplier> Suppliers
  +LoginAsync(userName: string , password:string) : Task<IUser>
}

interface       IEntities
{
  +ToListAsync() : Task<IList<TEntity>> 
  +With(filter : IFilter) : IEntities<TEntity> 
}

interface       ICustomer
interface       IUser
interface       IWarehouse
{
  IEntities<IWarehouseGood> Goods

  +ByBarcodeAsync(ean: string) : Task<IStorage>
}
interface       ISupplier
{
  IEntities<IReception> Receptions
}
interface       IReception
{
  IEntities<IReceptionGood> Goods

  +ValidateAsync(goodsToValidate: IList<IGoodConfirmation>) : Task
  +Confirmation() : IConfirmation
}

interface     IConfirmation
{
  IReception Reception
  IConfirmationState State

  +AddAsync(goodToAdd : IReceptionGood , quantity : int ) : Task
  +RemoveAsync(goodToRemove: IReceptionGood , quantity: int): Task
  +CommitAsync() : Task
  +ToListAsync(): Task<List<IGoodConfirmation>> 
  +ClearAsync(): Task
}

interface       IReceptionGood
{
  int Quantity
  IGoodConfirmation Confirmation
  
  +ConfirmedAsync() : Task<bool> 
  +Clear() : IReceptionGood
}
interface       IGoodConfirmation
{
  IReceptionGood Good
  IConfirmationState State
  
  +int Increase(quantity :int)
  +int Decrease(quantity :int)
  +void Clear()
}

interface     IWarehouseGood
{
  int Quantity
  IStorages Storages
  IMovement Movement
  
  From(storage :IStorage) : IMovement
}

interface     IStorages
{
  IEntities<IStorage> PutAway
  IEntities<IStorage> Race
  IEntities<IStorage> Reserve
  
  +ByBarcodeAsync(ean: string) : Task<IStorage>
  +ByBarcodeAsync(warehouse : IWarehouse, ean: string) : Task<IStorage> 
}
interface     IStorage
{
  IEntities<IWarehouseGood> Goods

  +IncreaseAsync()
  +DecreaseAsync()
}
interface     IMovement
{
  +MoveToAsync(storage: IStorage , quantity: int) : Task
  +From(storage: IStorage)
}
interface     IConfirmationState
{
  +ToEnumAsync() : Task<ConfirmationState>
}

ICompany "1" *- - "many" ICustomer : contains
ICompany "1" *- - "many" IUser : contains
ICompany "1" *- - "many" ISupplier : contains
ICompany *- - IWarehouse

ISupplier "1" *- - "many" IReception : contains

IReception "1" *- - "many" IReceptionGood : contains
IReception *- - IConfirmation
IReceptionGood *- - IGoodConfirmation

IConfirmation *- - IReception
IConfirmation *- - IConfirmationState
IConfirmation "1" *- - "many" IGoodConfirmation : contains


IGoodConfirmation *- - IConfirmationState
IGoodConfirmation *- - IReceptionGood

IWarehouse "1" *- - "many" IWarehouseGood : contains
IWarehouse "1" *- - "many" IStorage : contains
IWarehouseGood *- - IStorages
IWarehouseGood *- - IMovement
IStorages "1" *- - "many" IStorage : contains
IStorage *- - IWarehouseGood
@enduml

PlantUML version 1.2021.7(Sun May 23 12:40:07 UTC 2021)
(GPL source distribution)
Java Runtime: OpenJDK Runtime Environment
JVM: OpenJDK 64-Bit Server VM
Default Encoding: UTF-8
Language: en
Country: US
--></g></svg>